<svg width="25" height="24" viewBox="0 0 25 24" fill="none" xmlns="http://www.w3.org/2000/svg">
<path d="M12.5 0C5.59635 0 0 5.3725 0 12C0 18.6275 5.59635 24 12.5 24C19.4036 24 25 18.6275 25 12C25 5.3725 19.4036 0 12.5 0ZM9.4401 16.9738H6.90885V9.15375H9.4401V16.9738ZM8.15885 8.19375C7.35937 8.19375 6.84245 7.65 6.84245 6.9775C6.84245 6.29125 7.375 5.76375 8.19141 5.76375C9.00781 5.76375 9.50781 6.29125 9.52344 6.9775C9.52344 7.65 9.00781 8.19375 8.15885 8.19375ZM18.6849 16.9738H16.1536V12.64C16.1536 11.6313 15.7865 10.9462 14.8711 10.9462C14.1719 10.9462 13.7565 11.41 13.5729 11.8563C13.5052 12.015 13.4883 12.24 13.4883 12.4638V16.9725H10.9557V11.6475C10.9557 10.6713 10.9232 9.855 10.8893 9.1525H13.0885L13.2044 10.2388H13.2552C13.5885 9.72875 14.4049 8.97625 15.7708 8.97625C17.4362 8.97625 18.6849 10.0475 18.6849 12.35V16.9738Z" fill="#25E59B"/>
</svg>
