<svg width="1440" height="594" viewBox="0 0 1440 594" fill="none" xmlns="http://www.w3.org/2000/svg">
<g opacity="0.5">
<path d="M-5.91022 39.8273C-2.16459 39.8273 1.62421 39.4383 5.38425 38.6459C9.66292 37.7383 13.8263 36.3119 17.7592 34.3957C21.3752 32.638 24.7895 30.4625 27.9301 27.9556C29.4572 26.7166 30.9411 25.4055 32.3097 24.0224C33.6783 22.6537 35.0036 21.1842 36.2426 19.6426L36.3145 19.5417C40.7228 14.0237 40.2618 6.07078 35.234 1.0426L26.7631 -7.42896C20.3955 -13.797 15.1806 -11.6359 15.1806 -2.63129C15.1806 -0.830368 15.9009 0.898523 17.1687 2.16637L22.6862 7.68441C24.5302 9.52856 24.6023 12.5397 22.7583 14.3983L22.7295 14.4271C21.4041 15.7526 19.9778 16.9916 18.4795 18.1298C15.3389 20.4926 11.8816 22.3944 8.208 23.7487C3.91493 25.3335 -0.594303 26.1835 -5.1899 26.2556C-5.42041 26.2556 -5.65088 26.2556 -5.88138 26.2556C-28.2255 26.2556 -46.3343 8.14544 -46.3343 -14.186H-59.9049C-59.9049 15.6517 -35.7168 39.8417 -5.88138 39.8417L-5.91022 39.8273Z" fill="#3C137C"/>
<path d="M144.925 26.2556C144.694 26.2556 144.464 26.2556 144.233 26.2556C139.638 26.1835 135.128 25.3335 130.835 23.7487C127.147 22.3944 123.69 20.4926 120.564 18.1298C119.065 16.9916 117.625 15.7526 116.314 14.4271L116.285 14.3983C114.441 12.5541 114.513 9.52856 116.357 7.68441L121.875 2.16637C123.142 0.898523 123.863 -0.830368 123.863 -2.63129C123.863 -11.6359 118.648 -13.797 112.28 -7.42896L103.809 1.0426C98.7814 6.07078 98.306 14.0237 102.729 19.5417L102.801 19.6426C104.04 21.1842 105.365 22.6537 106.734 24.0224C108.102 25.3911 109.572 26.7166 111.113 27.9556C114.254 30.4769 117.668 32.6525 121.284 34.3957C125.217 36.2975 129.38 37.7383 133.659 38.6459C137.419 39.4383 141.193 39.8417 144.953 39.8417C174.789 39.8417 198.977 15.6373 198.977 -14.186H185.406C185.406 8.15985 167.298 26.27 144.953 26.27L144.925 26.2556Z" fill="#3C137C"/>
<path d="M295.828 39.8273C299.574 39.8273 303.363 39.4383 307.123 38.6459C311.402 37.7383 315.565 36.3119 319.498 34.3957C323.114 32.638 326.528 30.4625 329.669 27.9556C331.196 26.7166 332.68 25.4055 334.048 24.0224C335.417 22.6537 336.742 21.1842 337.981 19.6426L338.053 19.5417C342.462 14.0237 342.001 6.07078 336.973 1.0426L328.502 -7.42896C322.134 -13.797 316.919 -11.6359 316.919 -2.63129C316.919 -0.830368 317.639 0.898523 318.907 2.16637L324.425 7.68441C326.269 9.52856 326.341 12.5397 324.497 14.3983L324.468 14.4271C323.143 15.7526 321.716 16.9916 320.218 18.1298C317.078 20.4926 313.62 22.3944 309.947 23.7487C305.653 25.3335 301.144 26.1835 296.549 26.2556C296.318 26.2556 296.088 26.2556 295.857 26.2556C273.513 26.2556 255.404 8.14544 255.404 -14.186H241.834C241.834 15.6517 266.022 39.8417 295.857 39.8417L295.828 39.8273Z" fill="#3C137C"/>
<path d="M446.677 26.2556C446.446 26.2556 446.216 26.2556 445.985 26.2556C441.39 26.1835 436.881 25.3335 432.587 23.7487C428.899 22.3944 425.442 20.4926 422.316 18.1298C420.818 16.9916 419.377 15.7526 418.066 14.4271L418.037 14.3983C416.193 12.5541 416.265 9.52856 418.109 7.68441L423.627 2.16637C424.895 0.898523 425.615 -0.830368 425.615 -2.63129C425.615 -11.6359 420.4 -13.797 414.032 -7.42896L405.561 1.0426C400.534 6.07078 400.058 14.0237 404.481 19.5417L404.553 19.6426C405.792 21.1842 407.117 22.6537 408.486 24.0224C409.854 25.3911 411.324 26.7166 412.865 27.9556C416.006 30.4769 419.42 32.6525 423.036 34.3957C426.969 36.2975 431.132 37.7383 435.411 38.6459C439.171 39.4383 442.945 39.8417 446.706 39.8417C476.541 39.8417 500.729 15.6373 500.729 -14.186H487.158C487.158 8.15985 469.05 26.27 446.706 26.27L446.677 26.2556Z" fill="#3C137C"/>
<path d="M597.583 39.8273C601.329 39.8273 605.118 39.4383 608.878 38.6459C613.156 37.7383 617.32 36.3119 621.253 34.3957C624.869 32.638 628.283 30.4625 631.424 27.9556C632.951 26.7166 634.434 25.4055 635.803 24.0224C637.172 22.6537 638.497 21.1842 639.736 19.6426L639.808 19.5417C644.216 14.0237 643.755 6.07078 638.727 1.0426L630.257 -7.42896C623.889 -13.797 618.674 -11.6359 618.674 -2.63129C618.674 -0.830368 619.394 0.898523 620.662 2.16637L626.18 7.68441C628.024 9.52856 628.096 12.5397 626.252 14.3983L626.223 14.4271C624.898 15.7526 623.471 16.9916 621.973 18.1298C618.832 20.4926 615.375 22.3944 611.701 23.7487C607.408 25.3335 602.899 26.1835 598.304 26.2556C598.073 26.2556 597.842 26.2556 597.612 26.2556C575.268 26.2556 557.159 8.14544 557.159 -14.186H543.588C543.588 15.6517 567.777 39.8417 597.612 39.8417L597.583 39.8273Z" fill="#3C137C"/>
<path d="M748.432 26.2556C748.201 26.2556 747.971 26.2556 747.74 26.2556C743.145 26.1835 738.635 25.3335 734.342 23.7487C730.654 22.3944 727.197 20.4926 724.071 18.1298C722.572 16.9916 721.132 15.7526 719.821 14.4271L719.792 14.3983C717.948 12.5541 718.02 9.52856 719.864 7.68441L725.382 2.16637C726.649 0.898523 727.37 -0.830368 727.37 -2.63129C727.37 -11.6359 722.155 -13.797 715.787 -7.42896L707.316 1.0426C702.288 6.07078 701.813 14.0237 706.236 19.5417L706.308 19.6426C707.547 21.1842 708.872 22.6537 710.241 24.0224C711.609 25.3911 713.079 26.7166 714.62 27.9556C717.761 30.4769 721.175 32.6525 724.791 34.3957C728.724 36.2975 732.887 37.7383 737.166 38.6459C740.926 39.4383 744.701 39.8417 748.461 39.8417C778.296 39.8417 802.484 15.6373 802.484 -14.186H788.913C788.913 8.15985 770.805 26.27 748.461 26.27L748.432 26.2556Z" fill="#3C137C"/>
<path d="M899.337 39.8273C903.083 39.8273 906.871 39.4383 910.631 38.6459C914.91 37.7383 919.074 36.3119 923.007 34.3957C926.623 32.638 930.037 30.4625 933.177 27.9556C934.704 26.7166 936.188 25.4055 937.557 24.0224C938.925 22.6537 940.251 21.1842 941.49 19.6426L941.562 19.5417C945.97 14.0237 945.509 6.07078 940.481 1.0426L932.01 -7.42896C925.643 -13.797 920.428 -11.6359 920.428 -2.63129C920.428 -0.830368 921.148 0.898523 922.416 2.16637L927.933 7.68441C929.777 9.52856 929.849 12.5397 928.005 14.3983L927.977 14.4271C926.651 15.7526 925.225 16.9916 923.727 18.1298C920.586 20.4926 917.129 22.3944 913.455 23.7487C909.162 25.3335 904.653 26.1835 900.057 26.2556C899.827 26.2556 899.596 26.2556 899.366 26.2556C877.022 26.2556 858.913 8.14544 858.913 -14.186H845.342C845.342 15.6517 869.53 39.8417 899.366 39.8417L899.337 39.8273Z" fill="#3C137C"/>
<path d="M1050.17 26.2556C1049.94 26.2556 1049.71 26.2556 1049.48 26.2556C1044.88 26.1835 1040.37 25.3335 1036.08 23.7487C1032.39 22.3944 1028.94 20.4926 1025.81 18.1298C1024.31 16.9916 1022.87 15.7526 1021.56 14.4271L1021.53 14.3983C1019.69 12.5541 1019.76 9.52856 1021.6 7.68441L1027.12 2.16637C1028.39 0.898523 1029.11 -0.830368 1029.11 -2.63129C1029.11 -11.6359 1023.89 -13.797 1017.53 -7.42896L1009.06 1.0426C1004.03 6.07078 1003.55 14.0237 1007.97 19.5417L1008.05 19.6426C1009.29 21.1842 1010.61 22.6537 1011.98 24.0224C1013.35 25.3911 1014.82 26.7166 1016.36 27.9556C1019.5 30.4769 1022.91 32.6525 1026.53 34.3957C1030.46 36.2975 1034.63 37.7383 1038.9 38.6459C1042.66 39.4383 1046.44 39.8417 1050.2 39.8417C1080.03 39.8417 1104.22 15.6373 1104.22 -14.186H1090.65C1090.65 8.15985 1072.54 26.27 1050.2 26.27L1050.17 26.2556Z" fill="#3C137C"/>
<path d="M1201.08 39.8273C1204.82 39.8273 1208.61 39.4383 1212.37 38.6459C1216.65 37.7383 1220.81 36.3119 1224.75 34.3957C1228.36 32.638 1231.78 30.4625 1234.92 27.9556C1236.44 26.7166 1237.93 25.4055 1239.3 24.0224C1240.67 22.6537 1241.99 21.1842 1243.23 19.6426L1243.3 19.5417C1247.71 14.0237 1247.25 6.07078 1242.22 1.0426L1233.75 -7.42896C1227.38 -13.797 1222.17 -11.6359 1222.17 -2.63129C1222.17 -0.830368 1222.89 0.898523 1224.16 2.16637L1229.67 7.68441C1231.52 9.52856 1231.59 12.5397 1229.75 14.3983L1229.72 14.4271C1228.39 15.7526 1226.97 16.9916 1225.47 18.1298C1222.33 20.4926 1218.87 22.3944 1215.2 23.7487C1210.9 25.3335 1206.39 26.1835 1201.8 26.2556C1201.57 26.2556 1201.34 26.2556 1201.11 26.2556C1178.76 26.2556 1160.65 8.14544 1160.65 -14.186H1147.08C1147.08 15.6517 1171.27 39.8417 1201.11 39.8417L1201.08 39.8273Z" fill="#3C137C"/>
<path d="M1351.92 26.2556C1351.69 26.2556 1351.46 26.2556 1351.23 26.2556C1346.64 26.1835 1342.13 25.3335 1337.84 23.7487C1334.15 22.3944 1330.69 20.4926 1327.56 18.1298C1326.07 16.9916 1324.62 15.7526 1323.31 14.4271L1323.28 14.3983C1321.44 12.5541 1321.51 9.52856 1323.36 7.68441L1328.87 2.16637C1330.14 0.898523 1330.86 -0.830368 1330.86 -2.63129C1330.86 -11.6359 1325.65 -13.797 1319.28 -7.42896L1310.81 1.0426C1305.78 6.07078 1305.31 14.0237 1309.73 19.5417L1309.8 19.6426C1311.04 21.1842 1312.37 22.6537 1313.73 24.0224C1315.1 25.3911 1316.57 26.7166 1318.11 27.9556C1321.25 30.4769 1324.67 32.6525 1328.28 34.3957C1332.22 36.2975 1336.38 37.7383 1340.66 38.6459C1344.42 39.4383 1348.19 39.8417 1351.95 39.8417C1381.79 39.8417 1405.98 15.6373 1405.98 -14.186H1392.41C1392.41 8.15985 1374.3 26.27 1351.95 26.27L1351.92 26.2556Z" fill="#3C137C"/>
<path d="M102.181 127.885C95.8133 121.517 90.5982 123.678 90.5982 132.683C90.5982 134.484 91.3185 136.213 92.5863 137.481L98.1038 142.999C99.9478 144.843 100.02 147.854 98.1759 149.712L98.1471 149.741C96.8217 151.067 95.3955 152.306 93.8973 153.444C90.7567 155.807 87.2992 157.709 83.6256 159.063C79.3325 160.648 74.8233 161.498 70.2277 161.57C69.9972 161.57 69.7667 161.57 69.5362 161.57C47.1921 161.57 29.0835 143.46 29.0835 121.128H15.5127C15.5127 150.966 39.7008 175.156 69.5362 175.156C73.2819 175.156 77.0707 174.767 80.8307 173.975C85.1094 173.067 89.2729 171.641 93.2058 169.724C96.8218 167.967 100.236 165.791 103.377 163.284C104.904 162.045 106.388 160.734 107.756 159.351C109.125 157.982 110.45 156.513 111.689 154.971L111.761 154.87C116.169 149.352 115.708 141.399 110.68 136.371L102.21 127.9L102.181 127.885Z" fill="#3C137C"/>
<path d="M36.8342 114.342C43.2017 120.711 48.4167 118.549 48.4167 109.545C48.4167 107.744 47.6964 106.015 46.4286 104.747L40.9111 99.2291C39.0671 97.385 38.995 94.3738 40.839 92.5153L40.8678 92.4864C42.1932 91.161 43.6195 89.9219 45.1178 88.7837C48.2583 86.4209 51.7158 84.5191 55.3894 83.1649C59.6825 81.58 64.1916 80.73 68.7872 80.658C69.0177 80.658 69.2481 80.658 69.4786 80.658C91.8228 80.658 109.932 98.7681 109.932 121.1H123.502C123.502 91.2618 99.314 67.0718 69.4786 67.0718C65.733 67.0718 61.9442 67.4608 58.1842 68.2532C53.9055 69.1609 49.7422 70.5872 45.8092 72.5034C42.1933 74.2611 38.7789 76.4366 35.6383 78.9435C34.1113 80.1825 32.6275 81.4936 31.2589 82.8767C29.8903 84.2454 28.5648 85.715 27.3259 87.2565L27.2539 87.3574C22.8456 92.8754 23.3066 100.828 28.3344 105.857L36.8053 114.328L36.8342 114.342Z" fill="#3C137C"/>
<path d="M179.946 121.114C179.946 98.7681 198.055 80.658 220.399 80.658C220.63 80.658 220.86 80.658 221.091 80.658C225.686 80.73 230.195 81.58 234.488 83.1648C238.176 84.5191 241.634 86.4209 244.76 88.7837C246.258 89.9219 247.699 91.161 249.01 92.4864L249.039 92.5153C250.883 94.3594 250.811 97.385 248.967 99.2291L243.449 104.747C242.181 106.015 241.461 107.744 241.461 109.545C241.461 118.549 246.676 120.711 253.044 114.342L261.515 105.871C266.542 100.843 267.018 92.8898 262.595 87.3718L262.523 87.271C261.284 85.7294 259.959 84.2598 258.59 82.8911C257.222 81.5224 255.752 80.1969 254.211 78.9579C251.07 76.4366 247.656 74.2611 244.04 72.5178C240.107 70.616 235.944 69.1753 231.665 68.2676C227.905 67.4752 224.13 67.0718 220.37 67.0718C190.535 67.0718 166.347 91.2762 166.347 121.1H179.917L179.946 121.114Z" fill="#3C137C"/>
<path d="M220.369 161.57C220.139 161.57 219.908 161.57 219.678 161.57C215.082 161.498 210.573 160.648 206.28 159.063C202.592 157.709 199.135 155.807 196.009 153.444C194.51 152.306 193.07 151.067 191.759 149.741L191.73 149.712C189.886 147.868 189.958 144.843 191.802 142.999L197.319 137.481C198.587 136.213 199.307 134.484 199.307 132.683C199.307 123.678 194.093 121.517 187.725 127.885L179.254 136.357C174.226 141.385 173.751 149.338 178.174 154.856L178.245 154.957C179.484 156.498 180.81 157.968 182.178 159.337C183.547 160.705 185.016 162.031 186.558 163.27C189.699 165.791 193.113 167.967 196.729 169.71C200.662 171.612 204.825 173.052 209.104 173.96C212.864 174.753 216.638 175.156 220.398 175.156C250.234 175.156 274.422 150.952 274.422 121.128H260.851C260.851 143.474 242.742 161.584 220.398 161.584L220.369 161.57Z" fill="#3C137C"/>
<path d="M403.934 127.885C397.566 121.517 392.351 123.678 392.351 132.683C392.351 134.484 393.072 136.213 394.339 137.481L399.857 142.999C401.701 144.843 401.773 147.854 399.929 149.712L399.9 149.741C398.575 151.067 397.149 152.306 395.65 153.444C392.51 155.807 389.052 157.709 385.379 159.063C381.086 160.648 376.576 161.498 371.981 161.57C371.75 161.57 371.52 161.57 371.289 161.57C348.945 161.57 330.837 143.46 330.837 121.128H317.266C317.266 150.966 341.454 175.156 371.289 175.156C375.035 175.156 378.824 174.767 382.584 173.975C386.863 173.067 391.026 171.641 394.959 169.724C398.575 167.967 401.989 165.791 405.13 163.284C406.657 162.045 408.141 160.734 409.509 159.351C410.878 157.982 412.203 156.513 413.442 154.971L413.514 154.87C417.922 149.352 417.461 141.399 412.434 136.371L403.963 127.9L403.934 127.885Z" fill="#3C137C"/>
<path d="M338.573 114.342C344.94 120.711 350.155 118.549 350.155 109.545C350.155 107.744 349.435 106.015 348.167 104.747L342.65 99.2291C340.806 97.385 340.734 94.3738 342.578 92.5153L342.607 92.4864C343.932 91.161 345.358 89.9219 346.856 88.7837C349.997 86.4209 353.454 84.5191 357.128 83.1649C361.421 81.58 365.93 80.73 370.526 80.658C370.756 80.658 370.987 80.658 371.217 80.658C393.561 80.658 411.67 98.7681 411.67 121.1H425.241C425.241 91.2618 401.053 67.0718 371.217 67.0718C367.472 67.0718 363.683 67.4608 359.923 68.2532C355.644 69.1609 351.481 70.5872 347.548 72.5034C343.932 74.2611 340.518 76.4366 337.377 78.9435C335.85 80.1825 334.366 81.4936 332.997 82.8767C331.629 84.2454 330.304 85.715 329.065 87.2565L328.992 87.3574C324.584 92.8754 325.045 100.828 330.073 105.857L338.544 114.328L338.573 114.342Z" fill="#3C137C"/>
<path d="M481.699 121.114C481.699 98.7681 499.808 80.658 522.152 80.658C522.383 80.658 522.613 80.658 522.844 80.658C527.439 80.73 531.948 81.58 536.241 83.1648C539.929 84.5191 543.387 86.4209 546.513 88.7837C548.011 89.9219 549.452 91.161 550.763 92.4864L550.792 92.5153C552.636 94.3594 552.564 97.385 550.72 99.2291L545.202 104.747C543.935 106.015 543.214 107.744 543.214 109.545C543.214 118.549 548.429 120.711 554.797 114.342L563.268 105.871C568.295 100.843 568.771 92.8898 564.348 87.3718L564.276 87.271C563.037 85.7294 561.712 84.2598 560.343 82.8911C558.975 81.5224 557.505 80.1969 555.964 78.9579C552.823 76.4366 549.409 74.2611 545.793 72.5178C541.86 70.616 537.697 69.1753 533.418 68.2676C529.658 67.4752 525.883 67.0718 522.123 67.0718C492.288 67.0718 468.1 91.2762 468.1 121.1H481.67L481.699 121.114Z" fill="#3C137C"/>
<path d="M522.109 161.57C521.879 161.57 521.649 161.57 521.418 161.57C516.822 161.498 512.313 160.648 508.02 159.063C504.332 157.709 500.875 155.807 497.748 153.444C496.25 152.306 494.81 151.067 493.499 149.741L493.47 149.712C491.626 147.868 491.698 144.843 493.542 142.999L499.059 137.481C500.327 136.213 501.048 134.484 501.048 132.683C501.048 123.678 495.832 121.517 489.465 127.885L480.994 136.357C475.966 141.385 475.491 149.338 479.913 154.856L479.986 154.957C481.224 156.498 482.55 157.968 483.918 159.337C485.287 160.705 486.757 162.031 488.298 163.27C491.439 165.791 494.853 167.967 498.469 169.71C502.402 171.612 506.565 173.052 510.844 173.96C514.604 174.753 518.378 175.156 522.138 175.156C551.974 175.156 576.162 150.952 576.162 121.128H562.591C562.591 143.474 544.482 161.584 522.138 161.584L522.109 161.57Z" fill="#3C137C"/>
<path d="M705.688 127.885C699.32 121.517 694.105 123.678 694.105 132.683C694.105 134.484 694.826 136.213 696.093 137.481L701.611 142.999C703.455 144.843 703.527 147.854 701.683 149.712L701.654 149.741C700.329 151.067 698.902 152.306 697.404 153.444C694.264 155.807 690.806 157.709 687.133 159.063C682.839 160.648 678.33 161.498 673.735 161.57C673.504 161.57 673.274 161.57 673.043 161.57C650.699 161.57 632.59 143.46 632.59 121.128H619.02C619.02 150.966 643.208 175.156 673.043 175.156C676.789 175.156 680.578 174.767 684.338 173.975C688.616 173.067 692.78 171.641 696.713 169.724C700.329 167.967 703.743 165.791 706.884 163.284C708.411 162.045 709.894 160.734 711.263 159.351C712.632 157.982 713.957 156.513 715.196 154.971L715.268 154.87C719.676 149.352 719.215 141.399 714.188 136.371L705.717 127.9L705.688 127.885Z" fill="#3C137C"/>
<path d="M640.326 114.342C646.694 120.711 651.909 118.549 651.909 109.545C651.909 107.744 651.189 106.015 649.921 104.747L644.403 99.2291C642.559 97.385 642.487 94.3738 644.331 92.5153L644.36 92.4864C645.685 91.161 647.112 89.9219 648.61 88.7837C651.75 86.4209 655.208 84.5191 658.882 83.1649C663.175 81.58 667.684 80.73 672.279 80.658C672.51 80.658 672.74 80.658 672.971 80.658C695.315 80.658 713.424 98.7681 713.424 121.1H726.994C726.994 91.2618 702.806 67.0718 672.971 67.0718C669.225 67.0718 665.436 67.4608 661.676 68.2532C657.398 69.1609 653.234 70.5872 649.301 72.5034C645.685 74.2611 642.271 76.4366 639.131 78.9435C637.603 80.1825 636.12 81.4936 634.751 82.8767C633.382 84.2454 632.057 85.715 630.818 87.2565L630.746 87.3574C626.338 92.8754 626.799 100.828 631.826 105.857L640.297 114.328L640.326 114.342Z" fill="#3C137C"/>
<path d="M783.452 121.114C783.452 98.7681 801.561 80.658 823.905 80.658C824.136 80.658 824.366 80.658 824.597 80.658C829.192 80.73 833.701 81.58 837.995 83.1648C841.683 84.5191 845.14 86.4209 848.266 88.7837C849.764 89.9219 851.205 91.161 852.516 92.4864L852.545 92.5153C854.389 94.3594 854.317 97.385 852.473 99.2291L846.955 104.747C845.687 106.015 844.967 107.744 844.967 109.545C844.967 118.549 850.182 120.711 856.55 114.342L865.021 105.871C870.049 100.843 870.524 92.8898 866.101 87.3718L866.029 87.271C864.79 85.7294 863.465 84.2598 862.096 82.8911C860.728 81.5224 859.258 80.1969 857.717 78.9579C854.576 76.4366 851.162 74.2611 847.546 72.5178C843.613 70.616 839.449 69.1753 835.171 68.2676C831.411 67.4752 827.636 67.0718 823.876 67.0718C794.041 67.0718 769.853 91.2762 769.853 121.1H783.424L783.452 121.114Z" fill="#3C137C"/>
<path d="M823.862 161.57C823.632 161.57 823.401 161.57 823.171 161.57C818.575 161.498 814.066 160.648 809.773 159.063C806.085 157.709 802.628 155.807 799.501 153.444C798.003 152.306 796.563 151.067 795.252 149.741L795.223 149.712C793.379 147.868 793.451 144.843 795.295 142.999L800.812 137.481C802.08 136.213 802.8 134.484 802.8 132.683C802.8 123.678 797.585 121.517 791.218 127.885L782.747 136.357C777.719 141.385 777.244 149.338 781.666 154.856L781.738 154.957C782.977 156.498 784.303 157.968 785.671 159.337C787.04 160.705 788.509 162.031 790.051 163.27C793.191 165.791 796.606 167.967 800.222 169.71C804.155 171.612 808.318 173.052 812.597 173.96C816.357 174.753 820.131 175.156 823.891 175.156C853.727 175.156 877.915 150.952 877.915 121.128H864.344C864.344 143.474 846.235 161.584 823.891 161.584L823.862 161.57Z" fill="#3C137C"/>
<path d="M1007.43 127.885C1001.06 121.517 995.845 123.678 995.845 132.683C995.845 134.484 996.565 136.213 997.833 137.481L1003.35 142.999C1005.19 144.843 1005.27 147.854 1003.42 149.712L1003.39 149.741C1002.07 151.067 1000.64 152.306 999.144 153.444C996.003 155.807 992.546 157.709 988.872 159.063C984.579 160.648 980.07 161.498 975.474 161.57C975.244 161.57 975.013 161.57 974.783 161.57C952.438 161.57 934.33 143.46 934.33 121.128H920.759C920.759 150.966 944.947 175.156 974.783 175.156C978.528 175.156 982.317 174.767 986.077 173.975C990.356 173.067 994.519 171.641 998.452 169.724C1002.07 167.967 1005.48 165.791 1008.62 163.284C1010.15 162.045 1011.63 160.734 1013 159.351C1014.37 157.982 1015.7 156.513 1016.94 154.971L1017.01 154.87C1021.42 149.352 1020.95 141.399 1015.93 136.371L1007.46 127.9L1007.43 127.885Z" fill="#3C137C"/>
<path d="M942.081 114.342C948.449 120.711 953.664 118.549 953.664 109.545C953.664 107.744 952.943 106.015 951.676 104.747L946.158 99.2291C944.314 97.385 944.242 94.3738 946.086 92.5153L946.115 92.4864C947.44 91.161 948.866 89.9219 950.365 88.7837C953.505 86.4209 956.963 84.5191 960.636 83.1649C964.929 81.58 969.439 80.73 974.034 80.658C974.265 80.658 974.495 80.658 974.726 80.658C997.07 80.658 1015.18 98.7681 1015.18 121.1H1028.75C1028.75 91.2618 1004.56 67.0718 974.726 67.0718C970.98 67.0718 967.191 67.4608 963.431 68.2532C959.152 69.1609 954.989 70.5872 951.056 72.5034C947.44 74.2611 944.026 76.4366 940.885 78.9435C939.358 80.1825 937.874 81.4936 936.506 82.8767C935.137 84.2454 933.812 85.715 932.573 87.2565L932.501 87.3574C928.093 92.8754 928.554 100.828 933.581 105.857L942.052 114.328L942.081 114.342Z" fill="#3C137C"/>
<path d="M1085.19 121.114C1085.19 98.7681 1103.3 80.658 1125.65 80.658C1125.88 80.658 1126.11 80.658 1126.34 80.658C1130.93 80.73 1135.44 81.58 1139.74 83.1648C1143.42 84.5191 1146.88 86.4209 1150.01 88.7837C1151.51 89.9219 1152.95 91.161 1154.26 92.4864L1154.29 92.5153C1156.13 94.3594 1156.06 97.385 1154.21 99.2291L1148.7 104.747C1147.43 106.015 1146.71 107.744 1146.71 109.545C1146.71 118.549 1151.92 120.711 1158.29 114.342L1166.76 105.871C1171.79 100.843 1172.26 92.8898 1167.84 87.3718L1167.77 87.271C1166.53 85.7294 1165.21 84.2598 1163.84 82.8911C1162.47 81.5224 1161 80.1969 1159.46 78.9579C1156.32 76.4366 1152.9 74.2611 1149.29 72.5178C1145.35 70.616 1141.19 69.1753 1136.91 68.2676C1133.15 67.4752 1129.38 67.0718 1125.62 67.0718C1095.78 67.0718 1071.59 91.2762 1071.59 121.1H1085.16L1085.19 121.114Z" fill="#3C137C"/>
<path d="M1125.62 161.57C1125.39 161.57 1125.15 161.57 1124.92 161.57C1120.33 161.498 1115.82 160.648 1111.53 159.063C1107.84 157.709 1104.38 155.807 1101.26 153.444C1099.76 152.306 1098.32 151.067 1097.01 149.741L1096.98 149.712C1095.13 147.868 1095.2 144.843 1097.05 142.999L1102.57 137.481C1103.83 136.213 1104.55 134.484 1104.55 132.683C1104.55 123.678 1099.34 121.517 1092.97 127.885L1084.5 136.357C1079.47 141.385 1079 149.338 1083.42 154.856L1083.49 154.957C1084.73 156.498 1086.06 157.968 1087.42 159.337C1088.79 160.705 1090.26 162.031 1091.8 163.27C1094.94 165.791 1098.36 167.967 1101.98 169.71C1105.91 171.612 1110.07 173.052 1114.35 173.96C1118.11 174.753 1121.88 175.156 1125.64 175.156C1155.48 175.156 1179.67 150.952 1179.67 121.128H1166.1C1166.1 143.474 1147.99 161.584 1125.64 161.584L1125.62 161.57Z" fill="#3C137C"/>
<path d="M1309.18 127.885C1302.81 121.517 1297.6 123.678 1297.6 132.683C1297.6 134.484 1298.32 136.213 1299.59 137.481L1305.1 142.999C1306.95 144.843 1307.02 147.854 1305.18 149.712L1305.15 149.741C1303.82 151.067 1302.4 152.306 1300.9 153.444C1297.76 155.807 1294.3 157.709 1290.63 159.063C1286.33 160.648 1281.82 161.498 1277.23 161.57C1277 161.57 1276.77 161.57 1276.54 161.57C1254.19 161.57 1236.08 143.46 1236.08 121.128H1222.51C1222.51 150.966 1246.7 175.156 1276.54 175.156C1280.28 175.156 1284.07 174.767 1287.83 173.975C1292.11 173.067 1296.27 171.641 1300.21 169.724C1303.82 167.967 1307.24 165.791 1310.38 163.284C1311.9 162.045 1313.39 160.734 1314.76 159.351C1316.13 157.982 1317.45 156.513 1318.69 154.971L1318.76 154.87C1323.17 149.352 1322.71 141.399 1317.68 136.371L1309.21 127.9L1309.18 127.885Z" fill="#3C137C"/>
<path d="M1243.82 114.342C1250.19 120.711 1255.4 118.549 1255.4 109.545C1255.4 107.744 1254.68 106.015 1253.41 104.747L1247.9 99.2291C1246.05 97.385 1245.98 94.3738 1247.83 92.5153L1247.85 92.4864C1249.18 91.161 1250.61 89.9219 1252.1 88.7837C1255.24 86.4209 1258.7 84.5191 1262.38 83.1649C1266.67 81.58 1271.18 80.73 1275.77 80.658C1276 80.658 1276.23 80.658 1276.46 80.658C1298.81 80.658 1316.92 98.7681 1316.92 121.1H1330.49C1330.49 91.2618 1306.3 67.0718 1276.46 67.0718C1272.72 67.0718 1268.93 67.4608 1265.17 68.2532C1260.89 69.1609 1256.73 70.5872 1252.8 72.5034C1249.18 74.2611 1245.76 76.4366 1242.62 78.9435C1241.1 80.1825 1239.61 81.4936 1238.24 82.8767C1236.88 84.2454 1235.55 85.715 1234.31 87.2565L1234.24 87.3574C1229.83 92.8754 1230.29 100.828 1235.32 105.857L1243.79 114.328L1243.82 114.342Z" fill="#3C137C"/>
<path d="M1386.95 121.114C1386.95 98.7681 1405.05 80.658 1427.4 80.658C1427.63 80.658 1427.86 80.658 1428.09 80.658C1432.69 80.73 1437.2 81.58 1441.49 83.1648C1445.18 84.5191 1448.63 86.4209 1451.76 88.7837C1453.26 89.9219 1454.7 91.161 1456.01 92.4864L1456.04 92.5153C1457.88 94.3594 1457.81 97.385 1455.97 99.2291L1450.45 104.747C1449.18 106.015 1448.46 107.744 1448.46 109.545C1448.46 118.549 1453.68 120.711 1460.04 114.342L1468.51 105.871C1473.54 100.843 1474.02 92.8898 1469.6 87.3718L1469.52 87.271C1468.28 85.7294 1466.96 84.2598 1465.59 82.8911C1464.22 81.5224 1462.75 80.1969 1461.21 78.9579C1458.07 76.4366 1454.66 74.2611 1451.04 72.5178C1447.11 70.616 1442.94 69.1753 1438.66 68.2676C1434.9 67.4752 1431.13 67.0718 1427.37 67.0718C1397.53 67.0718 1373.35 91.2762 1373.35 121.1H1386.92L1386.95 121.114Z" fill="#3C137C"/>
<path d="M1427.36 161.57C1427.13 161.57 1426.89 161.57 1426.66 161.57C1422.07 161.498 1417.56 160.648 1413.27 159.063C1409.58 157.709 1406.12 155.807 1403 153.444C1401.5 152.306 1400.06 151.067 1398.75 149.741L1398.72 149.712C1396.87 147.868 1396.94 144.843 1398.79 142.999L1404.31 137.481C1405.57 136.213 1406.29 134.484 1406.29 132.683C1406.29 123.678 1401.08 121.517 1394.71 127.885L1386.24 136.357C1381.21 141.385 1380.74 149.338 1385.16 154.856L1385.23 154.957C1386.47 156.498 1387.8 157.968 1389.16 159.337C1390.53 160.705 1392 162.031 1393.54 163.27C1396.69 165.791 1400.1 167.967 1403.72 169.71C1407.65 171.612 1411.81 173.052 1416.09 173.96C1419.85 174.753 1423.62 175.156 1427.38 175.156C1457.22 175.156 1481.41 150.952 1481.41 121.128H1467.84C1467.84 143.474 1449.73 161.584 1427.38 161.584L1427.36 161.57Z" fill="#3C137C"/>
<path d="M-5.91022 310.456C-2.16459 310.456 1.62421 310.053 5.38425 309.26C9.66292 308.353 13.8263 306.926 17.7592 305.01C21.3752 303.252 24.7895 301.077 27.9301 298.57C29.4572 297.331 30.9411 296.02 32.3097 294.637C33.6783 293.268 35.0036 291.798 36.2426 290.257L36.3145 290.156C40.7228 284.638 40.2618 276.685 35.234 271.657L26.7631 263.185C20.3955 256.817 15.1806 258.978 15.1806 267.983C15.1806 269.784 15.9009 271.513 17.1687 272.781L22.6862 278.299C24.5302 280.143 24.6023 283.154 22.7583 285.013L22.7295 285.041C21.4041 286.367 19.9778 287.606 18.4795 288.744C15.3389 291.107 11.8816 293.009 8.208 294.363C3.91493 295.948 -0.594303 296.798 -5.1899 296.87C-5.42041 296.87 -5.65088 296.87 -5.88138 296.87C-28.2255 296.87 -46.3343 278.76 -46.3343 256.428H-59.9049C-59.9049 286.266 -35.7168 310.456 -5.88138 310.456H-5.91022Z" fill="#3C137C"/>
<path d="M-38.6112 249.657C-32.2436 256.025 -27.0286 253.864 -27.0286 244.859C-27.0286 243.058 -27.7489 241.329 -29.0167 240.062L-34.5342 234.544C-36.3782 232.699 -36.4503 229.688 -34.6063 227.83L-34.5775 227.801C-33.2521 226.475 -31.8258 225.236 -30.3275 224.098C-27.187 221.735 -23.7296 219.834 -20.056 218.479C-15.763 216.894 -11.2537 216.044 -6.65813 215.972C-6.42764 215.972 -6.19716 215.972 -5.96666 215.972C16.3775 215.972 34.4863 234.083 34.4863 256.414H48.0569C48.0569 226.576 23.8687 202.386 -5.96666 202.386C-9.7123 202.386 -13.5011 202.775 -17.2611 203.568C-21.5398 204.475 -25.7032 205.902 -29.6361 207.818C-33.252 209.576 -36.6664 211.751 -39.807 214.258C-41.3341 215.497 -42.818 216.808 -44.1866 218.191C-45.5551 219.56 -46.8805 221.029 -48.1194 222.571L-48.1914 222.672C-52.5997 228.19 -52.1387 236.143 -47.1109 241.171L-38.64 249.643L-38.6112 249.657Z" fill="#3C137C"/>
<path d="M144.967 215.972C145.197 215.972 145.428 215.972 145.658 215.972C150.254 216.044 154.763 216.894 159.056 218.479C162.744 219.834 166.201 221.735 169.328 224.098C170.826 225.236 172.266 226.475 173.577 227.801L173.606 227.83C175.45 229.674 175.378 232.699 173.534 234.544L168.017 240.062C166.749 241.329 166.029 243.058 166.029 244.859C166.029 253.864 171.244 256.025 177.611 249.657L186.082 241.185C191.11 236.157 191.585 228.204 187.163 222.686L187.09 222.585C185.852 221.044 184.526 219.574 183.158 218.206C181.789 216.837 180.32 215.511 178.778 214.272C175.637 211.751 172.223 209.576 168.607 207.832C164.674 205.93 160.511 204.49 156.232 203.582C152.472 202.79 148.698 202.386 144.938 202.386C115.102 202.386 90.9142 226.591 90.9142 256.414H104.485C104.485 234.068 122.594 215.958 144.938 215.958L144.967 215.972Z" fill="#3C137C"/>
<path d="M198.947 256.428H185.377C185.377 278.774 167.268 296.884 144.924 296.884C144.693 296.884 144.463 296.884 144.232 296.884C139.637 296.812 135.128 295.962 130.835 294.377C127.147 293.023 123.689 291.121 120.563 288.758C119.065 287.62 117.624 286.381 116.313 285.056L116.284 285.027C114.44 283.183 114.512 280.157 116.356 278.313L121.874 272.795C123.141 271.527 123.862 269.798 123.862 267.997C123.862 258.993 118.647 256.832 112.279 263.2L103.808 271.671C98.7806 276.699 98.3052 284.652 102.728 290.17L102.8 290.271C104.039 291.813 105.364 293.282 106.733 294.651C108.101 296.02 109.571 297.345 111.112 298.584C114.253 301.106 117.667 303.281 121.283 305.024C125.216 306.926 129.379 308.367 133.658 309.275C137.418 310.067 141.193 310.47 144.953 310.47C174.788 310.47 198.976 286.266 198.976 256.443L198.947 256.428Z" fill="#3C137C"/>
<path d="M295.828 310.456C299.574 310.456 303.363 310.053 307.123 309.26C311.402 308.353 315.565 306.926 319.498 305.01C323.114 303.252 326.528 301.077 329.669 298.57C331.196 297.331 332.68 296.02 334.048 294.637C335.417 293.268 336.742 291.798 337.981 290.257L338.053 290.156C342.462 284.638 342.001 276.685 336.973 271.657L328.502 263.185C322.134 256.817 316.919 258.978 316.919 267.983C316.919 269.784 317.639 271.513 318.907 272.781L324.425 278.299C326.269 280.143 326.341 283.154 324.497 285.013L324.468 285.041C323.143 286.367 321.716 287.606 320.218 288.744C317.078 291.107 313.62 293.009 309.947 294.363C305.653 295.948 301.144 296.798 296.549 296.87C296.318 296.87 296.088 296.87 295.857 296.87C273.513 296.87 255.404 278.76 255.404 256.428H241.834C241.834 286.266 266.022 310.456 295.857 310.456H295.828Z" fill="#3C137C"/>
<path d="M263.14 249.657C269.508 256.025 274.723 253.864 274.723 244.859C274.723 243.058 274.003 241.329 272.735 240.062L267.217 234.544C265.373 232.699 265.301 229.688 267.145 227.83L267.174 227.801C268.499 226.475 269.926 225.236 271.424 224.098C274.564 221.735 278.022 219.834 281.695 218.479C285.989 216.894 290.498 216.044 295.093 215.972C295.324 215.972 295.554 215.972 295.785 215.972C318.129 215.972 336.238 234.083 336.238 256.414H349.808C349.808 226.576 325.62 202.386 295.785 202.386C292.039 202.386 288.25 202.775 284.49 203.568C280.212 204.475 276.048 205.902 272.115 207.818C268.499 209.576 265.085 211.751 261.944 214.258C260.417 215.497 258.934 216.808 257.565 218.191C256.196 219.56 254.871 221.029 253.632 222.571L253.56 222.672C249.152 228.19 249.613 236.143 254.64 241.171L263.111 249.643L263.14 249.657Z" fill="#3C137C"/>
<path d="M446.705 215.972C446.936 215.972 447.166 215.972 447.397 215.972C451.992 216.044 456.501 216.894 460.794 218.479C464.482 219.834 467.94 221.735 471.066 224.098C472.564 225.236 474.005 226.475 475.316 227.801L475.345 227.83C477.189 229.674 477.117 232.699 475.273 234.544L469.755 240.062C468.487 241.329 467.767 243.058 467.767 244.859C467.767 253.864 472.982 256.025 479.35 249.657L487.821 241.185C492.848 236.157 493.324 228.204 488.901 222.686L488.829 222.585C487.59 221.044 486.265 219.574 484.896 218.206C483.527 216.837 482.058 215.511 480.517 214.272C477.376 211.751 473.962 209.576 470.346 207.832C466.413 205.93 462.249 204.49 457.971 203.582C454.211 202.79 450.436 202.386 446.676 202.386C416.841 202.386 392.653 226.591 392.653 256.414H406.223C406.223 234.068 424.332 215.958 446.676 215.958L446.705 215.972Z" fill="#3C137C"/>
<path d="M500.686 256.428H487.116C487.116 278.774 469.007 296.884 446.663 296.884C446.432 296.884 446.202 296.884 445.971 296.884C441.376 296.812 436.867 295.962 432.574 294.377C428.886 293.023 425.428 291.121 422.302 288.758C420.804 287.62 419.363 286.381 418.052 285.056L418.023 285.027C416.179 283.183 416.251 280.157 418.095 278.313L423.613 272.795C424.881 271.527 425.601 269.798 425.601 267.997C425.601 258.993 420.386 256.832 414.018 263.2L405.547 271.671C400.52 276.699 400.044 284.652 404.467 290.17L404.539 290.271C405.778 291.813 407.103 293.282 408.472 294.651C409.84 296.02 411.31 297.345 412.851 298.584C415.992 301.106 419.406 303.281 423.022 305.024C426.955 306.926 431.118 308.367 435.397 309.275C439.157 310.067 442.932 310.47 446.692 310.47C476.527 310.47 500.715 286.266 500.715 256.443L500.686 256.428Z" fill="#3C137C"/>
<path d="M597.583 310.456C601.329 310.456 605.118 310.053 608.878 309.26C613.156 308.353 617.32 306.926 621.253 305.01C624.869 303.252 628.283 301.077 631.424 298.57C632.951 297.331 634.434 296.02 635.803 294.637C637.172 293.268 638.497 291.798 639.736 290.257L639.808 290.156C644.216 284.638 643.755 276.685 638.727 271.657L630.257 263.185C623.889 256.817 618.674 258.978 618.674 267.983C618.674 269.784 619.394 271.513 620.662 272.781L626.18 278.299C628.024 280.143 628.096 283.154 626.252 285.013L626.223 285.041C624.898 286.367 623.471 287.606 621.973 288.744C618.832 291.107 615.375 293.009 611.701 294.363C607.408 295.948 602.899 296.798 598.304 296.87C598.073 296.87 597.842 296.87 597.612 296.87C575.268 296.87 557.159 278.76 557.159 256.428H543.588C543.588 286.266 567.777 310.456 597.612 310.456H597.583Z" fill="#3C137C"/>
<path d="M564.895 249.657C571.263 256.025 576.478 253.864 576.478 244.859C576.478 243.058 575.757 241.329 574.49 240.062L568.972 234.544C567.128 232.699 567.056 229.688 568.9 227.83L568.929 227.801C570.254 226.475 571.68 225.236 573.179 224.098C576.319 221.735 579.777 219.834 583.45 218.479C587.743 216.894 592.253 216.044 596.848 215.972C597.079 215.972 597.309 215.972 597.54 215.972C619.884 215.972 637.992 234.083 637.992 256.414H651.563C651.563 226.576 627.375 202.386 597.54 202.386C593.794 202.386 590.005 202.775 586.245 203.568C581.967 204.475 577.803 205.902 573.87 207.818C570.254 209.576 566.84 211.751 563.699 214.258C562.172 215.497 560.688 216.808 559.32 218.191C557.951 219.56 556.626 221.029 555.387 222.571L555.315 222.672C550.907 228.19 551.368 236.143 556.395 241.171L564.866 249.643L564.895 249.657Z" fill="#3C137C"/>
<path d="M748.461 215.972C748.691 215.972 748.922 215.972 749.152 215.972C753.748 216.044 758.257 216.894 762.55 218.479C766.238 219.834 769.696 221.735 772.822 224.098C774.32 225.236 775.761 226.475 777.072 227.801L777.101 227.83C778.945 229.674 778.872 232.699 777.028 234.544L771.511 240.062C770.243 241.329 769.523 243.058 769.523 244.859C769.523 253.864 774.738 256.025 781.105 249.657L789.576 241.185C794.604 236.157 795.079 228.204 790.657 222.686L790.585 222.585C789.346 221.044 788.02 219.574 786.652 218.206C785.283 216.837 783.814 215.511 782.272 214.272C779.132 211.751 775.718 209.576 772.102 207.832C768.169 205.93 764.005 204.49 759.726 203.582C755.966 202.79 752.192 202.386 748.432 202.386C718.597 202.386 694.408 226.591 694.408 256.414H707.979C707.979 234.068 726.088 215.958 748.432 215.958L748.461 215.972Z" fill="#3C137C"/>
<path d="M802.439 256.428H788.869C788.869 278.774 770.76 296.884 748.416 296.884C748.185 296.884 747.955 296.884 747.724 296.884C743.129 296.812 738.62 295.962 734.326 294.377C730.638 293.023 727.181 291.121 724.055 288.758C722.557 287.62 721.116 286.381 719.805 285.056L719.776 285.027C717.932 283.183 718.004 280.157 719.848 278.313L725.366 272.795C726.634 271.527 727.354 269.798 727.354 267.997C727.354 258.993 722.139 256.832 715.771 263.2L707.3 271.671C702.273 276.699 701.797 284.652 706.22 290.17L706.292 290.271C707.531 291.813 708.856 293.282 710.225 294.651C711.593 296.02 713.063 297.345 714.604 298.584C717.745 301.106 721.159 303.281 724.775 305.024C728.708 306.926 732.872 308.367 737.15 309.275C740.91 310.067 744.685 310.47 748.445 310.47C778.28 310.47 802.468 286.266 802.468 256.443L802.439 256.428Z" fill="#3C137C"/>
<path d="M899.337 310.456C903.083 310.456 906.871 310.053 910.631 309.26C914.91 308.353 919.074 306.926 923.007 305.01C926.623 303.252 930.037 301.077 933.177 298.57C934.704 297.331 936.188 296.02 937.557 294.637C938.925 293.268 940.251 291.798 941.49 290.257L941.562 290.156C945.97 284.638 945.509 276.685 940.481 271.657L932.01 263.185C925.643 256.817 920.428 258.978 920.428 267.983C920.428 269.784 921.148 271.513 922.416 272.781L927.933 278.299C929.777 280.143 929.849 283.154 928.005 285.013L927.977 285.041C926.651 286.367 925.225 287.606 923.727 288.744C920.586 291.107 917.129 293.009 913.455 294.363C909.162 295.948 904.653 296.798 900.057 296.87C899.827 296.87 899.596 296.87 899.366 296.87C877.022 296.87 858.913 278.76 858.913 256.428H845.342C845.342 286.266 869.53 310.456 899.366 310.456H899.337Z" fill="#3C137C"/>
<path d="M866.635 249.657C873.002 256.025 878.217 253.864 878.217 244.859C878.217 243.058 877.497 241.329 876.229 240.062L870.712 234.544C868.868 232.699 868.796 229.688 870.64 227.83L870.668 227.801C871.994 226.475 873.42 225.236 874.918 224.098C878.059 221.735 881.517 219.834 885.19 218.479C889.483 216.894 893.992 216.044 898.588 215.972C898.818 215.972 899.049 215.972 899.279 215.972C921.623 215.972 939.732 234.083 939.732 256.414H953.303C953.303 226.576 929.115 202.386 899.279 202.386C895.534 202.386 891.745 202.775 887.985 203.568C883.706 204.475 879.543 205.902 875.61 207.818C871.994 209.576 868.58 211.751 865.439 214.258C863.912 215.497 862.428 216.808 861.06 218.191C859.691 219.56 858.365 221.029 857.127 222.571L857.055 222.672C852.646 228.19 853.107 236.143 858.135 241.171L866.606 249.643L866.635 249.657Z" fill="#3C137C"/>
<path d="M1050.21 215.972C1050.44 215.972 1050.67 215.972 1050.91 215.972C1055.5 216.044 1060.01 216.894 1064.3 218.479C1067.99 219.834 1071.45 221.735 1074.57 224.098C1076.07 225.236 1077.51 226.475 1078.82 227.801L1078.85 227.83C1080.7 229.674 1080.63 232.699 1078.78 234.544L1073.26 240.062C1072 241.329 1071.28 243.058 1071.28 244.859C1071.28 253.864 1076.49 256.025 1082.86 249.657L1091.33 241.185C1096.36 236.157 1096.83 228.204 1092.41 222.686L1092.34 222.585C1091.1 221.044 1089.77 219.574 1088.4 218.206C1087.04 216.837 1085.57 215.511 1084.03 214.272C1080.88 211.751 1077.47 209.576 1073.85 207.832C1069.92 205.93 1065.76 204.49 1061.48 203.582C1057.72 202.79 1053.94 202.386 1050.18 202.386C1020.35 202.386 996.161 226.591 996.161 256.414H1009.73C1009.73 234.068 1027.84 215.958 1050.18 215.958L1050.21 215.972Z" fill="#3C137C"/>
<path d="M1104.19 256.428H1090.62C1090.62 278.774 1072.51 296.884 1050.17 296.884C1049.94 296.884 1049.71 296.884 1049.48 296.884C1044.88 296.812 1040.37 295.962 1036.08 294.377C1032.39 293.023 1028.94 291.121 1025.81 288.758C1024.31 287.62 1022.87 286.381 1021.56 285.056L1021.53 285.027C1019.69 283.183 1019.76 280.157 1021.6 278.313L1027.12 272.795C1028.39 271.527 1029.11 269.798 1029.11 267.997C1029.11 258.993 1023.89 256.832 1017.53 263.2L1009.06 271.671C1004.03 276.699 1003.55 284.652 1007.97 290.17L1008.05 290.271C1009.29 291.813 1010.61 293.282 1011.98 294.651C1013.35 296.02 1014.82 297.345 1016.36 298.584C1019.5 301.106 1022.91 303.281 1026.53 305.024C1030.46 306.926 1034.63 308.367 1038.9 309.275C1042.66 310.067 1046.44 310.47 1050.2 310.47C1080.03 310.47 1104.22 286.266 1104.22 256.443L1104.19 256.428Z" fill="#3C137C"/>
<path d="M1201.08 310.456C1204.82 310.456 1208.61 310.053 1212.37 309.26C1216.65 308.353 1220.81 306.926 1224.75 305.01C1228.36 303.252 1231.78 301.077 1234.92 298.57C1236.44 297.331 1237.93 296.02 1239.3 294.637C1240.67 293.268 1241.99 291.798 1243.23 290.257L1243.3 290.156C1247.71 284.638 1247.25 276.685 1242.22 271.657L1233.75 263.185C1227.38 256.817 1222.17 258.978 1222.17 267.983C1222.17 269.784 1222.89 271.513 1224.16 272.781L1229.67 278.299C1231.52 280.143 1231.59 283.154 1229.75 285.013L1229.72 285.041C1228.39 286.367 1226.97 287.606 1225.47 288.744C1222.33 291.107 1218.87 293.009 1215.2 294.363C1210.9 295.948 1206.39 296.798 1201.8 296.87C1201.57 296.87 1201.34 296.87 1201.11 296.87C1178.76 296.87 1160.65 278.76 1160.65 256.428H1147.08C1147.08 286.266 1171.27 310.456 1201.11 310.456H1201.08Z" fill="#3C137C"/>
<path d="M1168.39 249.657C1174.76 256.025 1179.97 253.864 1179.97 244.859C1179.97 243.058 1179.25 241.329 1177.98 240.062L1172.46 234.544C1170.62 232.699 1170.55 229.688 1172.39 227.83L1172.42 227.801C1173.75 226.475 1175.17 225.236 1176.67 224.098C1179.81 221.735 1183.27 219.834 1186.94 218.479C1191.24 216.894 1195.75 216.044 1200.34 215.972C1200.57 215.972 1200.8 215.972 1201.03 215.972C1223.38 215.972 1241.49 234.083 1241.49 256.414H1255.06C1255.06 226.576 1230.87 202.386 1201.03 202.386C1197.29 202.386 1193.5 202.775 1189.74 203.568C1185.46 204.475 1181.3 205.902 1177.36 207.818C1173.75 209.576 1170.33 211.751 1167.19 214.258C1165.67 215.497 1164.18 216.808 1162.81 218.191C1161.44 219.56 1160.12 221.029 1158.88 222.571L1158.81 222.672C1154.4 228.19 1154.86 236.143 1159.89 241.171L1168.36 249.643L1168.39 249.657Z" fill="#3C137C"/>
<path d="M1351.95 215.972C1352.18 215.972 1352.41 215.972 1352.64 215.972C1357.24 216.044 1361.75 216.894 1366.04 218.479C1369.73 219.834 1373.19 221.735 1376.31 224.098C1377.81 225.236 1379.25 226.475 1380.56 227.801L1380.59 227.83C1382.44 229.674 1382.36 232.699 1380.52 234.544L1375 240.062C1373.74 241.329 1373.02 243.058 1373.02 244.859C1373.02 253.864 1378.23 256.025 1384.6 249.657L1393.07 241.185C1398.1 236.157 1398.57 228.204 1394.15 222.686L1394.08 222.585C1392.84 221.044 1391.51 219.574 1390.14 218.206C1388.78 216.837 1387.31 215.511 1385.76 214.272C1382.62 211.751 1379.21 209.576 1375.59 207.832C1371.66 205.93 1367.5 204.49 1363.22 203.582C1359.46 202.79 1355.68 202.386 1351.92 202.386C1322.09 202.386 1297.9 226.591 1297.9 256.414H1311.47C1311.47 234.068 1329.58 215.958 1351.92 215.958L1351.95 215.972Z" fill="#3C137C"/>
<path d="M1405.93 256.428H1392.36C1392.36 278.774 1374.25 296.884 1351.91 296.884C1351.68 296.884 1351.45 296.884 1351.22 296.884C1346.62 296.812 1342.11 295.962 1337.82 294.377C1334.13 293.023 1330.68 291.121 1327.55 288.758C1326.05 287.62 1324.61 286.381 1323.3 285.056L1323.27 285.027C1321.43 283.183 1321.5 280.157 1323.34 278.313L1328.86 272.795C1330.13 271.527 1330.85 269.798 1330.85 267.997C1330.85 258.993 1325.63 256.832 1319.27 263.2L1310.79 271.671C1305.77 276.699 1305.29 284.652 1309.71 290.17L1309.79 290.271C1311.02 291.813 1312.35 293.282 1313.72 294.651C1315.09 296.02 1316.56 297.345 1318.1 298.584C1321.24 301.106 1324.65 303.281 1328.27 305.024C1332.2 306.926 1336.37 308.367 1340.64 309.275C1344.4 310.067 1348.18 310.47 1351.94 310.47C1381.77 310.47 1405.96 286.266 1405.96 256.443L1405.93 256.428Z" fill="#3C137C"/>
<path d="M102.181 398.5C95.8133 392.132 90.5982 394.293 90.5982 403.298C90.5982 405.099 91.3185 406.827 92.5863 408.095L98.1038 413.613C99.9478 415.458 100.02 418.469 98.1759 420.327L98.1471 420.356C96.8217 421.681 95.3955 422.921 93.8973 424.059C90.7567 426.422 87.2992 428.323 83.6256 429.678C79.3325 431.262 74.8233 432.112 70.2277 432.184C69.9972 432.184 69.7667 432.184 69.5362 432.184C47.1921 432.184 29.0835 414.074 29.0835 391.743H15.5127C15.5127 421.581 39.7008 445.771 69.5362 445.771C73.2819 445.771 77.0707 445.382 80.8307 444.589C85.1094 443.682 89.2729 442.255 93.2058 440.339C96.8218 438.581 100.236 436.406 103.377 433.899C104.904 432.66 106.388 431.349 107.756 429.966C109.125 428.597 110.45 427.128 111.689 425.586L111.761 425.485C116.169 419.967 115.708 412.014 110.68 406.986L102.21 398.514L102.181 398.5Z" fill="#3C137C"/>
<path d="M69.4932 337.715C65.7475 337.715 61.9587 338.104 58.1987 338.896C53.92 339.804 49.7567 341.23 45.8238 343.147C42.2078 344.904 38.7934 347.08 35.6528 349.587C34.1258 350.826 32.6419 352.137 31.2733 353.52C29.9047 354.889 28.5793 356.358 27.3404 357.9L27.2685 358.001C22.8602 363.519 23.3212 371.472 28.3489 376.5L36.8198 384.971C43.1874 391.339 48.4024 389.178 48.4024 380.174C48.4024 378.373 47.682 376.644 46.4143 375.376L40.8968 369.858C39.0528 368.014 38.9806 365.003 40.8247 363.144L40.8535 363.115C42.1789 361.79 43.6052 360.551 45.1035 359.413C48.244 357.05 51.7015 355.148 55.3751 353.794C59.6682 352.209 64.1773 351.359 68.7729 351.287C69.0034 351.287 69.2338 351.287 69.4643 351.287C91.8085 351.287 109.917 369.397 109.917 391.728H123.488C123.488 361.891 99.2997 337.701 69.4643 337.701L69.4932 337.715Z" fill="#3C137C"/>
<path d="M220.399 351.272C220.63 351.272 220.86 351.272 221.091 351.272C225.686 351.345 230.195 352.195 234.488 353.779C238.176 355.134 241.634 357.035 244.76 359.398C246.258 360.536 247.699 361.775 249.01 363.101L249.039 363.13C250.883 364.974 250.811 367.999 248.967 369.844L243.449 375.362C242.181 376.63 241.461 378.358 241.461 380.159C241.461 389.164 246.676 391.325 253.044 384.957L261.515 376.485C266.542 371.457 267.018 363.504 262.595 357.986L262.523 357.885C261.284 356.344 259.959 354.874 258.59 353.506C257.222 352.137 255.752 350.811 254.211 349.572C251.07 347.051 247.656 344.876 244.04 343.132C240.107 341.23 235.944 339.79 231.665 338.882C227.905 338.09 224.13 337.686 220.37 337.686C190.535 337.686 166.347 361.891 166.347 391.714H179.917C179.917 369.368 198.026 351.258 220.37 351.258L220.399 351.272Z" fill="#3C137C"/>
<path d="M220.369 432.184C220.139 432.184 219.908 432.184 219.678 432.184C215.082 432.112 210.573 431.262 206.28 429.678C202.592 428.323 199.135 426.422 196.009 424.059C194.51 422.921 193.07 421.681 191.759 420.356L191.73 420.327C189.886 418.483 189.958 415.458 191.802 413.613L197.319 408.095C198.587 406.827 199.307 405.099 199.307 403.298C199.307 394.293 194.093 392.132 187.725 398.5L179.254 406.972C174.226 412 173.751 419.953 178.174 425.471L178.245 425.571C179.484 427.113 180.81 428.583 182.178 429.951C183.547 431.32 185.016 432.646 186.558 433.885C189.699 436.406 193.113 438.581 196.729 440.325C200.662 442.226 204.825 443.667 209.104 444.575C212.864 445.367 216.638 445.771 220.398 445.771C250.234 445.771 274.422 421.566 274.422 391.743H260.851C260.851 414.089 242.742 432.199 220.398 432.199L220.369 432.184Z" fill="#3C137C"/>
<path d="M403.934 398.5C397.566 392.132 392.351 394.293 392.351 403.298C392.351 405.099 393.072 406.827 394.339 408.095L399.857 413.613C401.701 415.458 401.773 418.469 399.929 420.327L399.9 420.356C398.575 421.681 397.149 422.921 395.65 424.059C392.51 426.422 389.052 428.323 385.379 429.678C381.086 431.262 376.576 432.112 371.981 432.184C371.75 432.184 371.52 432.184 371.289 432.184C348.945 432.184 330.837 414.074 330.837 391.743H317.266C317.266 421.581 341.454 445.771 371.289 445.771C375.035 445.771 378.824 445.382 382.584 444.589C386.863 443.682 391.026 442.255 394.959 440.339C398.575 438.581 401.989 436.406 405.13 433.899C406.657 432.66 408.141 431.349 409.509 429.966C410.878 428.597 412.203 427.128 413.442 425.586L413.514 425.485C417.922 419.967 417.461 412.014 412.434 406.986L403.963 398.514L403.934 398.5Z" fill="#3C137C"/>
<path d="M371.232 337.715C367.487 337.715 363.698 338.104 359.938 338.896C355.659 339.804 351.496 341.23 347.563 343.147C343.947 344.904 340.533 347.08 337.392 349.587C335.865 350.826 334.381 352.137 333.012 353.52C331.644 354.889 330.319 356.358 329.08 357.9L329.007 358.001C324.599 363.519 325.06 371.472 330.088 376.5L338.559 384.971C344.926 391.339 350.142 389.178 350.142 380.174C350.142 378.373 349.421 376.644 348.153 375.376L342.636 369.858C340.792 368.014 340.72 365.003 342.564 363.144L342.593 363.115C343.918 361.79 345.344 360.551 346.842 359.413C349.983 357.05 353.441 355.148 357.114 353.794C361.407 352.209 365.916 351.359 370.512 351.287C370.743 351.287 370.973 351.287 371.204 351.287C393.548 351.287 411.656 369.397 411.656 391.728H425.227C425.227 361.891 401.039 337.701 371.204 337.701L371.232 337.715Z" fill="#3C137C"/>
<path d="M522.152 351.272C522.383 351.272 522.613 351.272 522.844 351.272C527.439 351.345 531.948 352.195 536.241 353.779C539.929 355.134 543.387 357.035 546.513 359.398C548.011 360.536 549.452 361.775 550.763 363.101L550.792 363.13C552.636 364.974 552.564 367.999 550.72 369.844L545.202 375.362C543.935 376.63 543.214 378.358 543.214 380.159C543.214 389.164 548.429 391.325 554.797 384.957L563.268 376.485C568.295 371.457 568.771 363.504 564.348 357.986L564.276 357.885C563.037 356.344 561.712 354.874 560.343 353.506C558.975 352.137 557.505 350.811 555.964 349.572C552.823 347.051 549.409 344.876 545.793 343.132C541.86 341.23 537.697 339.79 533.418 338.882C529.658 338.09 525.883 337.686 522.123 337.686C492.288 337.686 468.1 361.891 468.1 391.714H481.67C481.67 369.368 499.779 351.258 522.123 351.258L522.152 351.272Z" fill="#3C137C"/>
<path d="M522.109 432.184C521.879 432.184 521.649 432.184 521.418 432.184C516.822 432.112 512.313 431.262 508.02 429.678C504.332 428.323 500.875 426.422 497.748 424.059C496.25 422.921 494.81 421.681 493.499 420.356L493.47 420.327C491.626 418.483 491.698 415.458 493.542 413.613L499.059 408.095C500.327 406.827 501.048 405.099 501.048 403.298C501.048 394.293 495.832 392.132 489.465 398.5L480.994 406.972C475.966 412 475.491 419.953 479.913 425.471L479.986 425.571C481.224 427.113 482.55 428.583 483.918 429.951C485.287 431.32 486.757 432.646 488.298 433.885C491.439 436.406 494.853 438.581 498.469 440.325C502.402 442.226 506.565 443.667 510.844 444.575C514.604 445.367 518.378 445.771 522.138 445.771C551.974 445.771 576.162 421.566 576.162 391.743H562.591C562.591 414.089 544.482 432.199 522.138 432.199L522.109 432.184Z" fill="#3C137C"/>
<path d="M705.688 398.5C699.32 392.132 694.105 394.293 694.105 403.298C694.105 405.099 694.826 406.827 696.093 408.095L701.611 413.613C703.455 415.458 703.527 418.469 701.683 420.327L701.654 420.356C700.329 421.681 698.902 422.921 697.404 424.059C694.264 426.422 690.806 428.323 687.133 429.678C682.839 431.262 678.33 432.112 673.735 432.184C673.504 432.184 673.274 432.184 673.043 432.184C650.699 432.184 632.59 414.074 632.59 391.743H619.02C619.02 421.581 643.208 445.771 673.043 445.771C676.789 445.771 680.578 445.382 684.338 444.589C688.616 443.682 692.78 442.255 696.713 440.339C700.329 438.581 703.743 436.406 706.884 433.899C708.411 432.66 709.894 431.349 711.263 429.966C712.632 428.597 713.957 427.128 715.196 425.586L715.268 425.485C719.676 419.967 719.215 412.014 714.188 406.986L705.717 398.514L705.688 398.5Z" fill="#3C137C"/>
<path d="M672.986 337.715C669.241 337.715 665.452 338.104 661.692 338.896C657.413 339.804 653.25 341.23 649.317 343.147C645.701 344.904 642.287 347.08 639.146 349.587C637.619 350.826 636.135 352.137 634.766 353.52C633.398 354.889 632.072 356.358 630.833 357.9L630.761 358.001C626.353 363.519 626.814 371.472 631.842 376.5L640.313 384.971C646.68 391.339 651.895 389.178 651.895 380.174C651.895 378.373 651.175 376.644 649.907 375.376L644.39 369.858C642.546 368.014 642.474 365.003 644.318 363.144L644.347 363.115C645.672 361.79 647.098 360.551 648.596 359.413C651.737 357.05 655.194 355.148 658.868 353.794C663.161 352.209 667.67 351.359 672.266 351.287C672.496 351.287 672.727 351.287 672.957 351.287C695.302 351.287 713.41 369.397 713.41 391.728H726.981C726.981 361.891 702.793 337.701 672.957 337.701L672.986 337.715Z" fill="#3C137C"/>
<path d="M823.891 351.272C824.122 351.272 824.352 351.272 824.583 351.272C829.178 351.345 833.688 352.195 837.981 353.779C841.669 355.134 845.126 357.035 848.252 359.398C849.751 360.536 851.191 361.775 852.502 363.101L852.531 363.13C854.375 364.974 854.303 367.999 852.459 369.844L846.941 375.362C845.674 376.63 844.953 378.358 844.953 380.159C844.953 389.164 850.168 391.325 856.536 384.957L865.007 376.485C870.035 371.457 870.51 363.504 866.087 357.986L866.015 357.885C864.776 356.344 863.451 354.874 862.082 353.506C860.714 352.137 859.244 350.811 857.703 349.572C854.562 347.051 851.148 344.876 847.532 343.132C843.599 341.23 839.436 339.79 835.157 338.882C831.397 338.09 827.622 337.686 823.862 337.686C794.027 337.686 769.839 361.891 769.839 391.714H783.41C783.41 369.368 801.518 351.258 823.862 351.258L823.891 351.272Z" fill="#3C137C"/>
<path d="M823.862 432.184C823.632 432.184 823.401 432.184 823.171 432.184C818.575 432.112 814.066 431.262 809.773 429.678C806.085 428.323 802.628 426.422 799.501 424.059C798.003 422.921 796.563 421.681 795.252 420.356L795.223 420.327C793.379 418.483 793.451 415.458 795.295 413.613L800.812 408.095C802.08 406.827 802.8 405.099 802.8 403.298C802.8 394.293 797.585 392.132 791.218 398.5L782.747 406.972C777.719 412 777.244 419.953 781.666 425.471L781.738 425.571C782.977 427.113 784.303 428.583 785.671 429.951C787.04 431.32 788.509 432.646 790.051 433.885C793.191 436.406 796.606 438.581 800.222 440.325C804.155 442.226 808.318 443.667 812.597 444.575C816.357 445.367 820.131 445.771 823.891 445.771C853.727 445.771 877.915 421.566 877.915 391.743H864.344C864.344 414.089 846.235 432.199 823.891 432.199L823.862 432.184Z" fill="#3C137C"/>
<path d="M1007.43 398.5C1001.06 392.132 995.845 394.293 995.845 403.298C995.845 405.099 996.565 406.827 997.833 408.095L1003.35 413.613C1005.19 415.458 1005.27 418.469 1003.42 420.327L1003.39 420.356C1002.07 421.681 1000.64 422.921 999.144 424.059C996.003 426.422 992.546 428.323 988.872 429.678C984.579 431.262 980.07 432.112 975.474 432.184C975.244 432.184 975.013 432.184 974.783 432.184C952.438 432.184 934.33 414.074 934.33 391.743H920.759C920.759 421.581 944.947 445.771 974.783 445.771C978.528 445.771 982.317 445.382 986.077 444.589C990.356 443.682 994.519 442.255 998.452 440.339C1002.07 438.581 1005.48 436.406 1008.62 433.899C1010.15 432.66 1011.63 431.349 1013 429.966C1014.37 428.597 1015.7 427.128 1016.94 425.586L1017.01 425.485C1021.42 419.967 1020.95 412.014 1015.93 406.986L1007.46 398.514L1007.43 398.5Z" fill="#3C137C"/>
<path d="M974.74 337.715C970.994 337.715 967.206 338.104 963.446 338.896C959.167 339.804 955.004 341.23 951.071 343.147C947.455 344.904 944.04 347.08 940.9 349.587C939.373 350.826 937.889 352.137 936.52 353.52C935.152 354.889 933.826 356.358 932.587 357.9L932.515 358.001C928.107 363.519 928.568 371.472 933.596 376.5L942.067 384.971C948.434 391.339 953.649 389.178 953.649 380.174C953.649 378.373 952.929 376.644 951.661 375.376L946.144 369.858C944.3 368.014 944.227 365.003 946.071 363.144L946.1 363.115C947.426 361.79 948.852 360.551 950.35 359.413C953.491 357.05 956.948 355.148 960.622 353.794C964.915 352.209 969.424 351.359 974.02 351.287C974.25 351.287 974.481 351.287 974.711 351.287C997.055 351.287 1015.16 369.397 1015.16 391.728H1028.73C1028.73 361.891 1004.55 337.701 974.711 337.701L974.74 337.715Z" fill="#3C137C"/>
<path d="M1125.65 351.272C1125.88 351.272 1126.11 351.272 1126.34 351.272C1130.93 351.345 1135.44 352.195 1139.74 353.779C1143.42 355.134 1146.88 357.035 1150.01 359.398C1151.51 360.536 1152.95 361.775 1154.26 363.101L1154.29 363.13C1156.13 364.974 1156.06 367.999 1154.21 369.844L1148.7 375.362C1147.43 376.63 1146.71 378.358 1146.71 380.159C1146.71 389.164 1151.92 391.325 1158.29 384.957L1166.76 376.485C1171.79 371.457 1172.26 363.504 1167.84 357.986L1167.77 357.885C1166.53 356.344 1165.21 354.874 1163.84 353.506C1162.47 352.137 1161 350.811 1159.46 349.572C1156.32 347.051 1152.9 344.876 1149.29 343.132C1145.35 341.23 1141.19 339.79 1136.91 338.882C1133.15 338.09 1129.38 337.686 1125.62 337.686C1095.78 337.686 1071.59 361.891 1071.59 391.714H1085.16C1085.16 369.368 1103.27 351.258 1125.62 351.258L1125.65 351.272Z" fill="#3C137C"/>
<path d="M1125.62 432.184C1125.39 432.184 1125.15 432.184 1124.92 432.184C1120.33 432.112 1115.82 431.262 1111.53 429.678C1107.84 428.323 1104.38 426.422 1101.26 424.059C1099.76 422.921 1098.32 421.681 1097.01 420.356L1096.98 420.327C1095.13 418.483 1095.2 415.458 1097.05 413.613L1102.57 408.095C1103.83 406.827 1104.55 405.099 1104.55 403.298C1104.55 394.293 1099.34 392.132 1092.97 398.5L1084.5 406.972C1079.47 412 1079 419.953 1083.42 425.471L1083.49 425.571C1084.73 427.113 1086.06 428.583 1087.42 429.951C1088.79 431.32 1090.26 432.646 1091.8 433.885C1094.94 436.406 1098.36 438.581 1101.98 440.325C1105.91 442.226 1110.07 443.667 1114.35 444.575C1118.11 445.367 1121.88 445.771 1125.64 445.771C1155.48 445.771 1179.67 421.566 1179.67 391.743H1166.1C1166.1 414.089 1147.99 432.199 1125.64 432.199L1125.62 432.184Z" fill="#3C137C"/>
<path d="M1309.18 398.5C1302.81 392.132 1297.6 394.293 1297.6 403.298C1297.6 405.099 1298.32 406.827 1299.59 408.095L1305.1 413.613C1306.95 415.458 1307.02 418.469 1305.18 420.327L1305.15 420.356C1303.82 421.681 1302.4 422.921 1300.9 424.059C1297.76 426.422 1294.3 428.323 1290.63 429.678C1286.33 431.262 1281.82 432.112 1277.23 432.184C1277 432.184 1276.77 432.184 1276.54 432.184C1254.19 432.184 1236.08 414.074 1236.08 391.743H1222.51C1222.51 421.581 1246.7 445.771 1276.54 445.771C1280.28 445.771 1284.07 445.382 1287.83 444.589C1292.11 443.682 1296.27 442.255 1300.21 440.339C1303.82 438.581 1307.24 436.406 1310.38 433.899C1311.9 432.66 1313.39 431.349 1314.76 429.966C1316.13 428.597 1317.45 427.128 1318.69 425.586L1318.76 425.485C1323.17 419.967 1322.71 412.014 1317.68 406.986L1309.21 398.514L1309.18 398.5Z" fill="#3C137C"/>
<path d="M1276.48 337.715C1272.73 337.715 1268.95 338.104 1265.19 338.896C1260.91 339.804 1256.74 341.23 1252.81 343.147C1249.19 344.904 1245.78 347.08 1242.64 349.587C1241.11 350.826 1239.63 352.137 1238.26 353.52C1236.89 354.889 1235.57 356.358 1234.33 357.9L1234.25 358.001C1229.85 363.519 1230.31 371.472 1235.34 376.5L1243.81 384.971C1250.17 391.339 1255.39 389.178 1255.39 380.174C1255.39 378.373 1254.67 376.644 1253.4 375.376L1247.88 369.858C1246.04 368.014 1245.97 365.003 1247.81 363.144L1247.84 363.115C1249.17 361.79 1250.59 360.551 1252.09 359.413C1255.23 357.05 1258.69 355.148 1262.36 353.794C1266.65 352.209 1271.16 351.359 1275.76 351.287C1275.99 351.287 1276.22 351.287 1276.45 351.287C1298.79 351.287 1316.9 369.397 1316.9 391.728H1330.47C1330.47 361.891 1306.29 337.701 1276.45 337.701L1276.48 337.715Z" fill="#3C137C"/>
<path d="M1427.4 351.272C1427.63 351.272 1427.86 351.272 1428.09 351.272C1432.69 351.345 1437.2 352.195 1441.49 353.779C1445.18 355.134 1448.63 357.035 1451.76 359.398C1453.26 360.536 1454.7 361.775 1456.01 363.101L1456.04 363.13C1457.88 364.974 1457.81 367.999 1455.97 369.844L1450.45 375.362C1449.18 376.63 1448.46 378.358 1448.46 380.159C1448.46 389.164 1453.68 391.325 1460.04 384.957L1468.51 376.485C1473.54 371.457 1474.02 363.504 1469.6 357.986L1469.52 357.885C1468.28 356.344 1466.96 354.874 1465.59 353.506C1464.22 352.137 1462.75 350.811 1461.21 349.572C1458.07 347.051 1454.66 344.876 1451.04 343.132C1447.11 341.23 1442.94 339.79 1438.66 338.882C1434.9 338.09 1431.13 337.686 1427.37 337.686C1397.53 337.686 1373.35 361.891 1373.35 391.714H1386.92C1386.92 369.368 1405.03 351.258 1427.37 351.258L1427.4 351.272Z" fill="#3C137C"/>
<path d="M1427.36 432.184C1427.13 432.184 1426.89 432.184 1426.66 432.184C1422.07 432.112 1417.56 431.262 1413.27 429.678C1409.58 428.323 1406.12 426.422 1403 424.059C1401.5 422.921 1400.06 421.681 1398.75 420.356L1398.72 420.327C1396.87 418.483 1396.94 415.458 1398.79 413.613L1404.31 408.095C1405.57 406.827 1406.29 405.099 1406.29 403.298C1406.29 394.293 1401.08 392.132 1394.71 398.5L1386.24 406.972C1381.21 412 1380.74 419.953 1385.16 425.471L1385.23 425.571C1386.47 427.113 1387.8 428.583 1389.16 429.951C1390.53 431.32 1392 432.646 1393.54 433.885C1396.69 436.406 1400.1 438.581 1403.72 440.325C1407.65 442.226 1411.81 443.667 1416.09 444.575C1419.85 445.367 1423.62 445.771 1427.38 445.771C1457.22 445.771 1481.41 421.566 1481.41 391.743H1467.84C1467.84 414.089 1449.73 432.199 1427.38 432.199L1427.36 432.184Z" fill="#3C137C"/>
<path d="M26.7479 533.814C20.3803 527.446 15.1652 529.607 15.1652 538.612C15.1652 540.412 15.8855 542.141 17.1533 543.409L22.6708 548.927C24.5148 550.771 24.5869 553.782 22.7429 555.641L22.7141 555.67C21.3887 556.995 19.9626 558.234 18.4643 559.373C15.3237 561.735 11.8662 563.637 8.19263 564.991C3.89956 566.576 -0.60968 567.426 -5.20528 567.498C-5.43578 567.498 -5.66625 567.498 -5.89676 567.498C-28.2409 567.498 -46.3497 549.388 -46.3497 527.057H-59.9203C-59.9203 556.895 -35.7321 581.085 -5.89676 581.085C-2.15112 581.085 1.63768 580.696 5.39772 579.903C9.67638 578.995 13.8397 577.569 17.7727 575.653C21.3886 573.895 24.803 571.72 27.9436 569.213C29.4706 567.974 30.9545 566.663 32.3231 565.28C33.6917 563.911 35.0171 562.441 36.256 560.9L36.3279 560.799C40.7363 555.281 40.2753 547.328 35.2475 542.3L26.7766 533.828L26.7479 533.814Z" fill="#3C137C"/>
<path d="M-38.6112 520.271C-32.2436 526.639 -27.0286 524.478 -27.0286 515.474C-27.0286 513.673 -27.7489 511.944 -29.0167 510.676L-34.5342 505.158C-36.3782 503.314 -36.4503 500.303 -34.6063 498.444L-34.5775 498.415C-33.2521 497.09 -31.8258 495.851 -30.3275 494.712C-27.187 492.35 -23.7296 490.448 -20.056 489.094C-15.763 487.509 -11.2537 486.659 -6.65813 486.587C-6.42764 486.587 -6.19716 486.587 -5.96666 486.587C16.3775 486.587 34.4863 504.697 34.4863 527.028H48.0569C48.0569 497.191 23.8687 473 -5.96666 473C-9.7123 473 -13.5011 473.389 -17.2611 474.182C-21.5398 475.09 -25.7032 476.516 -29.6361 478.432C-33.252 480.19 -36.6664 482.365 -39.807 484.872C-41.3341 486.111 -42.818 487.422 -44.1866 488.805C-45.5551 490.174 -46.8805 491.644 -48.1194 493.185L-48.1914 493.286C-52.5997 498.804 -52.1387 506.757 -47.1109 511.785L-38.64 520.257L-38.6112 520.271Z" fill="#3C137C"/>
<path d="M144.967 486.587C145.197 486.587 145.428 486.587 145.658 486.587C150.254 486.659 154.763 487.509 159.056 489.094C162.744 490.448 166.201 492.35 169.328 494.712C170.826 495.851 172.266 497.09 173.577 498.415L173.606 498.444C175.45 500.288 175.378 503.314 173.534 505.158L168.017 510.676C166.749 511.944 166.029 513.673 166.029 515.474C166.029 524.478 171.244 526.639 177.611 520.271L186.082 511.8C191.11 506.771 191.585 498.819 187.163 493.301L187.09 493.2C185.852 491.658 184.526 490.189 183.158 488.82C181.789 487.451 180.32 486.126 178.778 484.887C175.637 482.365 172.223 480.19 168.607 478.446C164.674 476.545 160.511 475.104 156.232 474.196C152.472 473.404 148.698 473 144.938 473C115.102 473 90.9142 497.205 90.9142 527.028H104.485C104.485 504.682 122.594 486.572 144.938 486.572L144.967 486.587Z" fill="#3C137C"/>
<path d="M185.377 527.043C185.377 549.388 167.268 567.499 144.924 567.499C144.693 567.499 144.463 567.499 144.232 567.499C139.637 567.427 135.128 566.577 130.835 564.992C127.147 563.637 123.689 561.736 120.563 559.373C119.065 558.235 117.624 556.996 116.313 555.67L116.284 555.641C114.44 553.797 114.512 550.772 116.356 548.927L121.874 543.409C123.141 542.142 123.862 540.413 123.862 538.612C123.862 529.607 118.647 527.446 112.279 533.814L103.808 542.286C98.7806 547.314 98.3052 555.267 102.728 560.785L102.8 560.886C104.039 562.427 105.364 563.897 106.733 565.265C108.101 566.634 109.571 567.96 111.112 569.199C114.253 571.72 117.667 573.895 121.283 575.639C125.216 577.541 129.379 578.981 133.658 579.889C137.418 580.681 141.193 581.085 144.953 581.085C174.788 581.085 198.976 556.88 198.976 527.057H185.406L185.377 527.043Z" fill="#3C137C"/>
<path d="M328.502 533.814C322.134 527.446 316.919 529.607 316.919 538.612C316.919 540.412 317.639 542.141 318.907 543.409L324.425 548.927C326.269 550.771 326.341 553.782 324.497 555.641L324.468 555.67C323.143 556.995 321.716 558.234 320.218 559.373C317.078 561.735 313.62 563.637 309.947 564.991C305.653 566.576 301.144 567.426 296.549 567.498C296.318 567.498 296.088 567.498 295.857 567.498C273.513 567.498 255.404 549.388 255.404 527.057H241.834C241.834 556.895 266.022 581.085 295.857 581.085C299.603 581.085 303.392 580.696 307.152 579.903C311.43 578.995 315.594 577.569 319.527 575.653C323.143 573.895 326.557 571.72 329.697 569.213C331.225 567.974 332.708 566.663 334.077 565.28C335.446 563.911 336.771 562.441 338.01 560.9L338.082 560.799C342.49 555.281 342.029 547.328 337.002 542.3L328.531 533.828L328.502 533.814Z" fill="#3C137C"/>
<path d="M263.14 520.271C269.508 526.639 274.723 524.478 274.723 515.474C274.723 513.673 274.003 511.944 272.735 510.676L267.217 505.158C265.373 503.314 265.301 500.303 267.145 498.444L267.174 498.415C268.499 497.09 269.926 495.851 271.424 494.712C274.564 492.35 278.022 490.448 281.695 489.094C285.989 487.509 290.498 486.659 295.093 486.587C295.324 486.587 295.554 486.587 295.785 486.587C318.129 486.587 336.238 504.697 336.238 527.028H349.808C349.808 497.191 325.62 473 295.785 473C292.039 473 288.25 473.389 284.49 474.182C280.212 475.09 276.048 476.516 272.115 478.432C268.499 480.19 265.085 482.365 261.944 484.872C260.417 486.111 258.934 487.422 257.565 488.805C256.196 490.174 254.871 491.644 253.632 493.185L253.56 493.286C249.152 498.804 249.613 506.757 254.64 511.785L263.111 520.257L263.14 520.271Z" fill="#3C137C"/>
<path d="M446.705 486.587C446.936 486.587 447.166 486.587 447.397 486.587C451.992 486.659 456.501 487.509 460.794 489.094C464.482 490.448 467.94 492.35 471.066 494.712C472.564 495.851 474.005 497.09 475.316 498.415L475.345 498.444C477.189 500.288 477.117 503.314 475.273 505.158L469.755 510.676C468.487 511.944 467.767 513.673 467.767 515.474C467.767 524.478 472.982 526.639 479.35 520.271L487.821 511.8C492.848 506.771 493.324 498.819 488.901 493.301L488.829 493.2C487.59 491.658 486.265 490.189 484.896 488.82C483.527 487.451 482.058 486.126 480.517 484.887C477.376 482.365 473.962 480.19 470.346 478.446C466.413 476.545 462.249 475.104 457.971 474.196C454.211 473.404 450.436 473 446.676 473C416.841 473 392.653 497.205 392.653 527.028H406.223C406.223 504.682 424.332 486.572 446.676 486.572L446.705 486.587Z" fill="#3C137C"/>
<path d="M487.116 527.043C487.116 549.388 469.007 567.499 446.663 567.499C446.432 567.499 446.202 567.499 445.971 567.499C441.376 567.427 436.867 566.577 432.574 564.992C428.886 563.637 425.428 561.736 422.302 559.373C420.804 558.235 419.363 556.996 418.052 555.67L418.023 555.641C416.179 553.797 416.251 550.772 418.095 548.927L423.613 543.409C424.881 542.142 425.601 540.413 425.601 538.612C425.601 529.607 420.386 527.446 414.018 533.814L405.547 542.286C400.52 547.314 400.044 555.267 404.467 560.785L404.539 560.886C405.778 562.427 407.103 563.897 408.472 565.265C409.84 566.634 411.31 567.96 412.851 569.199C415.992 571.72 419.406 573.895 423.022 575.639C426.955 577.541 431.118 578.981 435.397 579.889C439.157 580.681 442.932 581.085 446.692 581.085C476.527 581.085 500.715 556.88 500.715 527.057H487.145L487.116 527.043Z" fill="#3C137C"/>
<path d="M630.242 533.814C623.875 527.446 618.66 529.607 618.66 538.612C618.66 540.412 619.38 542.141 620.648 543.409L626.166 548.927C628.01 550.771 628.082 553.782 626.238 555.641L626.209 555.67C624.883 556.995 623.457 558.234 621.959 559.373C618.818 561.735 615.361 563.637 611.687 564.991C607.394 566.576 602.885 567.426 598.289 567.498C598.059 567.498 597.828 567.498 597.598 567.498C575.254 567.498 557.145 549.388 557.145 527.057H543.574C543.574 556.895 567.763 581.085 597.598 581.085C601.344 581.085 605.132 580.696 608.892 579.903C613.171 578.995 617.334 577.569 621.267 575.653C624.883 573.895 628.298 571.72 631.438 569.213C632.965 567.974 634.449 566.663 635.818 565.28C637.186 563.911 638.512 562.441 639.751 560.9L639.823 560.799C644.231 555.281 643.77 547.328 638.742 542.3L630.271 533.828L630.242 533.814Z" fill="#3C137C"/>
<path d="M564.895 520.271C571.263 526.639 576.478 524.478 576.478 515.474C576.478 513.673 575.757 511.944 574.49 510.676L568.972 505.158C567.128 503.314 567.056 500.303 568.9 498.444L568.929 498.415C570.254 497.09 571.68 495.851 573.179 494.712C576.319 492.35 579.777 490.448 583.45 489.094C587.743 487.509 592.253 486.659 596.848 486.587C597.079 486.587 597.309 486.587 597.54 486.587C619.884 486.587 637.992 504.697 637.992 527.028H651.563C651.563 497.191 627.375 473 597.54 473C593.794 473 590.005 473.389 586.245 474.182C581.967 475.09 577.803 476.516 573.87 478.432C570.254 480.19 566.84 482.365 563.699 484.872C562.172 486.111 560.688 487.422 559.32 488.805C557.951 490.174 556.626 491.644 555.387 493.185L555.315 493.286C550.907 498.804 551.368 506.757 556.395 511.785L564.866 520.257L564.895 520.271Z" fill="#3C137C"/>
<path d="M748.461 486.587C748.691 486.587 748.922 486.587 749.152 486.587C753.748 486.659 758.257 487.509 762.55 489.094C766.238 490.448 769.696 492.35 772.822 494.712C774.32 495.851 775.761 497.09 777.072 498.415L777.101 498.444C778.945 500.288 778.872 503.314 777.028 505.158L771.511 510.676C770.243 511.944 769.523 513.673 769.523 515.474C769.523 524.478 774.738 526.639 781.105 520.271L789.576 511.8C794.604 506.771 795.079 498.819 790.657 493.301L790.585 493.2C789.346 491.658 788.02 490.189 786.652 488.82C785.283 487.451 783.814 486.126 782.272 484.887C779.132 482.365 775.718 480.19 772.102 478.446C768.169 476.545 764.005 475.104 759.726 474.196C755.966 473.404 752.192 473 748.432 473C718.597 473 694.408 497.205 694.408 527.028H707.979C707.979 504.682 726.088 486.572 748.432 486.572L748.461 486.587Z" fill="#3C137C"/>
<path d="M788.869 527.043C788.869 549.388 770.76 567.499 748.416 567.499C748.185 567.499 747.955 567.499 747.724 567.499C743.129 567.427 738.62 566.577 734.326 564.992C730.638 563.637 727.181 561.736 724.055 559.373C722.557 558.235 721.116 556.996 719.805 555.67L719.776 555.641C717.932 553.797 718.004 550.772 719.848 548.927L725.366 543.409C726.634 542.142 727.354 540.413 727.354 538.612C727.354 529.607 722.139 527.446 715.771 533.814L707.3 542.286C702.273 547.314 701.797 555.267 706.22 560.785L706.292 560.886C707.531 562.427 708.856 563.897 710.225 565.265C711.593 566.634 713.063 567.96 714.604 569.199C717.745 571.72 721.159 573.895 724.775 575.639C728.708 577.541 732.872 578.981 737.15 579.889C740.91 580.681 744.685 581.085 748.445 581.085C778.28 581.085 802.468 556.88 802.468 527.057H788.897L788.869 527.043Z" fill="#3C137C"/>
<path d="M931.996 533.814C925.628 527.446 920.413 529.607 920.413 538.612C920.413 540.412 921.133 542.141 922.401 543.409L927.919 548.927C929.763 550.771 929.835 553.782 927.991 555.641L927.962 555.67C926.636 556.995 925.21 558.234 923.712 559.373C920.571 561.735 917.114 563.637 913.44 564.991C909.147 566.576 904.638 567.426 900.042 567.498C899.812 567.498 899.581 567.498 899.351 567.498C877.007 567.498 858.898 549.388 858.898 527.057H845.327C845.327 556.895 869.516 581.085 899.351 581.085C903.097 581.085 906.885 580.696 910.645 579.903C914.924 578.995 919.087 577.569 923.02 575.653C926.636 573.895 930.051 571.72 933.191 569.213C934.718 567.974 936.202 566.663 937.571 565.28C938.939 563.911 940.265 562.441 941.504 560.9L941.576 560.799C945.984 555.281 945.523 547.328 940.495 542.3L932.024 533.828L931.996 533.814Z" fill="#3C137C"/>
<path d="M866.635 520.271C873.002 526.639 878.217 524.478 878.217 515.474C878.217 513.673 877.497 511.944 876.229 510.676L870.712 505.158C868.868 503.314 868.796 500.303 870.64 498.444L870.668 498.415C871.994 497.09 873.42 495.851 874.918 494.712C878.059 492.35 881.517 490.448 885.19 489.094C889.483 487.509 893.992 486.659 898.588 486.587C898.818 486.587 899.049 486.587 899.279 486.587C921.623 486.587 939.732 504.697 939.732 527.028H953.303C953.303 497.191 929.115 473 899.279 473C895.534 473 891.745 473.389 887.985 474.182C883.706 475.09 879.543 476.516 875.61 478.432C871.994 480.19 868.58 482.365 865.439 484.872C863.912 486.111 862.428 487.422 861.06 488.805C859.691 490.174 858.365 491.644 857.127 493.185L857.055 493.286C852.646 498.804 853.107 506.757 858.135 511.785L866.606 520.257L866.635 520.271Z" fill="#3C137C"/>
<path d="M1050.21 486.587C1050.44 486.587 1050.67 486.587 1050.91 486.587C1055.5 486.659 1060.01 487.509 1064.3 489.094C1067.99 490.448 1071.45 492.35 1074.57 494.712C1076.07 495.851 1077.51 497.09 1078.82 498.415L1078.85 498.444C1080.7 500.288 1080.63 503.314 1078.78 505.158L1073.26 510.676C1072 511.944 1071.28 513.673 1071.28 515.474C1071.28 524.478 1076.49 526.639 1082.86 520.271L1091.33 511.8C1096.36 506.771 1096.83 498.819 1092.41 493.301L1092.34 493.2C1091.1 491.658 1089.77 490.189 1088.4 488.82C1087.04 487.451 1085.57 486.126 1084.03 484.887C1080.88 482.365 1077.47 480.19 1073.85 478.446C1069.92 476.545 1065.76 475.104 1061.48 474.196C1057.72 473.404 1053.94 473 1050.18 473C1020.35 473 996.161 497.205 996.161 527.028H1009.73C1009.73 504.682 1027.84 486.572 1050.18 486.572L1050.21 486.587Z" fill="#3C137C"/>
<path d="M1090.62 527.043C1090.62 549.388 1072.51 567.499 1050.17 567.499C1049.94 567.499 1049.71 567.499 1049.48 567.499C1044.88 567.427 1040.37 566.577 1036.08 564.992C1032.39 563.637 1028.94 561.736 1025.81 559.373C1024.31 558.235 1022.87 556.996 1021.56 555.67L1021.53 555.641C1019.69 553.797 1019.76 550.772 1021.6 548.927L1027.12 543.409C1028.39 542.142 1029.11 540.413 1029.11 538.612C1029.11 529.607 1023.89 527.446 1017.53 533.814L1009.06 542.286C1004.03 547.314 1003.55 555.267 1007.97 560.785L1008.05 560.886C1009.29 562.427 1010.61 563.897 1011.98 565.265C1013.35 566.634 1014.82 567.96 1016.36 569.199C1019.5 571.72 1022.91 573.895 1026.53 575.639C1030.46 577.541 1034.63 578.981 1038.9 579.889C1042.66 580.681 1046.44 581.085 1050.2 581.085C1080.03 581.085 1104.22 556.88 1104.22 527.057H1090.65L1090.62 527.043Z" fill="#3C137C"/>
<path d="M1233.75 533.814C1227.38 527.446 1222.17 529.607 1222.17 538.612C1222.17 540.412 1222.89 542.141 1224.16 543.409L1229.67 548.927C1231.52 550.771 1231.59 553.782 1229.75 555.641L1229.72 555.67C1228.39 556.995 1226.97 558.234 1225.47 559.373C1222.33 561.735 1218.87 563.637 1215.2 564.991C1210.9 566.576 1206.39 567.426 1201.8 567.498C1201.57 567.498 1201.34 567.498 1201.11 567.498C1178.76 567.498 1160.65 549.388 1160.65 527.057H1147.08C1147.08 556.895 1171.27 581.085 1201.11 581.085C1204.85 581.085 1208.64 580.696 1212.4 579.903C1216.68 578.995 1220.84 577.569 1224.78 575.653C1228.39 573.895 1231.81 571.72 1234.95 569.213C1236.47 567.974 1237.96 566.663 1239.33 565.28C1240.69 563.911 1242.02 562.441 1243.26 560.9L1243.33 560.799C1247.74 555.281 1247.28 547.328 1242.25 542.3L1233.78 533.828L1233.75 533.814Z" fill="#3C137C"/>
<path d="M1168.39 520.271C1174.76 526.639 1179.97 524.478 1179.97 515.474C1179.97 513.673 1179.25 511.944 1177.98 510.676L1172.46 505.158C1170.62 503.314 1170.55 500.303 1172.39 498.444L1172.42 498.415C1173.75 497.09 1175.17 495.851 1176.67 494.712C1179.81 492.35 1183.27 490.448 1186.94 489.094C1191.24 487.509 1195.75 486.659 1200.34 486.587C1200.57 486.587 1200.8 486.587 1201.03 486.587C1223.38 486.587 1241.49 504.697 1241.49 527.028H1255.06C1255.06 497.191 1230.87 473 1201.03 473C1197.29 473 1193.5 473.389 1189.74 474.182C1185.46 475.09 1181.3 476.516 1177.36 478.432C1173.75 480.19 1170.33 482.365 1167.19 484.872C1165.67 486.111 1164.18 487.422 1162.81 488.805C1161.44 490.174 1160.12 491.644 1158.88 493.185L1158.81 493.286C1154.4 498.804 1154.86 506.757 1159.89 511.785L1168.36 520.257L1168.39 520.271Z" fill="#3C137C"/>
<path d="M1351.95 486.587C1352.18 486.587 1352.41 486.587 1352.64 486.587C1357.24 486.659 1361.75 487.509 1366.04 489.094C1369.73 490.448 1373.19 492.35 1376.31 494.712C1377.81 495.851 1379.25 497.09 1380.56 498.415L1380.59 498.444C1382.44 500.288 1382.36 503.314 1380.52 505.158L1375 510.676C1373.74 511.944 1373.02 513.673 1373.02 515.474C1373.02 524.478 1378.23 526.639 1384.6 520.271L1393.07 511.8C1398.1 506.771 1398.57 498.819 1394.15 493.301L1394.08 493.2C1392.84 491.658 1391.51 490.189 1390.14 488.82C1388.78 487.451 1387.31 486.126 1385.76 484.887C1382.62 482.365 1379.21 480.19 1375.59 478.446C1371.66 476.545 1367.5 475.104 1363.22 474.196C1359.46 473.404 1355.68 473 1351.92 473C1322.09 473 1297.9 497.205 1297.9 527.028H1311.47C1311.47 504.682 1329.58 486.572 1351.92 486.572L1351.95 486.587Z" fill="#3C137C"/>
<path d="M1392.36 527.043C1392.36 549.388 1374.25 567.499 1351.91 567.499C1351.68 567.499 1351.45 567.499 1351.22 567.499C1346.62 567.427 1342.11 566.577 1337.82 564.992C1334.13 563.637 1330.68 561.736 1327.55 559.373C1326.05 558.235 1324.61 556.996 1323.3 555.67L1323.27 555.641C1321.43 553.797 1321.5 550.772 1323.34 548.927L1328.86 543.409C1330.13 542.142 1330.85 540.413 1330.85 538.612C1330.85 529.607 1325.63 527.446 1319.27 533.814L1310.79 542.286C1305.77 547.314 1305.29 555.267 1309.71 560.785L1309.79 560.886C1311.02 562.427 1312.35 563.897 1313.72 565.265C1315.09 566.634 1316.56 567.96 1318.1 569.199C1321.24 571.72 1324.65 573.895 1328.27 575.639C1332.2 577.541 1336.37 578.981 1340.64 579.889C1344.4 580.681 1348.18 581.085 1351.94 581.085C1381.77 581.085 1405.96 556.88 1405.96 527.057H1392.39L1392.36 527.043Z" fill="#3C137C"/>
</g>
</svg>
