<svg width="187" height="33" viewBox="0 0 187 33" fill="none" xmlns="http://www.w3.org/2000/svg">
<path d="M49.504 14.8233C48.5246 14.4757 47.3267 14.1631 45.9124 13.8899C44.6708 13.6385 43.792 13.4002 43.2695 13.175C42.7493 12.9499 42.4891 12.5979 42.4891 12.1214C42.4891 11.5946 42.7493 11.1618 43.2695 10.8251C43.7898 10.4885 44.4718 10.318 45.3156 10.318C46.3824 10.318 47.3923 10.5169 48.3476 10.9126C49.3028 11.3104 50.0657 11.8066 50.6363 12.4012L52.5337 9.1747C50.4745 7.55489 48.0546 6.7439 45.2763 6.7439C43.7636 6.7439 42.4476 6.98435 41.3328 7.46745C40.2157 7.95056 39.3654 8.60198 38.7839 9.4239C38.2003 10.2458 37.9095 11.1399 37.9095 12.1039C37.9095 13.374 38.2571 14.3664 38.9522 15.0834C39.6474 15.8004 40.4649 16.3185 41.4093 16.6354C42.3514 16.9524 43.5428 17.241 44.9812 17.4989C46.2206 17.7634 47.1322 18.0498 47.7158 18.358C48.2973 18.6662 48.5902 19.1428 48.5902 19.7876C48.5902 20.4915 48.3345 21.0511 47.8273 21.4599C47.318 21.8709 46.5682 22.0763 45.5758 22.0763C44.509 22.0763 43.381 21.8293 42.1897 21.3309C40.9983 20.8347 40.0562 20.2642 39.361 19.6193L37.3149 22.9136C38.2571 23.7639 39.4419 24.4328 40.8693 24.9181C42.2946 25.4034 43.7898 25.6482 45.3528 25.6482C46.9158 25.6482 48.3607 25.399 49.5389 24.9028C50.7172 24.4044 51.609 23.7158 52.2189 22.8305C52.8266 21.9474 53.1305 20.9571 53.1305 19.8619C53.1305 18.4673 52.7698 17.3677 52.0506 16.5589C51.3314 15.7501 50.4811 15.1708 49.5018 14.8233H49.504Z" fill="white"/>
<path d="M69.2431 8.01396C67.8047 7.16799 66.1172 6.74609 64.1826 6.74609C62.248 6.74609 60.5976 7.16799 59.1592 8.01396C57.7208 8.85993 56.6169 10.0032 55.8474 11.4438C55.078 12.8865 54.6932 14.4626 54.6932 16.1786C54.6932 17.8946 55.078 19.51 55.8474 20.9506C56.6169 22.3933 57.7208 23.5366 59.1592 24.3804C60.5976 25.2242 62.272 25.6482 64.1826 25.6482C66.0931 25.6482 67.8047 25.2263 69.2431 24.3804C70.6815 23.5344 71.7854 22.3911 72.5549 20.9506C73.3243 19.51 73.7091 17.9186 73.7091 16.1786C73.7091 14.4385 73.3243 12.8865 72.5549 11.4438C71.7854 10.0032 70.6815 8.85993 69.2431 8.01396ZM67.549 20.356C66.7183 21.4796 65.5947 22.0392 64.1804 22.0392C62.7661 22.0392 61.649 21.4774 60.8315 20.356C60.0117 19.2324 59.6029 17.8399 59.6029 16.1764C59.6029 14.5129 60.0117 13.1619 60.8315 12.0405C61.649 10.9169 62.7661 10.3551 64.1804 10.3551C65.5947 10.3551 66.7161 10.9169 67.549 12.0405C68.3796 13.1641 68.795 14.5413 68.795 16.1764C68.795 17.8115 68.3796 19.2324 67.549 20.356Z" fill="white"/>
<path d="M83.6071 19.6959L78.9182 7.19214H73.8577L81.1501 25.9413L80.4812 27.5086C80.2582 27.9939 79.9478 28.3371 79.55 28.5426C79.1521 28.7459 78.6318 28.8486 77.987 28.8486C77.4405 28.8486 76.9443 28.7502 76.4983 28.5513L75.7923 32.2347C76.0655 32.2981 76.4371 32.3506 76.9093 32.3943C77.3815 32.4358 77.7902 32.4577 78.1378 32.4577C79.8254 32.4074 81.2266 32.0664 82.3436 31.4346C83.4607 30.8029 84.3285 29.6924 84.9493 28.1054L93.3959 7.19214H88.2982L83.6093 19.6959H83.6071Z" fill="white"/>
<path d="M177.92 7.14185L177.915 7.14415H177.92V7.14185Z" fill="#25E59B"/>
<path d="M111.361 7.94837C109.99 7.11332 108.421 6.6958 106.652 6.6958C104.884 6.6958 103.251 7.11988 101.832 7.97023C100.411 8.81838 99.303 9.96165 98.5051 11.3957C98.0352 12.2416 97.7073 13.1422 97.5149 14.0953H102.252C102.346 13.0985 102.766 12.2132 103.513 11.4416C104.261 10.6699 105.308 10.283 106.652 10.283C108.073 10.283 109.151 10.6743 109.885 11.459C110.62 12.2438 111.024 13.1204 111.101 14.0953H102.252L97.6023 18.7449C97.81 19.6149 98.1292 20.4237 98.562 21.167C99.397 22.6032 100.549 23.7136 102.018 24.4984C103.487 25.2854 105.133 25.6788 106.952 25.6788C108.397 25.6788 109.778 25.4712 111.101 25.058C112.421 24.6427 113.516 24.0568 114.388 23.2983L112.296 20.297C111.724 20.8456 110.994 21.2806 110.11 21.6042C109.225 21.9277 108.349 22.0895 107.476 22.0895C106.005 22.0895 104.809 21.6697 103.889 20.8303C102.967 19.9909 102.431 18.9395 102.283 17.6803H115.7V16.6333C115.7 14.6899 115.32 12.9652 114.561 11.4569C113.8 9.95072 112.736 8.77904 111.365 7.94399L111.361 7.94837Z" fill="#25E59B"/>
<path d="M134.419 7.14404H129.111L125.412 12.7139L121.674 7.14404H116.367L122.385 15.9273L115.995 25.1958H121.263L125.412 19.1035L129.522 25.1958H134.829L128.363 15.9273L134.419 7.14404Z" fill="#25E59B"/>
<path d="M150.844 7.81939C149.635 7.0696 148.258 6.6958 146.715 6.6958C145.617 6.6958 144.59 6.93407 143.632 7.40624C142.673 7.8806 141.844 8.5517 141.147 9.4239V7.14393H136.401V32.0706H141.147V22.9136C141.871 23.836 142.703 24.5268 143.652 24.9881C144.599 25.4493 145.62 25.6788 146.717 25.6788C148.26 25.6788 149.637 25.305 150.846 24.5552C152.055 23.8076 153.002 22.7146 153.686 21.2785C154.37 19.8423 154.713 18.1394 154.713 16.1676C154.713 14.1959 154.37 12.4974 153.686 11.0743C153.002 9.65124 152.053 8.56481 150.846 7.81721L150.844 7.81939ZM148.527 20.4281C147.692 21.5145 146.59 22.0567 145.219 22.0567C144.472 22.0567 143.707 21.8337 142.922 21.3899C142.137 20.944 141.545 20.4019 141.147 19.7614V12.6176C141.545 11.9771 142.131 11.435 142.902 10.9891C143.674 10.5431 144.448 10.3202 145.219 10.3202C146.59 10.3202 147.692 10.8623 148.527 11.9487C149.362 13.0351 149.779 14.4407 149.779 16.1676C149.779 17.8946 149.362 19.3417 148.527 20.4281Z" fill="#25E59B"/>
<path d="M170.854 8.30249C169.383 7.23137 167.49 6.6958 165.173 6.6958C163.702 6.6958 162.29 6.9144 160.932 7.35159C159.575 7.78879 158.359 8.44458 157.288 9.31679L159.083 12.4121C160.628 10.9912 162.384 10.283 164.353 10.283C165.549 10.283 166.509 10.5453 167.23 11.0678C167.954 11.5902 168.314 12.2919 168.314 13.1729V15.6627C167.718 14.9391 166.92 14.3926 165.923 14.0188C164.926 13.645 163.818 13.457 162.598 13.457C161.551 13.457 160.554 13.6647 159.608 14.08C158.661 14.4954 157.876 15.1512 157.253 16.0452C156.63 16.9415 156.32 18.076 156.32 19.451C156.32 20.826 156.63 21.9102 157.253 22.8567C157.876 23.8033 158.668 24.5115 159.627 24.9771C160.587 25.4427 161.577 25.6766 162.598 25.6766C163.767 25.6766 164.858 25.4646 165.868 25.0405C166.878 24.6164 167.693 24.0437 168.316 23.3223V25.1914H173.062V13.5357C173.062 11.1202 172.328 9.37581 170.857 8.30249H170.854ZM168.312 20.6205C167.938 21.0883 167.409 21.449 166.723 21.7069C166.036 21.9649 165.295 22.0916 164.5 22.0916C163.527 22.0916 162.718 21.8687 162.071 21.4249C161.424 20.9812 161.101 20.3735 161.101 19.6018C161.101 18.8302 161.424 18.1831 162.071 17.7284C162.718 17.2737 163.529 17.0442 164.5 17.0442C165.298 17.0442 166.039 17.1732 166.723 17.429C167.407 17.6847 167.938 18.0476 168.312 18.5154V20.6183V20.6205Z" fill="#25E59B"/>
<path d="M185.99 21.5321C185.841 21.6807 185.616 21.8075 185.317 21.9059C185.017 22.0064 184.694 22.0545 184.344 22.0545C183.846 22.0545 183.448 21.8469 183.148 21.4293C182.849 21.014 182.7 20.485 182.7 19.8467V10.7705H186.362V7.14617H182.7V2.35669L177.917 7.13961L177.915 7.14179H174.929V10.7661H177.919V20.5506C177.919 22.2076 178.355 23.4754 179.227 24.3564C180.099 25.2373 181.369 25.6767 183.039 25.6767C184.808 25.6767 186.128 25.3444 187 24.6821L185.99 21.5277V21.5321Z" fill="#25E59B"/>
<path d="M31.4152 13.1183H27.0411L30.4315 9.72787C29.6599 7.87635 28.5232 6.14068 27.017 4.63455C20.8351 -1.54521 10.8124 -1.54521 4.63263 4.63673C0.850894 8.41847 -0.613711 13.6386 0.232262 18.5374H4.60859L1.21814 21.9278C1.98979 23.7793 3.1265 25.515 4.63263 27.019C10.8146 33.2009 20.8351 33.2009 27.017 27.019C30.7988 23.2372 32.2634 18.0171 31.4152 13.1183Z" fill="#25E59B"/>
<path d="M6.40322 15.8268C6.40322 10.6198 10.6243 6.39869 15.8313 6.39869C15.886 6.39869 15.9406 6.39869 15.9931 6.39869C17.0642 6.41618 18.1157 6.61292 19.1147 6.98454C19.9738 7.3015 20.7782 7.74307 21.5105 8.29394C21.8603 8.55844 22.1947 8.84917 22.5029 9.15521C22.5051 9.1574 22.5073 9.15958 22.5117 9.16395C22.9401 9.59459 22.927 10.2985 22.4964 10.7269L21.2088 12.0145C20.9116 12.3118 20.7454 12.714 20.7454 13.1315C20.7454 15.2322 21.9608 15.735 23.4451 14.2507L25.419 12.2768C26.5929 11.1029 26.7 9.24921 25.6726 7.96385L25.6551 7.94199C25.3666 7.58349 25.0584 7.24029 24.7392 6.92114C24.42 6.60199 24.0768 6.29377 23.7183 6.00522C22.9882 5.41719 22.1903 4.91223 21.3466 4.50345C20.4306 4.0597 19.4601 3.72524 18.4633 3.5132C17.5867 3.3274 16.7057 3.23558 15.8313 3.2334C8.87775 3.23558 3.24011 8.87322 3.24011 15.8268H6.40322Z" fill="#47108E"/>
<path d="M25.2528 15.8269C25.2528 21.0339 21.0317 25.255 15.8247 25.255C15.77 25.255 15.7154 25.255 15.6629 25.255C14.5918 25.2375 13.5403 25.0408 12.5413 24.6692C11.6822 24.3522 10.8778 23.9106 10.1455 23.3598C9.79575 23.0953 9.46129 22.8045 9.15307 22.4985C9.15088 22.4963 9.1487 22.4941 9.14433 22.4898C8.71588 22.0591 8.72899 21.3552 9.15963 20.9268L10.4472 19.6392C10.7445 19.342 10.9106 18.9397 10.9106 18.5222C10.9106 16.4215 9.69519 15.9187 8.21091 17.403L6.23698 19.3769C5.06311 20.5508 4.95599 22.4045 5.9834 23.6899L6.00089 23.7117C6.28944 24.0702 6.59766 24.4134 6.91682 24.7326C7.23597 25.0517 7.57917 25.36 7.93767 25.6485C8.66778 26.2365 9.46567 26.7415 10.3095 27.1503C11.2254 27.594 12.196 27.9285 13.1928 28.1405C14.0693 28.3263 14.9503 28.4181 15.8247 28.4203C22.7783 28.4181 28.4159 22.7805 28.4159 15.8269H25.2528Z" fill="#47108E"/>
</svg>
