<svg width="158" height="49" viewBox="0 0 158 49" fill="none" xmlns="http://www.w3.org/2000/svg">
<path d="M0 8C0 3.58172 3.58172 0 8 0H150C154.418 0 158 3.58172 158 8V41C158 45.4183 154.418 49 150 49H8C3.58172 49 0 45.4183 0 41V8Z" fill="#47108E"/>
<mask id="mask0_1_3003" style="mask-type:alpha" maskUnits="userSpaceOnUse" x="0" y="0" width="158" height="49">
<path d="M0 8C0 3.58172 3.58172 0 8 0H150C154.418 0 158 3.58172 158 8V41C158 45.4183 154.418 49 150 49H8C3.58172 49 0 45.4183 0 41V8Z" fill="white"/>
</mask>
<g mask="url(#mask0_1_3003)">
<path d="M-56 46H210C210 47.6569 208.657 49 207 49H-53C-54.6568 49 -56 47.6569 -56 46Z" fill="#3CEBA7"/>
</g>
<path d="M9.80592 19.6572C7.24346 24.1099 8.87233 30.8679 11.7058 34.9653C13.12 37.0143 14.5524 38.8528 16.5132 38.8528C16.5499 38.8528 16.5872 38.8521 16.6252 38.8502C17.547 38.8134 18.2128 38.5295 18.8564 38.2548C19.5792 37.946 20.3275 37.6273 21.5 37.6273C22.6726 37.6273 23.3273 37.9361 24.0154 38.2338C24.6943 38.5282 25.3928 38.8325 26.4259 38.8128C28.6349 38.7715 29.9914 36.7874 31.1882 35.0367C32.4373 33.2094 33.0639 31.4351 33.2747 30.7565L33.2832 30.7296C33.3238 30.6089 33.2662 30.4778 33.1509 30.4247C33.1509 30.4247 33.1365 30.4181 33.1333 30.4168C32.7444 30.2575 29.3315 28.7409 29.2955 24.6088C29.2621 21.2511 31.8553 19.4736 32.3758 19.151L32.4 19.1352C32.4563 19.0992 32.4956 19.0415 32.5093 18.9759C32.5224 18.9097 32.5093 18.8415 32.4707 18.7858C30.6808 16.1624 27.937 15.767 26.8325 15.7198C26.6728 15.7034 26.5071 15.6956 26.3408 15.6956C25.0432 15.6956 23.8006 16.186 22.8016 16.5807C22.1122 16.8528 21.5171 17.0882 21.1066 17.0882C20.645 17.0882 20.046 16.8502 19.3533 16.5748C18.4256 16.2063 17.3748 15.7887 16.2625 15.7887C16.2357 15.7887 16.2101 15.7887 16.1846 15.79C13.5979 15.828 11.1533 17.3098 9.80592 19.6572Z" fill="white"/>
<path d="M26.8343 8.49801C25.2683 8.56161 23.3887 9.52742 22.2659 10.8453C21.3107 11.9521 20.379 13.7992 20.6245 15.66C20.6403 15.7767 20.7352 15.8659 20.8517 15.8757C20.9578 15.8836 21.0651 15.8881 21.1725 15.8881C22.7038 15.8881 24.3563 15.039 25.485 13.6726C26.6726 12.2301 27.2729 10.3785 27.0916 8.71963C27.0772 8.58915 26.9626 8.49276 26.8343 8.49801Z" fill="white"/>
<path d="M52.7966 32.5074H46.3826L45.1183 35.4802H42.6626L48.435 22.6335H50.7808L56.5715 35.4802H54.0791L52.7966 32.5074ZM52.0083 30.6354L49.5892 25.0196L47.1885 30.6354H52.0083Z" fill="white"/>
<path d="M65.9636 26.1939C66.7152 26.6102 67.3044 27.197 67.7319 27.9557C68.1595 28.7143 68.3735 29.589 68.3735 30.5803C68.3735 31.5717 68.1595 32.4497 67.7319 33.2142C67.3044 33.9787 66.7145 34.5695 65.9636 34.9852C65.212 35.4015 64.3603 35.6094 63.407 35.6094C62.0878 35.6094 61.0429 35.1688 60.2737 34.2882V39.0419H57.9829V25.6811H60.1637V26.9656C60.5421 26.5007 61.0096 26.1519 61.5654 25.9191C62.1212 25.687 62.7353 25.5703 63.407 25.5703C64.3603 25.5703 65.212 25.7788 65.9636 26.1945V26.1939ZM65.2304 32.8011C65.7738 32.2386 66.0461 31.4983 66.0461 30.5803C66.0461 29.6624 65.7744 28.9228 65.2304 28.3596C64.6863 27.797 63.9936 27.5151 63.1504 27.5151C62.6005 27.5151 62.1062 27.6409 61.6662 27.8914C61.2263 28.1425 60.878 28.5005 60.622 28.9654C60.3653 29.4303 60.237 29.9686 60.237 30.5803C60.237 31.1921 60.3653 31.7304 60.622 32.1953C60.8786 32.6602 61.2269 33.0182 61.6662 33.2693C62.1062 33.5204 62.6005 33.6456 63.1504 33.6456C63.9936 33.6456 64.6863 33.3644 65.2304 32.8011Z" fill="white"/>
<path d="M78.5344 26.1939C79.286 26.6102 79.8752 27.197 80.3027 27.9557C80.7302 28.7143 80.9443 29.589 80.9443 30.5803C80.9443 31.5717 80.7302 32.4497 80.3027 33.2142C79.8752 33.9787 79.2853 34.5695 78.5344 34.9852C77.7828 35.4015 76.9311 35.6094 75.9778 35.6094C74.6586 35.6094 73.6137 35.1688 72.8445 34.2882V39.0419H70.5537V25.6811H72.7345V26.9656C73.1129 26.5007 73.5804 26.1519 74.1362 25.9191C74.692 25.687 75.3061 25.5703 75.9778 25.5703C76.9311 25.5703 77.7828 25.7788 78.5344 26.1945V26.1939ZM77.8012 32.8011C78.3445 32.2386 78.6169 31.4983 78.6169 30.5803C78.6169 29.6624 78.3452 28.9228 77.8012 28.3596C77.2571 27.797 76.5644 27.5151 75.7212 27.5151C75.1713 27.5151 74.677 27.6409 74.237 27.8914C73.7971 28.1425 73.4488 28.5005 73.1928 28.9654C72.9361 29.4303 72.8078 29.9686 72.8078 30.5803C72.8078 31.1921 72.9361 31.7304 73.1928 32.1953C73.4494 32.6602 73.7977 33.0182 74.237 33.2693C74.677 33.5204 75.1713 33.6456 75.7212 33.6456C76.5644 33.6456 77.2571 33.3644 77.8012 32.8011Z" fill="white"/>
<path d="M89.5105 35.2427C88.588 34.9614 87.8581 34.5883 87.3206 34.1235L88.1455 32.2699C88.6705 32.6862 89.3154 33.0252 90.0788 33.2881C90.8421 33.5517 91.6088 33.6829 92.3787 33.6829C93.3313 33.6829 94.0429 33.5301 94.5137 33.2239C94.9837 32.9183 95.2194 32.5144 95.2194 32.0128C95.2194 31.6457 95.0878 31.3427 94.8253 31.1041C94.5628 30.8654 94.2295 30.6792 93.8269 30.5441C93.4236 30.4097 92.8743 30.2569 92.1777 30.0851C91.2003 29.853 90.4094 29.6203 89.8045 29.3875C89.1995 29.1554 88.6804 28.7908 88.2469 28.2958C87.8129 27.8001 87.5962 27.1307 87.5962 26.2862C87.5962 25.5767 87.7887 24.9309 88.1736 24.3499C88.5586 23.769 89.1386 23.3068 89.9144 22.9645C90.6903 22.6222 91.6396 22.4504 92.7643 22.4504C93.546 22.4504 94.3159 22.5488 95.0734 22.7442C95.8309 22.9402 96.4843 23.2215 97.0342 23.5887L96.2826 25.4423C95.7203 25.1118 95.1343 24.8614 94.5235 24.6896C93.9127 24.5184 93.3202 24.4326 92.746 24.4326C91.8052 24.4326 91.106 24.5919 90.6477 24.9099C90.1894 25.2279 89.9603 25.6501 89.9603 26.176C89.9603 26.5432 90.0912 26.8428 90.3544 27.0749C90.6169 27.3077 90.9502 27.4913 91.3528 27.6257C91.7561 27.7608 92.3054 27.9135 93.002 28.0847C93.9552 28.305 94.7369 28.5345 95.3477 28.7731C95.9586 29.0118 96.481 29.3757 96.9144 29.8648C97.3478 30.3546 97.5652 31.0149 97.5652 31.847C97.5652 32.5564 97.3727 33.199 96.9877 33.774C96.6028 34.349 96.0195 34.808 95.2377 35.1503C94.456 35.4925 93.5028 35.6643 92.3794 35.6643C91.3895 35.6643 90.4336 35.5233 89.5112 35.2421L89.5105 35.2427Z" fill="white"/>
<path d="M105.591 34.9485C105.322 35.1688 104.995 35.3341 104.611 35.4442C104.226 35.5544 103.82 35.6094 103.393 35.6094C102.318 35.6094 101.487 35.3282 100.9 34.7649C100.314 34.2024 100.02 33.3828 100.02 32.3055V27.5885H98.408V25.7533H100.02V23.5142H102.311V25.7533H104.932V27.5885H102.311V32.2504C102.311 32.7277 102.427 33.0916 102.66 33.3421C102.891 33.5932 103.228 33.7185 103.667 33.7185C104.18 33.7185 104.608 33.5841 104.95 33.3146L105.591 34.9479V34.9485Z" fill="white"/>
<path d="M108.871 34.967C108.077 34.5388 107.457 33.9422 107.011 33.1777C106.566 32.4131 106.342 31.5476 106.342 30.5805C106.342 29.6134 106.565 28.7518 107.011 27.9926C107.457 27.2339 108.077 26.6405 108.871 26.2124C109.666 25.7842 110.557 25.5698 111.547 25.5698C112.537 25.5698 113.446 25.7842 114.241 26.2124C115.035 26.6405 115.655 27.2339 116.101 27.9926C116.547 28.7512 116.77 29.614 116.77 30.5805C116.77 31.547 116.547 32.4131 116.101 33.1777C115.655 33.9422 115.035 34.5388 114.241 34.967C113.447 35.3952 112.549 35.6096 111.547 35.6096C110.545 35.6096 109.666 35.3958 108.871 34.967ZM113.636 32.8013C114.186 32.2387 114.461 31.4985 114.461 30.5805C114.461 29.6626 114.186 28.923 113.636 28.3597C113.086 27.7972 112.39 27.5152 111.547 27.5152C110.704 27.5152 110.011 27.7965 109.467 28.3597C108.923 28.9223 108.651 29.6626 108.651 30.5805C108.651 31.4985 108.923 32.2387 109.467 32.8013C110.011 33.3639 110.704 33.6458 111.547 33.6458C112.39 33.6458 113.086 33.3645 113.636 32.8013Z" fill="white"/>
<path d="M124.631 25.5703V27.7544C124.435 27.7177 124.258 27.6993 124.099 27.6993C123.207 27.6993 122.511 27.9596 122.01 28.4796C121.509 28.9995 121.258 29.7489 121.258 30.7279V35.4815H118.968V25.6811H121.148V27.1125C121.808 26.085 122.968 25.571 124.63 25.571L124.631 25.5703Z" fill="white"/>
<path d="M135.644 31.3149H127.966C128.1 32.0368 128.452 32.6085 129.019 33.0308C129.588 33.453 130.293 33.6642 131.136 33.6642C132.211 33.6642 133.097 33.3094 133.793 32.6L135.021 34.013C134.581 34.5395 134.025 34.9368 133.353 35.2057C132.682 35.4751 131.924 35.6096 131.081 35.6096C130.006 35.6096 129.059 35.3958 128.24 34.967C127.422 34.5388 126.79 33.9422 126.344 33.1777C125.898 32.4131 125.675 31.5476 125.675 30.5805C125.675 29.6134 125.891 28.7669 126.325 28.0017C126.759 27.2372 127.36 26.6405 128.13 26.2124C128.9 25.7842 129.767 25.5698 130.733 25.5698C131.698 25.5698 132.538 25.781 133.289 26.2032C134.041 26.6255 134.627 27.2189 135.048 27.9834C135.47 28.7479 135.681 29.6324 135.681 30.6356C135.681 30.7949 135.668 31.0211 135.644 31.3149ZM128.873 28.0575C128.365 28.4922 128.058 29.0698 127.948 29.7917H133.5C133.402 29.0823 133.103 28.5073 132.602 28.0666C132.101 27.626 131.478 27.4057 130.733 27.4057C129.988 27.4057 129.379 27.6228 128.873 28.0575Z" fill="white"/>
<path d="M44.3855 16.604V9.86901H47.2238C49.3886 9.86901 50.8607 11.2353 50.8607 13.2365C50.8607 15.2378 49.3886 16.604 47.2238 16.604H44.3855ZM45.3476 15.7669H47.1661C48.8306 15.7669 49.8986 14.7471 49.8986 13.2365C49.8986 11.7259 48.8306 10.7061 47.1661 10.7061H45.3476V15.7669ZM56.8084 14.0832C56.8084 14.1602 56.7988 14.2756 56.7891 14.3622H52.6519C52.7674 15.257 53.489 15.8535 54.4993 15.8535C55.0958 15.8535 55.5961 15.6515 55.9713 15.2378L56.4813 15.8343C56.0194 16.3731 55.3171 16.6617 54.4704 16.6617C52.8251 16.6617 51.7283 15.5745 51.7283 14.0543C51.7283 12.5438 52.8155 11.4565 54.2876 11.4565C55.7597 11.4565 56.8084 12.5149 56.8084 14.0832ZM54.2876 12.2359C53.4024 12.2359 52.7482 12.8324 52.6519 13.6983H55.9232C55.827 12.842 55.1824 12.2359 54.2876 12.2359ZM59.5534 16.6617C58.7067 16.6617 57.8697 16.402 57.4463 16.0652L57.8312 15.334C58.2642 15.6419 58.9569 15.8632 59.6208 15.8632C60.4771 15.8632 60.8331 15.6034 60.8331 15.1704C60.8331 14.0255 57.6099 15.0165 57.6099 12.9864C57.6099 12.0723 58.4277 11.4565 59.7362 11.4565C60.4001 11.4565 61.1506 11.6297 61.5932 11.9184L61.1987 12.6496C60.7369 12.3513 60.2269 12.2455 59.7266 12.2455C58.9184 12.2455 58.5239 12.5438 58.5239 12.9479C58.5239 14.1505 61.7567 13.1692 61.7567 15.1512C61.7567 16.0748 60.91 16.6617 59.5534 16.6617ZM65.1336 16.6617C63.5653 16.6617 62.4396 15.5745 62.4396 14.0543C62.4396 12.5341 63.5653 11.4565 65.1336 11.4565C66.0477 11.4565 66.8077 11.8318 67.2118 12.5438L66.5095 12.996C66.1824 12.4957 65.682 12.2647 65.124 12.2647C64.1234 12.2647 63.3729 12.9671 63.3729 14.0543C63.3729 15.1608 64.1234 15.8535 65.124 15.8535C65.682 15.8535 66.1824 15.6226 66.5095 15.1223L67.2118 15.5649C66.8077 16.2769 66.0477 16.6617 65.1336 16.6617ZM72.0927 9.51302L70.4763 10.7638H69.6104L70.9189 9.51302H72.0927ZM70.2646 11.4565C71.6597 11.4565 72.4487 12.13 72.4487 13.5252V16.604H71.5731V15.9305C71.2652 16.3923 70.6976 16.6617 69.899 16.6617C68.7444 16.6617 68.0132 16.046 68.0132 15.1608C68.0132 14.343 68.5424 13.6695 70.0626 13.6695H71.525V13.4867C71.525 12.7073 71.0728 12.2551 70.1588 12.2551C69.5526 12.2551 68.9369 12.4668 68.5424 12.8035L68.1575 12.1108C68.6867 11.6875 69.4468 11.4565 70.2646 11.4565ZM70.0529 15.9497C70.7457 15.9497 71.2941 15.6322 71.525 15.0453V14.3334H70.1011C69.187 14.3334 68.9272 14.6893 68.9272 15.1223C68.9272 15.6322 69.3506 15.9497 70.0529 15.9497ZM75.0432 12.361C75.3703 11.7644 76.0053 11.4565 76.9001 11.4565V12.3513C76.8231 12.3417 76.7558 12.3417 76.6884 12.3417C75.6974 12.3417 75.0816 12.9479 75.0816 14.064V16.604H74.158V11.5047H75.0432V12.361ZM81.994 11.5047H82.8696V15.9113C82.8696 17.7105 81.9555 18.5283 80.2237 18.5283C79.2904 18.5283 78.3475 18.2685 77.7895 17.7682L78.2321 17.0562C78.7035 17.4603 79.4443 17.7201 80.1948 17.7201C81.3975 17.7201 81.9459 17.162 81.9459 16.0075V15.6034C81.5033 16.1326 80.8395 16.3923 80.1082 16.3923C78.6362 16.3923 77.5201 15.3917 77.5201 13.9196C77.5201 12.4476 78.6362 11.4565 80.1082 11.4565C80.8683 11.4565 81.5611 11.7356 81.994 12.2936V11.5047ZM80.2141 15.5841C81.2339 15.5841 81.9652 14.901 81.9652 13.9196C81.9652 12.9286 81.2339 12.2647 80.2141 12.2647C79.1846 12.2647 78.4533 12.9286 78.4533 13.9196C78.4533 14.901 79.1846 15.5841 80.2141 15.5841ZM86.4914 11.4565C87.8865 11.4565 88.6754 12.13 88.6754 13.5252V16.604H87.7999V15.9305C87.492 16.3923 86.9243 16.6617 86.1257 16.6617C84.9712 16.6617 84.2399 16.046 84.2399 15.1608C84.2399 14.343 84.7691 13.6695 86.2893 13.6695H87.7518V13.4867C87.7518 12.7073 87.2996 12.2551 86.3855 12.2551C85.7794 12.2551 85.1636 12.4668 84.7691 12.8035L84.3843 12.1108C84.9134 11.6875 85.6735 11.4565 86.4914 11.4565ZM86.2797 15.9497C86.9724 15.9497 87.5209 15.6322 87.7518 15.0453V14.3334H86.3278C85.4138 14.3334 85.154 14.6893 85.154 15.1223C85.154 15.6322 85.5773 15.9497 86.2797 15.9497ZM90.3847 16.604V9.46491H91.3084V16.604H90.3847ZM94.9289 11.4565C96.324 11.4565 97.1129 12.13 97.1129 13.5252V16.604H96.2374V15.9305C95.9295 16.3923 95.3618 16.6617 94.5633 16.6617C93.4087 16.6617 92.6775 16.046 92.6775 15.1608C92.6775 14.343 93.2067 13.6695 94.7268 13.6695H96.1893V13.4867C96.1893 12.7073 95.7371 12.2551 94.823 12.2551C94.2169 12.2551 93.6011 12.4668 93.2067 12.8035L92.8218 12.1108C93.351 11.6875 94.1111 11.4565 94.9289 11.4565ZM94.7172 15.9497C95.41 15.9497 95.9584 15.6322 96.1893 15.0453V14.3334H94.7653C93.8513 14.3334 93.5915 14.6893 93.5915 15.1223C93.5915 15.6322 94.0149 15.9497 94.7172 15.9497ZM106.015 14.0832C106.015 14.1602 106.005 14.2756 105.996 14.3622H101.858C101.974 15.257 102.695 15.8535 103.706 15.8535C104.302 15.8535 104.802 15.6515 105.178 15.2378L105.688 15.8343C105.226 16.3731 104.523 16.6617 103.677 16.6617C102.032 16.6617 100.935 15.5745 100.935 14.0543C100.935 12.5438 102.022 11.4565 103.494 11.4565C104.966 11.4565 106.015 12.5149 106.015 14.0832ZM103.494 12.2359C102.609 12.2359 101.955 12.8324 101.858 13.6983H105.13C105.033 12.842 104.389 12.2359 103.494 12.2359ZM110.02 11.4565C111.261 11.4565 112.137 12.1685 112.137 13.6695V16.604H111.213V13.7753C111.213 12.7747 110.713 12.284 109.837 12.284C108.856 12.284 108.221 12.8709 108.221 13.9774V16.604H107.297V11.5047H108.183V12.2744C108.558 11.7548 109.212 11.4565 110.02 11.4565ZM121.039 14.0832C121.039 14.1602 121.029 14.2756 121.02 14.3622H116.882C116.998 15.257 117.719 15.8535 118.73 15.8535C119.326 15.8535 119.827 15.6515 120.202 15.2378L120.712 15.8343C120.25 16.3731 119.548 16.6617 118.701 16.6617C117.056 16.6617 115.959 15.5745 115.959 14.0543C115.959 12.5438 117.046 11.4565 118.518 11.4565C119.99 11.4565 121.039 12.5149 121.039 14.0832ZM118.518 12.2359C117.633 12.2359 116.979 12.8324 116.882 13.6983H120.154C120.057 12.842 119.413 12.2359 118.518 12.2359ZM122.321 16.604V9.46491H123.245V16.604H122.321Z" fill="white"/>
</svg>
