<svg width="158" height="49" viewBox="0 0 158 49" fill="none" xmlns="http://www.w3.org/2000/svg">
<path d="M0 8C0 3.58172 3.58172 0 8 0H150C154.418 0 158 3.58172 158 8V41C158 45.4183 154.418 49 150 49H8C3.58172 49 0 45.4183 0 41V8Z" fill="#47108E"/>
<mask id="mask0_1_3021" style="mask-type:alpha" maskUnits="userSpaceOnUse" x="0" y="0" width="158" height="49">
<path d="M0 8C0 3.58172 3.58172 0 8 0H150C154.418 0 158 3.58172 158 8V41C158 45.4183 154.418 49 150 49H8C3.58172 49 0 45.4183 0 41V8Z" fill="white"/>
</mask>
<g mask="url(#mask0_1_3021)">
<path d="M-56 46H210C210 47.6569 208.657 49 207 49H-53C-54.6568 49 -56 47.6569 -56 46Z" fill="#3CEBA7"/>
</g>
<path d="M44.0102 16V9.26501H46.8486C49.0134 9.26501 50.4855 10.6313 50.4855 12.6325C50.4855 14.6338 49.0134 16 46.8486 16H44.0102ZM44.9724 15.1629H46.7908C48.4553 15.1629 49.5233 14.1431 49.5233 12.6325C49.5233 11.1219 48.4553 10.1021 46.7908 10.1021H44.9724V15.1629ZM52.2863 9.91927C51.9303 9.91927 51.6609 9.65949 51.6609 9.32274C51.6609 8.98599 51.9303 8.71659 52.2863 8.71659C52.6423 8.71659 52.9117 8.97637 52.9117 9.3035C52.9117 9.64987 52.6519 9.91927 52.2863 9.91927ZM51.8245 16V10.9007H52.7481V16H51.8245ZM55.9742 16.0577C55.1275 16.0577 54.2904 15.798 53.8671 15.4612L54.2519 14.73C54.6849 15.0379 55.3776 15.2592 56.0415 15.2592C56.8978 15.2592 57.2538 14.9994 57.2538 14.5664C57.2538 13.4215 54.0307 14.4125 54.0307 12.3823C54.0307 11.4683 54.8485 10.8525 56.157 10.8525C56.8209 10.8525 57.5713 11.0257 58.0139 11.3144L57.6194 12.0456C57.1576 11.7473 56.6477 11.6415 56.1474 11.6415C55.3392 11.6415 54.9447 11.9398 54.9447 12.3439C54.9447 13.5465 58.1775 12.5652 58.1775 14.5472C58.1775 15.4708 57.3308 16.0577 55.9742 16.0577ZM62.0354 10.8525C63.5268 10.8525 64.614 11.8917 64.614 13.4503C64.614 15.0186 63.5268 16.0577 62.0354 16.0577C61.3138 16.0577 60.6788 15.7787 60.2555 15.2303V17.8666H59.3318V10.9007H60.217V11.7088C60.6307 11.1412 61.285 10.8525 62.0354 10.8525ZM61.9585 15.2495C62.9399 15.2495 63.6807 14.5375 63.6807 13.4503C63.6807 12.3727 62.9399 11.6607 61.9585 11.6607C60.9867 11.6607 60.2459 12.3727 60.2459 13.4503C60.2459 14.5375 60.9867 15.2495 61.9585 15.2495ZM68.0742 16.0577C66.5444 16.0577 65.4187 14.9705 65.4187 13.4503C65.4187 11.9301 66.5444 10.8525 68.0742 10.8525C69.604 10.8525 70.7201 11.9301 70.7201 13.4503C70.7201 14.9705 69.604 16.0577 68.0742 16.0577ZM68.0742 15.2495C69.0556 15.2495 69.7868 14.5375 69.7868 13.4503C69.7868 12.3631 69.0556 11.6607 68.0742 11.6607C67.0928 11.6607 66.352 12.3631 66.352 13.4503C66.352 14.5375 67.0928 15.2495 68.0742 15.2495ZM74.7204 10.8525C75.9615 10.8525 76.8371 11.5645 76.8371 13.0655V16H75.9134V13.1713C75.9134 12.1707 75.4131 11.68 74.5376 11.68C73.5562 11.68 72.9212 12.2669 72.9212 13.3734V16H71.9975V10.9007H72.8827V11.6704C73.2579 11.1508 73.9122 10.8525 74.7204 10.8525ZM79.0083 9.91927C78.6523 9.91927 78.3829 9.65949 78.3829 9.32274C78.3829 8.98599 78.6523 8.71659 79.0083 8.71659C79.3643 8.71659 79.6337 8.97637 79.6337 9.3035C79.6337 9.64987 79.3739 9.91927 79.0083 9.91927ZM78.5465 16V10.9007H79.4701V16H78.5465ZM83.9373 10.8525C85.4286 10.8525 86.5159 11.8917 86.5159 13.4503C86.5159 15.009 85.4286 16.0577 83.9373 16.0577C83.1868 16.0577 82.5326 15.7691 82.1189 15.1918V16H81.2337V8.86091H82.1574V11.6704C82.5807 11.1219 83.2157 10.8525 83.9373 10.8525ZM83.8603 15.2495C84.8417 15.2495 85.5826 14.5375 85.5826 13.4503C85.5826 12.3631 84.8417 11.6607 83.8603 11.6607C82.8886 11.6607 82.1477 12.3631 82.1477 13.4503C82.1477 14.5375 82.8886 15.2495 83.8603 15.2495ZM87.792 16V8.86091H88.7157V16H87.792ZM95.0879 13.4792C95.0879 13.5562 95.0783 13.6716 95.0687 13.7582H90.9315C91.0469 14.653 91.7685 15.2495 92.7788 15.2495C93.3753 15.2495 93.8756 15.0475 94.2509 14.6338L94.7608 15.2303C94.299 15.7691 93.5966 16.0577 92.7499 16.0577C91.1047 16.0577 90.0078 14.9705 90.0078 13.4503C90.0078 11.9398 91.095 10.8525 92.5671 10.8525C94.0392 10.8525 95.0879 11.9109 95.0879 13.4792ZM92.5671 11.6319C91.682 11.6319 91.0277 12.2284 90.9315 13.0943H94.2028C94.1065 12.238 93.4619 11.6319 92.5671 11.6319ZM103.563 13.4792C103.563 13.5562 103.553 13.6716 103.544 13.7582H99.4066C99.5221 14.653 100.244 15.2495 101.254 15.2495C101.85 15.2495 102.351 15.0475 102.726 14.6338L103.236 15.2303C102.774 15.7691 102.072 16.0577 101.225 16.0577C99.5798 16.0577 98.4829 14.9705 98.4829 13.4503C98.4829 11.9398 99.5702 10.8525 101.042 10.8525C102.514 10.8525 103.563 11.9109 103.563 13.4792ZM101.042 11.6319C100.157 11.6319 99.5028 12.2284 99.4066 13.0943H102.678C102.582 12.238 101.937 11.6319 101.042 11.6319ZM107.568 10.8525C108.81 10.8525 109.685 11.5645 109.685 13.0655V16H108.762V13.1713C108.762 12.1707 108.261 11.68 107.386 11.68C106.404 11.68 105.769 12.2669 105.769 13.3734V16H104.846V10.9007H105.731V11.6704C106.106 11.1508 106.76 10.8525 107.568 10.8525Z" fill="white"/>
<path d="M51.4557 28.0605H53.6588V33.0646C53.0139 33.5787 52.2617 33.9734 51.402 34.2481C50.5424 34.5229 49.6586 34.6606 48.7512 34.6606C47.4732 34.6606 46.3216 34.3826 45.2951 33.8265C44.2679 33.2705 43.4619 32.5021 42.8773 31.5218C42.292 30.5416 42 29.4355 42 28.2035C42 26.9714 42.2926 25.866 42.8773 24.8851C43.4619 23.9048 44.2711 23.1364 45.3042 22.5804C46.3367 22.0243 47.4981 21.7463 48.7878 21.7463C49.8386 21.7463 50.7938 21.9201 51.6534 22.2663C52.513 22.6131 53.2352 23.1213 53.8205 23.7907L52.352 25.2254C51.3968 24.2687 50.2445 23.7907 48.8959 23.7907C48.012 23.7907 47.2271 23.9763 46.541 24.3468C45.8542 24.7172 45.3167 25.2378 44.9291 25.9073C44.5409 26.5774 44.3471 27.3419 44.3471 28.2028C44.3471 29.0637 44.5409 29.7935 44.9291 30.4629C45.3167 31.133 45.8542 31.6589 46.541 32.0411C47.2271 32.4241 48.0062 32.6149 48.8782 32.6149C49.857 32.6149 50.7166 32.3998 51.457 31.969V28.0592L51.4557 28.0605Z" fill="white"/>
<path d="M58.189 33.9789C57.4125 33.5606 56.8069 32.9777 56.3709 32.2302C55.9349 31.4834 55.7175 30.6369 55.7175 29.6921C55.7175 28.7473 55.9355 27.9047 56.3709 27.1631C56.8063 26.4216 57.4125 25.8419 58.189 25.4236C58.9648 25.0053 59.8369 24.7961 60.8038 24.7961C61.7708 24.7961 62.6599 25.0053 63.4363 25.4236C64.2122 25.8426 64.8184 26.4222 65.2544 27.1631C65.6898 27.9047 65.9078 28.7479 65.9078 29.6921C65.9078 30.6363 65.6898 31.4827 65.2544 32.2302C64.8184 32.9777 64.2128 33.5606 63.4363 33.9789C62.6599 34.3979 61.7826 34.6064 60.8038 34.6064C59.8251 34.6064 58.9648 34.3972 58.189 33.9789ZM62.8452 31.8624C63.3827 31.3123 63.6511 30.5891 63.6511 29.6921C63.6511 28.7951 63.3827 28.0719 62.8452 27.5218C62.3077 26.9717 61.6274 26.697 60.8038 26.697C59.9802 26.697 59.302 26.9723 58.771 27.5218C58.2394 28.0719 57.9743 28.7951 57.9743 29.6921C57.9743 30.5891 58.2401 31.3123 58.771 31.8624C59.302 32.4125 59.9796 32.6872 60.8038 32.6872C61.6281 32.6872 62.3083 32.4125 62.8452 31.8624Z" fill="white"/>
<path d="M69.7405 33.9789C68.964 33.5606 68.3585 32.9777 67.9224 32.2302C67.4864 31.4834 67.269 30.6369 67.269 29.6921C67.269 28.7473 67.4871 27.9047 67.9224 27.1631C68.3578 26.4216 68.964 25.8419 69.7405 25.4236C70.5163 25.0053 71.3884 24.7961 72.3553 24.7961C73.3223 24.7961 74.2114 25.0053 74.9879 25.4236C75.7637 25.8426 76.3699 26.4222 76.8059 27.1631C77.2413 27.9047 77.4593 28.7479 77.4593 29.6921C77.4593 30.6363 77.2413 31.4827 76.8059 32.2302C76.3699 32.9777 75.7643 33.5606 74.9879 33.9789C74.2114 34.3979 73.3341 34.6064 72.3553 34.6064C71.3766 34.6064 70.5163 34.3972 69.7405 33.9789ZM74.3967 31.8624C74.9342 31.3123 75.2026 30.5891 75.2026 29.6921C75.2026 28.7951 74.9342 28.0719 74.3967 27.5218C73.8592 26.9717 73.1789 26.697 72.3553 26.697C71.5317 26.697 70.8535 26.9723 70.3225 27.5218C69.7909 28.0719 69.5258 28.7951 69.5258 29.6921C69.5258 30.5891 69.7916 31.3123 70.3225 31.8624C70.8535 32.4125 71.5311 32.6872 72.3553 32.6872C73.1796 32.6872 73.8598 32.4125 74.3967 31.8624Z" fill="white"/>
<path d="M89.0996 24.903V33.0282C89.0996 36.4003 87.3803 38.0861 83.9419 38.0861C83.0227 38.0861 82.1507 37.9694 81.3271 37.7366C80.5035 37.5032 79.8226 37.1655 79.2851 36.7229L80.2881 35.0372C80.7058 35.384 81.2341 35.662 81.8731 35.8712C82.5114 36.0804 83.1595 36.1853 83.8162 36.1853C84.8663 36.1853 85.6369 35.9459 86.1266 35.4679C86.6163 34.9893 86.8605 34.2602 86.8605 33.28V32.7777C86.4782 33.1967 86.0127 33.5134 85.4634 33.7284C84.9141 33.9435 84.3111 34.051 83.6545 34.051C82.7471 34.051 81.9261 33.8569 81.1922 33.4681C80.4583 33.08 79.8789 32.5325 79.4553 31.827C79.0317 31.1215 78.8196 30.3143 78.8196 29.4056C78.8196 28.4968 79.0317 27.6929 79.4553 26.9933C79.8789 26.2937 80.4583 25.7528 81.1922 25.3699C81.9268 24.9876 82.7471 24.7961 83.6545 24.7961C84.3465 24.7961 84.977 24.9102 85.5439 25.1371C86.1109 25.3646 86.5856 25.7108 86.9679 26.1777V24.9043H89.0989L89.0996 24.903ZM86.0821 31.387C86.6255 30.8789 86.8972 30.2186 86.8972 29.4049C86.8972 28.5912 86.6255 27.9519 86.0821 27.4497C85.5387 26.9474 84.8434 26.6963 83.9956 26.6963C83.1478 26.6963 82.4341 26.9474 81.8914 27.4497C81.348 27.9519 81.0763 28.6037 81.0763 29.4049C81.0763 30.2061 81.348 30.8789 81.8914 31.387C82.4341 31.8952 83.136 32.1496 83.9956 32.1496C84.8552 32.1496 85.5387 31.8958 86.0821 31.387Z" fill="white"/>
<path d="M92.0364 21.1721H94.2748V34.4804H92.0364V21.1721Z" fill="white"/>
<path d="M106.167 30.4094H98.6625C98.7934 31.1149 99.1371 31.6742 99.6923 32.0866C100.247 32.499 100.937 32.7056 101.76 32.7056C102.811 32.7056 103.677 32.3587 104.357 31.665L105.557 33.0459C105.128 33.5599 104.584 33.9487 103.928 34.2117C103.271 34.4746 102.53 34.6064 101.707 34.6064C100.656 34.6064 99.7309 34.3972 98.9309 33.9789C98.1309 33.5606 97.5128 32.9777 97.0775 32.2302C96.6414 31.4834 96.4241 30.6369 96.4241 29.6921C96.4241 28.7473 96.6362 27.9198 97.0598 27.1723C97.4834 26.4248 98.0719 25.8419 98.8242 25.4236C99.5764 25.0053 100.424 24.7961 101.367 24.7961C102.31 24.7961 103.131 25.0027 103.865 25.4151C104.599 25.8275 105.173 26.4078 105.585 27.1546C105.996 27.9021 106.203 28.7663 106.203 29.7465C106.203 29.9019 106.191 30.1229 106.167 30.4101V30.4094ZM99.5489 27.2261C99.0533 27.651 98.7522 28.2155 98.6448 28.921H104.072C103.976 28.228 103.683 27.6654 103.194 27.2353C102.705 26.8051 102.096 26.5894 101.368 26.5894C100.64 26.5894 100.045 26.8019 99.5496 27.2261H99.5489Z" fill="white"/>
<path d="M121.505 22.4637C122.311 22.8223 122.929 23.3364 123.359 24.0058C123.789 24.6759 124.003 25.4706 124.003 26.3912C124.003 27.3118 123.789 28.092 123.359 28.768C122.929 29.4434 122.311 29.9607 121.505 30.3194C120.699 30.678 119.753 30.8577 118.666 30.8577H115.837V34.4809H113.509V21.926H118.666C119.753 21.926 120.699 22.1057 121.505 22.4643V22.4637ZM120.869 28.2389C121.395 27.8081 121.658 27.1924 121.658 26.3912C121.658 25.59 121.395 24.9743 120.869 24.5435C120.344 24.1127 119.574 23.8976 118.559 23.8976H115.837V28.8841H118.559C119.574 28.8841 120.344 28.669 120.869 28.2382V28.2389Z" fill="white"/>
<path d="M126.545 21H128.784V34.3083H126.545V21Z" fill="white"/>
<path d="M138.358 25.8092C139.104 26.4852 139.477 27.5041 139.477 28.8672V34.4812H137.364V33.3154C137.089 33.7343 136.698 34.0537 136.19 34.2746C135.683 34.4956 135.071 34.6064 134.355 34.6064C133.638 34.6064 133.011 34.4838 132.474 34.2386C131.937 33.9933 131.523 33.653 131.23 33.2164C130.937 32.7803 130.791 32.2866 130.791 31.7365C130.791 30.8756 131.111 30.1852 131.749 29.6652C132.387 29.1453 133.394 28.8849 134.767 28.8849H137.238V28.7414C137.238 28.0719 137.038 27.5579 136.638 27.1992C136.238 26.8405 135.644 26.6609 134.856 26.6609C134.319 26.6609 133.79 26.7448 133.271 26.912C132.752 27.0799 132.313 27.3126 131.955 27.6116L131.077 25.9796C131.579 25.5974 132.182 25.3043 132.886 25.101C133.591 24.8978 134.337 24.7961 135.125 24.7961C136.534 24.7961 137.611 25.1338 138.358 25.8098V25.8092ZM136.316 32.5889C136.752 32.3318 137.059 31.964 137.239 31.486V30.374H134.928C133.639 30.374 132.994 30.7989 132.994 31.6473C132.994 32.0538 133.155 32.3771 133.478 32.6158C133.8 32.8551 134.248 32.9744 134.822 32.9744C135.395 32.9744 135.881 32.8459 136.317 32.5889H136.316Z" fill="white"/>
<path d="M151.117 24.9031L146.64 35.2523C146.221 36.2929 145.715 37.0246 145.118 37.4495C144.52 37.8737 143.798 38.0861 142.951 38.0861C142.473 38.0861 142.001 38.0081 141.536 37.8527C141.07 37.6973 140.688 37.4823 140.389 37.2069L141.285 35.5565C141.5 35.7598 141.753 35.9211 142.046 36.0411C142.339 36.1604 142.634 36.2207 142.933 36.2207C143.327 36.2207 143.652 36.1191 143.909 35.9158C144.166 35.7126 144.401 35.3716 144.617 34.8936L144.778 34.5173L140.605 24.9037H142.933L145.942 31.9883L148.968 24.9037H151.118L151.117 24.9031Z" fill="white"/>
<path d="M38.1588 21.3451L32.1409 17.8674L27.1914 22.6591L31.7147 27.0384L38.1588 23.3135C38.5137 23.1089 38.7258 22.7404 38.7258 22.33C38.7258 21.9195 38.5137 21.551 38.1588 21.3458V21.3451Z" fill="white"/>
<path d="M31.1196 17.2768L24.4974 13.4483L9.98413 5.99976L26.3763 21.8691L31.1196 17.2768Z" fill="white"/>
<path d="M10.2249 39.0845L24.522 31.1967L30.6932 27.6292L26.3761 23.4492L10.2249 39.0845Z" fill="white"/>
<path d="M9.01507 6.6416L9 38.6911L25.5605 22.6585L9.01507 6.6416Z" fill="white"/>
</svg>
