<svg width="77" height="89" viewBox="0 0 77 89" fill="none" xmlns="http://www.w3.org/2000/svg">
<path d="M36.7744 88.4777C35.1258 88.1387 33.4423 87.9048 31.8288 87.4605C22.0898 84.7715 14.7591 76.26 13.4848 66.2637C12.947 62.0314 13.3795 57.9043 14.8761 53.9058C14.9579 53.6953 14.993 53.4849 15.0865 53.1809C13.3211 53.1809 11.6375 53.1809 9.94222 53.1809C7.77928 53.1809 6.6452 52.0351 6.6452 49.8839C6.6452 45.406 6.6452 40.9281 6.6452 36.4386C6.6452 36.1229 6.6452 35.8189 6.6452 35.398C5.5345 35.398 4.48226 35.3863 3.43002 35.398C2.45962 35.4214 1.67629 35.0824 1.23201 34.1821C0.764345 33.2351 1.03325 32.4167 1.68798 31.645C5.05515 27.6933 8.42232 23.7182 11.7895 19.7664C12.9703 18.3868 14.3266 18.3751 15.4957 19.743C18.8629 23.6948 22.2184 27.6699 25.5855 31.6217C26.2403 32.3933 26.5209 33.2117 26.0649 34.1587C25.6206 35.0941 24.8022 35.4214 23.7967 35.398C22.7679 35.3746 21.739 35.398 20.6634 35.398V44.7513C20.8738 44.5993 21.0258 44.4941 21.1544 44.3772C24.0072 41.6647 27.3042 39.6771 31.0572 38.508C31.6534 38.3209 31.8522 38.052 31.8405 37.4324C31.8054 33.96 31.8288 30.4876 31.8288 27.0035C31.8288 26.7463 31.8054 26.5008 31.7821 26.1383C30.7064 26.1383 29.6893 26.1149 28.6604 26.1383C27.6549 26.1617 26.8365 25.8694 26.4039 24.9107C25.983 23.9637 26.2403 23.1453 26.895 22.3736C30.2738 18.4219 33.6176 14.4468 36.9848 10.495C38.1306 9.15048 39.5102 9.13879 40.6443 10.4716C44.0114 14.4234 47.3669 18.3985 50.7341 22.3503C51.3888 23.1219 51.6694 23.9286 51.2602 24.8756C50.8393 25.846 50.0209 26.1617 49.0154 26.1383C47.9866 26.1149 46.9577 26.1383 45.8821 26.1383C45.8587 26.4774 45.8236 26.7346 45.8236 26.9801C45.8236 30.4876 45.8236 33.9834 45.8236 37.4908C45.8236 37.9468 45.847 38.2742 46.4082 38.4378C50.2898 39.6187 53.6804 41.6647 56.6032 44.4707C56.6968 44.5642 56.8137 44.6227 57.0008 44.763V16.9721C56.7085 16.9488 56.4279 16.9254 56.159 16.9137C55.2704 16.9137 54.3818 16.9371 53.4933 16.8903C52.6281 16.8552 51.95 16.446 51.5876 15.6393C51.2251 14.8326 51.3187 14.0609 51.8915 13.3828C55.3756 9.2674 58.8597 5.14028 62.3789 1.04823C63.3493 -0.0858488 64.7523 -0.050775 65.7344 1.10669C69.2067 5.16366 72.6558 9.24401 76.1048 13.3127C76.6893 14.0142 76.8413 14.7975 76.4672 15.6393C76.0814 16.4811 75.3799 16.8786 74.4796 16.902C73.3689 16.9254 72.2466 16.902 71.0306 16.902C71.0306 17.3112 71.0306 17.6502 71.0306 17.9893C71.0306 28.5234 71.0306 39.0692 71.0306 49.6033C71.0306 52.117 69.9901 53.1575 67.4647 53.1575C65.863 53.1575 64.2612 53.1575 62.6361 53.1575C63.057 54.6891 63.5246 56.1272 63.8637 57.6003C67.0321 71.7237 57.106 86.0576 42.7487 88.1503C42.1291 88.2439 41.5211 88.3608 40.9015 88.466H36.7627L36.7744 88.4777ZM15.9984 62.92C16.0569 75.5702 26.3455 85.7887 38.9724 85.7185C51.5174 85.6484 61.7475 75.3481 61.6891 62.8381C61.6306 50.1762 51.3537 39.9811 38.7152 40.0513C26.1584 40.1214 15.94 50.3983 15.9984 62.92ZM54.8612 14.1662C55.9719 14.1662 56.8488 14.1662 57.7256 14.1662C59.4794 14.1662 59.8301 14.5169 59.8301 16.2823C59.8301 26.6411 59.8301 37.0115 59.8418 47.3702C59.8418 47.8028 59.9938 48.2471 60.1341 48.668C60.6719 50.2112 61.7826 50.5971 63.3376 50.4334C64.7055 50.2931 66.0851 50.41 67.4647 50.3983C67.7102 50.3983 67.9557 50.3632 68.2948 50.3398V49.2642C68.2948 38.2157 68.2948 27.1555 68.2948 16.107C68.2948 14.5052 68.6572 14.1545 70.2824 14.1545C71.1943 14.1545 72.0946 14.1545 73.2403 14.1545C70.107 10.4599 67.1023 6.92909 64.0508 3.32809C61.011 6.9057 58.0179 10.4366 54.8612 14.1545V14.1662ZM22.8263 32.6505C19.6813 28.956 16.6883 25.4251 13.6484 21.8475C10.5736 25.4719 7.58053 29.0028 4.54072 32.5804C4.76286 32.6271 4.80962 32.6388 4.86808 32.6388C5.73326 32.6388 6.58674 32.6388 7.45192 32.6388C9.0069 32.6388 9.40441 33.0363 9.40441 34.5562C9.40441 39.4901 9.40441 44.4356 9.40441 49.3694C9.40441 49.6734 9.40441 49.9891 9.40441 50.2697C9.56809 50.3282 9.64993 50.3866 9.72008 50.3866C11.8479 50.3866 13.9641 50.3983 16.092 50.3866C16.244 50.3866 16.5012 50.3398 16.548 50.2346C17.0273 49.2525 17.9159 48.5277 17.8925 47.2533C17.8223 43.0092 17.8574 38.7535 17.8691 34.5095C17.8691 33.0831 18.3251 32.6388 19.7047 32.6271C20.6751 32.6271 21.6455 32.6271 22.8263 32.6271V32.6505ZM48.0099 23.3908C44.8649 19.6963 41.8836 16.1771 38.8438 12.5995C35.7923 16.1888 32.7992 19.7197 29.6893 23.3908C30.8233 23.3908 31.7353 23.3908 32.6472 23.3908C34.1788 23.3908 34.5997 23.8 34.5997 25.3199C34.5997 29.0846 34.5997 32.8376 34.5997 36.6023C34.5997 36.9062 34.5997 37.2219 34.5997 37.4324H43.0878C43.0878 37.2219 43.0878 36.9179 43.0878 36.6023C43.0878 32.7791 43.0878 28.9677 43.0878 25.1445C43.0878 23.8351 43.5555 23.3908 44.8532 23.3791C45.8236 23.3791 46.794 23.3791 47.9983 23.3791L48.0099 23.3908Z" fill="white"/>
<path d="M49.0976 50.7133C48.8287 51.2394 48.7 51.5902 48.4896 51.8942C42.8893 59.7041 37.2891 67.5024 31.6888 75.3124C31.0926 76.1425 30.3092 76.3529 29.6311 75.8852C28.9062 75.3942 28.8244 74.5875 29.4557 73.6989C35.056 65.8889 40.6563 58.0907 46.2565 50.2807C46.7008 49.6494 47.2854 49.2519 47.9986 49.5792C48.4428 49.7897 48.7351 50.3158 49.0976 50.7016V50.7133Z" fill="white"/>
<path d="M31.186 47.7568C34.4947 47.7568 37.137 50.4225 37.1253 53.7312C37.1136 56.9815 34.4596 59.6472 31.2094 59.6705C27.9007 59.6939 25.1999 56.9698 25.2233 53.626C25.2467 50.3757 27.9007 47.7568 31.186 47.7568ZM34.3661 53.8131C34.4129 52.0009 33.0449 50.5511 31.2444 50.516C29.479 50.481 28.0293 51.8489 27.9825 53.5909C27.9357 55.3797 29.327 56.8646 31.1041 56.9113C32.8228 56.9581 34.3193 55.5434 34.3661 53.8131Z" fill="white"/>
<path d="M46.5135 77.9904C43.2048 77.9904 40.5508 75.3481 40.5625 72.0394C40.5625 68.7541 43.2633 66.0767 46.5486 66.0884C49.7989 66.1001 52.4529 68.7658 52.4645 72.016C52.4762 75.3247 49.8339 77.9787 46.5252 77.9904H46.5135ZM46.5135 75.2312C48.279 75.2312 49.682 73.8399 49.7053 72.0862C49.717 70.2974 48.279 68.8359 46.5135 68.8476C44.7364 68.8476 43.3101 70.3091 43.3217 72.0979C43.3451 73.8516 44.7481 75.2429 46.5135 75.2312Z" fill="white"/>
</svg>
