<svg width="16" height="92" viewBox="0 0 16 92" fill="none" xmlns="http://www.w3.org/2000/svg">
<path d="M15.4287 34.8819C15.4287 43.7304 15.467 52.5789 15.4032 61.4147C15.3777 64.76 13.2453 67.4541 10.1426 68.4118C7.03989 69.3694 3.57965 68.399 1.89422 65.6155C1.00043 64.1471 0.476921 62.2191 0.451384 60.4826C0.3237 49.157 0.387543 37.8442 0.387543 26.5186C0.387543 20.3259 0.336466 14.1332 0.438613 7.94055C0.502455 4.23771 3.40089 1.23713 7.05265 0.815772C10.6917 0.394415 14.1647 2.69273 15.1351 6.25512C15.4032 7.26382 15.4287 8.34914 15.4287 9.40892C15.4543 17.8999 15.4287 26.3909 15.4287 34.8819Z" fill="white"/>
<path d="M15.4289 83.8357C15.4289 88.0238 12.1091 91.4074 7.94656 91.4202C3.78406 91.433 0.413196 88.0876 0.400427 83.8996C0.387659 79.7116 3.72022 76.3279 7.88272 76.3024C12.0325 76.2769 15.4161 79.6477 15.4289 83.8357Z" fill="white"/>
</svg>
