<svg width="70" height="85" viewBox="0 0 70 85" fill="none" xmlns="http://www.w3.org/2000/svg">
<path d="M1.60007 84.8855C0.937145 84.4681 0.740723 83.8666 0.740723 83.0932C0.752999 59.3014 0.752999 35.4973 0.752999 11.7055C0.752999 10.2446 1.12129 9.86403 2.59447 9.86403C4.91472 9.86403 7.23497 9.86403 9.66571 9.86403C9.66571 9.50801 9.66571 9.21338 9.66571 8.91874C9.66571 6.78263 9.66571 4.6588 9.66571 2.5227C9.66571 1.40554 10.1568 0.926758 11.2739 0.926758C23.6241 0.926758 35.9742 0.926758 48.3243 0.951311C48.8154 0.951311 49.4169 1.19684 49.7607 1.54058C56.1076 7.82613 62.43 14.1485 68.7155 20.4955C69.0715 20.8515 69.3293 21.4898 69.3293 22.0055C69.3662 39.438 69.3539 56.8706 69.3539 74.3032C69.3539 75.5309 68.9242 75.9605 67.6597 75.9605C65.585 75.9605 63.5103 75.9605 61.4356 75.9605C61.1409 75.9605 60.8463 75.9605 60.4535 75.9605C60.4535 76.9058 60.4535 77.7775 60.4535 78.6368C60.4535 80.11 60.4289 81.5832 60.4535 83.0686C60.478 83.8911 60.2448 84.5172 59.4836 84.8855H1.5878H1.60007ZM66.6899 73.2843V23.0981H65.6832C60.1343 23.0981 54.5853 23.0981 49.0363 23.0981C47.5632 23.0981 47.1949 22.7298 47.1949 21.2689C47.1949 15.6708 47.1949 10.0604 47.1949 4.46238C47.1949 4.18002 47.1949 3.88539 47.1949 3.60303H12.3297V73.272H66.6899V73.2843ZM57.8017 75.9605H56.5864C41.6582 75.9605 26.7423 75.9605 11.8141 75.9605C9.97262 75.9605 9.66571 75.6536 9.66571 73.8121C9.66571 53.7524 9.66571 33.6927 9.66571 13.6329V12.5403H3.42927V82.197H57.8017V75.9483V75.9605ZM49.8711 5.45678V20.4095H64.8239C59.8396 15.4253 54.8799 10.4656 49.8711 5.45678Z" fill="white"/>
<path d="M35.0479 32.4055C41.1984 32.4055 47.3367 32.4055 53.4872 32.4055C53.7327 32.4055 53.9782 32.3809 54.2238 32.4178C54.9481 32.516 55.3655 32.9702 55.39 33.6822C55.4146 34.3574 55.0217 34.8117 54.3588 34.9835C54.0764 35.0572 53.7572 35.0326 53.4626 35.0326C41.1493 35.0326 28.8237 35.0326 16.5104 35.0326C16.2404 35.0326 15.958 35.0572 15.7002 34.9958C15.0127 34.8362 14.5953 34.3943 14.6321 33.6577C14.669 32.9211 15.0986 32.516 15.8107 32.4178C16.0562 32.3809 16.3017 32.4178 16.5473 32.4178C22.7223 32.4178 28.8974 32.4178 35.0725 32.4178L35.0479 32.4055Z" fill="white"/>
<path d="M35.0628 41.8682C41.1274 41.8682 47.192 41.8682 53.2566 41.8682C53.4775 41.8682 53.6985 41.8682 53.9072 41.8682C54.8402 41.8927 55.4049 42.3592 55.4295 43.1204C55.4663 43.9061 54.8648 44.4462 53.9195 44.4953C53.7231 44.4953 53.5389 44.4953 53.3425 44.4953C41.1397 44.4953 28.9246 44.4953 16.7218 44.4953C16.3412 44.4953 15.9484 44.4953 15.5801 44.4094C14.9049 44.2375 14.5857 43.7587 14.6348 43.0713C14.6839 42.4206 15.0645 42.0155 15.7151 41.9173C16.0098 41.8682 16.3167 41.8804 16.6113 41.8804C22.7618 41.8804 28.9001 41.8804 35.0506 41.8804L35.0628 41.8682Z" fill="white"/>
<path d="M34.9925 53.924C28.842 53.924 22.7038 53.924 16.5532 53.924C16.2832 53.924 16.0008 53.9363 15.7307 53.8995C15.0801 53.8013 14.6995 53.4084 14.6381 52.7578C14.5767 52.1071 14.8591 51.6283 15.4729 51.4196C15.8044 51.3091 16.1727 51.2969 16.5164 51.2969C28.8297 51.2969 41.1553 51.2969 53.4686 51.2969C53.6282 51.2969 53.8001 51.2969 53.9596 51.2969C54.8436 51.346 55.4328 51.8984 55.4083 52.6473C55.396 53.4084 54.819 53.9118 53.8983 53.9118C49.4787 53.9118 45.0469 53.9118 40.6274 53.9118C38.7368 53.9118 36.8585 53.9118 34.968 53.9118L34.9925 53.924Z" fill="white"/>
<path d="M34.9854 60.7865C41.1605 60.7865 47.3355 60.7865 53.5106 60.7865C53.7561 60.7865 54.0017 60.762 54.2472 60.7988C54.9592 60.9093 55.3889 61.3513 55.4012 62.0633C55.4257 62.7385 55.0206 63.1927 54.37 63.3523C54.1122 63.4137 53.8298 63.3892 53.5597 63.3892C41.2096 63.3892 28.8717 63.3892 16.5216 63.3892C16.227 63.3892 15.9078 63.4137 15.6254 63.3401C14.9748 63.1559 14.6065 62.714 14.631 62.0142C14.6679 61.3144 15.073 60.9216 15.7359 60.7865C15.9692 60.7374 16.227 60.762 16.4725 60.762C22.6476 60.762 28.8226 60.762 34.9977 60.762L34.9854 60.7865Z" fill="white"/>
<path d="M34.7676 16.1123C31.1337 16.1123 27.4999 16.1123 23.8661 16.1123C23.51 16.1123 23.1418 16.1123 22.8226 15.9773C22.2579 15.7563 21.9018 15.253 22.086 14.676C22.221 14.2463 22.6261 13.8535 23.0067 13.5834C23.2277 13.4238 23.6451 13.4974 23.9643 13.4974C31.2074 13.4974 38.4382 13.4974 45.6814 13.4974C45.8164 13.4974 45.9514 13.4974 46.0865 13.4974C47.0072 13.5343 47.5842 14.0253 47.5965 14.7742C47.621 15.5476 47.0195 16.1123 46.0619 16.1123C42.293 16.1246 38.5242 16.1123 34.7553 16.1123H34.7676Z" fill="white"/>
<path d="M34.8469 25.5543C31.2131 25.5543 27.5792 25.5543 23.9454 25.5543C23.6753 25.5543 23.393 25.5666 23.1229 25.5298C22.4845 25.4193 22.1039 25.0265 22.0426 24.3758C21.9935 23.7251 22.2758 23.2464 22.9019 23.0499C23.2088 22.9517 23.5403 22.9395 23.8718 22.9395C31.164 22.9395 38.4685 22.9395 45.7607 22.9395C45.8957 22.9395 46.0308 22.9395 46.1658 22.9395C47.0252 22.9886 47.6267 23.5656 47.6022 24.3021C47.5653 25.0387 47.0129 25.5421 46.1535 25.5543C42.3847 25.5543 38.6158 25.5543 34.8469 25.5543Z" fill="white"/>
</svg>
