<svg width="171" height="36" viewBox="0 0 171 36" fill="none" xmlns="http://www.w3.org/2000/svg">
<path d="M14.3869 15.1938C13.2714 14.7979 11.907 14.4418 10.296 14.1306C8.88172 13.8443 7.88077 13.5729 7.28569 13.3164C6.69309 13.0599 6.39679 12.6591 6.39679 12.1163C6.39679 11.5162 6.69309 11.0232 7.28569 10.6397C7.87828 10.2538 8.65514 10.0621 9.61624 10.0621C10.8313 10.0621 11.9817 10.2887 13.0697 10.7393C14.1578 11.1925 15.0268 11.7577 15.6767 12.435L17.8379 8.75987C15.4924 6.91485 12.7361 5.99109 9.57142 5.99109C7.8484 5.99109 6.34948 6.26498 5.07963 6.81525C3.80728 7.36552 2.83871 8.10751 2.17639 9.04372C1.51159 9.97992 1.18043 10.9983 1.18043 12.0963C1.18043 13.543 1.57633 14.6734 2.36812 15.4901C3.15991 16.3068 4.09113 16.8969 5.16677 17.2579C6.23992 17.619 7.59692 17.9476 9.23528 18.2414C10.6471 18.5427 11.6854 18.8689 12.3502 19.22C13.0125 19.5711 13.3461 20.1139 13.3461 20.8484C13.3461 21.6501 13.0548 22.2875 12.4771 22.7532C11.897 23.2213 11.043 23.4553 9.91254 23.4553C8.69746 23.4553 7.41267 23.1739 6.05567 22.6063C4.69867 22.041 3.62552 21.3912 2.83373 20.6567L0.503174 24.4089C1.57632 25.3775 2.92586 26.1394 4.55177 26.6922C6.17519 27.2449 7.87828 27.5238 9.65857 27.5238C11.4389 27.5238 13.0847 27.24 14.4267 26.6748C15.7688 26.1071 16.7847 25.3227 17.4794 24.3143C18.1716 23.3084 18.5177 22.1805 18.5177 20.933C18.5177 19.3445 18.1068 18.092 17.2876 17.1708C16.4685 16.2495 15.4999 15.5897 14.3844 15.1938H14.3869Z" fill="#47108E"/>
<path d="M36.8714 7.43768C35.2331 6.47408 33.3108 5.99353 31.1073 5.99353C28.9037 5.99353 27.0238 6.47408 25.3855 7.43768C23.7471 8.40127 22.4897 9.70349 21.6133 11.3443C20.7368 12.9877 20.2986 14.7829 20.2986 16.7375C20.2986 18.6921 20.7368 20.5321 21.6133 22.173C22.4897 23.8163 23.7471 25.1185 25.3855 26.0796C27.0238 27.0407 28.9311 27.5238 31.1073 27.5238C33.2835 27.5238 35.2331 27.0432 36.8714 26.0796C38.5098 25.116 39.7672 23.8138 40.6436 22.173C41.5201 20.5321 41.9583 18.7195 41.9583 16.7375C41.9583 14.7555 41.5201 12.9877 40.6436 11.3443C39.7672 9.70349 38.5098 8.40127 36.8714 7.43768ZM34.9417 21.4957C33.9956 22.7755 32.7158 23.4129 31.1048 23.4129C29.4938 23.4129 28.2215 22.773 27.2902 21.4957C26.3565 20.2159 25.8909 18.6298 25.8909 16.735C25.8909 14.8402 26.3565 13.3014 27.2902 12.0241C28.2215 10.7443 29.4938 10.1044 31.1048 10.1044C32.7158 10.1044 33.9931 10.7443 34.9417 12.0241C35.8879 13.3039 36.361 14.8725 36.361 16.735C36.361 18.5974 35.8879 20.2159 34.9417 21.4957Z" fill="#47108E"/>
<path d="M53.2329 20.7439L47.8921 6.50159H42.1279L50.4343 27.8575L49.6724 29.6428C49.4184 30.1956 49.0648 30.5865 48.6117 30.8205C48.1585 31.0521 47.5659 31.1691 46.8314 31.1691C46.2089 31.1691 45.6437 31.0571 45.1357 30.8305L44.3315 35.026C44.6427 35.0982 45.066 35.1579 45.6038 35.2077C46.1417 35.255 46.6073 35.2799 47.0032 35.2799C48.9254 35.2227 50.5214 34.8343 51.7938 34.1147C53.0661 33.3951 54.0546 32.1302 54.7617 30.3225L64.3827 6.50159H58.5763L53.2354 20.7439H53.2329Z" fill="#47108E"/>
<path d="M160.656 6.44421L160.651 6.44686H160.656V6.44421Z" fill="#47108E"/>
<path d="M84.8438 7.36312C83.2827 6.41197 81.4949 5.9364 79.4806 5.9364C77.4662 5.9364 75.6063 6.41944 73.9903 7.38802C72.3719 8.3541 71.1095 9.65633 70.2007 11.2897C69.6654 12.2533 69.2919 13.2791 69.0728 14.3647H74.4684C74.5755 13.2293 75.0535 12.2209 75.9051 11.342C76.7566 10.4631 77.9493 10.0223 79.4806 10.0223C81.099 10.0223 82.3265 10.468 83.1631 11.3619C83.9998 12.2558 84.4604 13.2542 84.5475 14.3647H74.4684L69.1723 19.6608C69.4089 20.6518 69.7724 21.573 70.2654 22.4196C71.2166 24.0555 72.5287 25.3203 74.202 26.2142C75.8752 27.1106 77.7501 27.5588 79.8217 27.5588C81.4675 27.5588 83.0411 27.3222 84.5475 26.8516C86.0514 26.3785 87.2989 25.7113 88.2924 24.8473L85.9095 21.4286C85.2572 22.0536 84.4255 22.5491 83.4196 22.9176C82.4112 23.2861 81.4127 23.4703 80.4193 23.4703C78.7436 23.4703 77.3816 22.9923 76.3333 22.0361C75.2826 21.08 74.6726 19.8824 74.5032 18.4482H89.7863V17.2555C89.7863 15.042 89.3531 13.0775 88.4891 11.3594C87.6226 9.64388 86.41 8.30928 84.8488 7.35814L84.8438 7.36312Z" fill="#47108E"/>
<path d="M111.107 6.44678H105.061L100.848 12.7911L96.5906 6.44678H90.5451L97.3998 16.4512L90.1218 27.0084H96.1225L100.848 20.0691L105.529 27.0084H111.575L104.21 16.4512L111.107 6.44678Z" fill="#47108E"/>
<path d="M129.816 7.21621C128.439 6.36218 126.871 5.9364 125.113 5.9364C123.863 5.9364 122.693 6.2078 121.602 6.74562C120.509 7.28593 119.565 8.05033 118.771 9.04381V6.44683H113.365V34.8393H118.771V24.409C119.595 25.4598 120.544 26.2466 121.625 26.772C122.703 27.2973 123.865 27.5588 125.115 27.5588C126.873 27.5588 128.442 27.133 129.819 26.279C131.196 25.4274 132.274 24.1825 133.053 22.5466C133.833 20.9107 134.223 18.9711 134.223 16.7252C134.223 14.4793 133.833 12.5446 133.053 10.9237C132.274 9.30276 131.193 8.06527 129.819 7.21372L129.816 7.21621ZM127.177 21.578C126.226 22.8155 124.971 23.433 123.41 23.433C122.558 23.433 121.687 23.179 120.793 22.6736C119.899 22.1656 119.224 21.5481 118.771 20.8186V12.6816C119.224 11.952 119.892 11.3345 120.77 10.8266C121.649 10.3186 122.531 10.0647 123.41 10.0647C124.971 10.0647 126.226 10.6822 127.177 11.9197C128.128 13.1571 128.604 14.7581 128.604 16.7252C128.604 18.6922 128.128 20.3405 127.177 21.578Z" fill="#47108E"/>
<path d="M152.608 7.76648C150.933 6.54643 148.776 5.9364 146.137 5.9364C144.461 5.9364 142.853 6.18539 141.307 6.68337C139.76 7.18136 138.376 7.92833 137.156 8.9218L139.2 12.4475C140.961 10.8291 142.96 10.0223 145.203 10.0223C146.565 10.0223 147.658 10.3211 148.48 10.9162C149.304 11.5113 149.715 12.3106 149.715 13.314V16.15C149.035 15.3258 148.127 14.7034 146.991 14.2776C145.856 13.8518 144.593 13.6377 143.204 13.6377C142.011 13.6377 140.876 13.8742 139.798 14.3473C138.72 14.8204 137.826 15.5674 137.116 16.5857C136.407 17.6066 136.053 18.8989 136.053 20.465C136.053 22.0312 136.407 23.2662 137.116 24.3443C137.826 25.4224 138.727 26.2292 139.82 26.7595C140.913 27.2899 142.041 27.5563 143.204 27.5563C144.536 27.5563 145.779 27.3148 146.929 26.8317C148.079 26.3487 149.008 25.6963 149.718 24.8746V27.0035H155.123V13.7273C155.123 10.976 154.287 8.98903 152.611 7.76648H152.608ZM149.713 21.7971C149.287 22.33 148.684 22.7408 147.902 23.0346C147.121 23.3284 146.277 23.4728 145.37 23.4728C144.262 23.4728 143.341 23.2189 142.604 22.7134C141.867 22.208 141.498 21.5158 141.498 20.6368C141.498 19.7579 141.867 19.0209 142.604 18.503C143.341 17.9851 144.265 17.7236 145.37 17.7236C146.279 17.7236 147.123 17.8705 147.902 18.1619C148.682 18.4532 149.287 18.8665 149.713 19.3993V21.7946V21.7971Z" fill="#47108E"/>
<path d="M169.849 22.8351C169.68 23.0044 169.423 23.1489 169.082 23.2609C168.741 23.3754 168.373 23.4302 167.974 23.4302C167.407 23.4302 166.953 23.1937 166.612 22.7181C166.271 22.245 166.102 21.6425 166.102 20.9154V10.5773H170.272V6.44904H166.102V0.993652L160.654 6.44157L160.651 6.44406H157.25V10.5723H160.656V21.7172C160.656 23.6045 161.152 25.0487 162.145 26.0521C163.139 27.053 164.586 27.556 166.488 27.556C168.502 27.556 170.006 27.1775 171 26.4231L169.849 22.8302V22.8351Z" fill="#47108E"/>
</svg>
