<svg width="37" height="37" viewBox="0 0 37 37" fill="none" xmlns="http://www.w3.org/2000/svg">
<path d="M35.7831 15.2519H30.8008L34.6626 11.3901C33.7837 9.28115 32.4889 7.30416 30.7734 5.58861C23.7319 -1.45036 12.3157 -1.45036 5.27674 5.5911C0.9692 9.89864 -0.699039 15.8445 0.264555 21.4244H5.24935L1.3875 25.2863C2.26644 27.3952 3.56119 29.3722 5.27674 31.0853C12.3182 38.1267 23.7319 38.1267 30.7734 31.0853C35.0809 26.7777 36.7492 20.8318 35.7831 15.2519Z" fill="#3C137C"/>
<path d="M28.7641 18.3369C28.7641 24.2679 23.9561 29.0759 18.0251 29.0759C17.9629 29.0759 17.9006 29.0759 17.8409 29.0759C16.6208 29.056 15.4232 28.8319 14.2853 28.4086C13.3068 28.0476 12.3905 27.5446 11.5564 26.9171C11.158 26.6159 10.777 26.2847 10.4259 25.9361C10.4234 25.9336 10.421 25.9311 10.416 25.9262C9.92796 25.4356 9.9429 24.6339 10.4334 24.1459L11.9 22.6793C12.2386 22.3407 12.4278 21.8825 12.4278 21.407C12.4278 19.0142 11.0434 18.4415 9.35279 20.1321L7.1044 22.3805C5.76732 23.7176 5.64531 25.829 6.81557 27.2931L6.83549 27.318C7.16416 27.7264 7.51523 28.1173 7.87876 28.4808C8.24229 28.8443 8.6332 29.1954 9.04155 29.5241C9.87318 30.1939 10.782 30.769 11.7431 31.2346C12.7864 31.7401 13.8919 32.121 15.0273 32.3626C16.0257 32.5742 17.0292 32.6788 18.0251 32.6813C25.9455 32.6788 32.367 26.2573 32.367 18.3369H28.7641Z" fill="#F9F9F9"/>
<path d="M7.29333 18.3368C7.29333 12.4058 12.1013 7.59782 18.0323 7.59782C18.0946 7.59782 18.1568 7.59782 18.2166 7.59782C19.4366 7.61774 20.6343 7.84183 21.7721 8.26511C22.7507 8.62615 23.667 9.12911 24.5011 9.75657C24.8995 10.0578 25.2804 10.389 25.6315 10.7376C25.634 10.7401 25.6365 10.7426 25.6415 10.7476C26.1295 11.2381 26.1145 12.0398 25.624 12.5278L24.1575 13.9944C23.8188 14.333 23.6296 14.7912 23.6296 15.2667C23.6296 17.6595 25.014 18.2322 26.7047 16.5416L28.953 14.2932C30.2901 12.9561 30.4121 10.8447 29.2419 9.38059L29.222 9.3557C28.8933 8.94735 28.5422 8.55643 28.1787 8.19291C27.8152 7.82938 27.4242 7.4783 27.0159 7.14964C26.1843 6.47985 25.2754 5.90468 24.3143 5.43907C23.2711 4.93362 22.1656 4.55266 21.0302 4.31114C20.0317 4.0995 19.0283 3.99492 18.0323 3.99243C10.1119 3.99492 3.69043 10.4164 3.69043 18.3368H7.29333Z" fill="#F9F9F9"/>
</svg>
