<svg viewBox="0 0 1440 1879" fill="none" xmlns="http://www.w3.org/2000/svg"  height="auto" width="1440px">
<g opacity="0.3">
<path d="M21.5725 127.179C25.9814 127.179 30.4411 126.722 34.8669 125.789C39.9032 124.721 44.8039 123.042 49.4333 120.786C53.6895 118.718 57.7084 116.157 61.4051 113.207C63.2026 111.748 64.9491 110.205 66.5601 108.577C68.171 106.966 69.7311 105.237 71.1895 103.422L71.2742 103.304C76.4632 96.8089 75.9205 87.4485 70.0024 81.5304L60.0316 71.5595C52.5364 64.0644 46.398 66.608 46.398 77.2063C46.398 79.326 47.2457 81.3608 48.738 82.8531L55.2326 89.3477C57.4032 91.5182 57.4879 95.0623 55.3174 97.2498L55.2835 97.2837C53.7235 98.8438 52.0447 100.302 50.2811 101.642C46.5844 104.423 42.5147 106.661 38.1906 108.255C33.1373 110.12 27.8297 111.121 22.4204 111.206C22.149 111.206 21.8777 111.206 21.6063 111.206C-4.69437 111.206 -26.0096 89.8903 -26.0096 63.6066H-41.9834C-41.9834 98.7251 -13.5121 127.196 21.6063 127.196L21.5725 127.179Z" fill="#F9F9F9"/>
<path d="M-16.9204 55.6368C-9.42531 63.1319 -3.28682 60.5883 -3.28682 49.99C-3.28682 47.8704 -4.13469 45.8355 -5.62693 44.3432L-12.1215 37.8486C-14.292 35.6781 -14.3769 32.134 -12.2064 29.9465L-12.1724 29.9126C-10.6123 28.3525 -8.93355 26.8942 -7.16999 25.5546C-3.47331 22.7736 0.596439 20.5352 4.92054 18.9413C9.97381 17.076 15.2814 16.0755 20.6908 15.9907C20.9621 15.9907 21.2334 15.9907 21.5047 15.9907C47.8054 15.9907 69.1207 37.306 69.1207 63.5897H85.0944C85.1114 28.4882 56.6402 0 21.5217 0C17.1128 0 12.6531 0.457846 8.22723 1.3905C3.19092 2.4588 -1.70977 4.13757 -6.3391 6.39289C-10.5954 8.46167 -14.6142 11.0222 -18.3109 13.9728C-20.1084 15.4311 -21.855 16.9742 -23.4659 18.6021C-25.0768 20.2131 -26.637 21.9427 -28.0953 23.7571L-28.1801 23.8758C-33.369 30.3705 -32.8264 39.7309 -26.9083 45.649L-16.9374 55.6198L-16.9204 55.6368Z" fill="#F9F9F9"/>
<path d="M199.167 15.9907C199.438 15.9907 199.71 15.9907 199.981 15.9907C205.39 16.0755 210.698 17.076 215.751 18.9413C220.092 20.5352 224.162 22.7736 227.842 25.5546C229.605 26.8942 231.301 28.3525 232.844 29.9126L232.878 29.9465C235.049 32.1171 234.964 35.6781 232.793 37.8486L226.299 44.3432C224.807 45.8355 223.959 47.8704 223.959 49.99C223.959 60.5883 230.097 63.1319 237.592 55.6368L247.563 45.6659C253.481 39.7478 254.041 30.3874 248.835 23.8928L248.75 23.7741C247.292 21.9597 245.732 20.23 244.121 18.6191C242.51 17.0081 240.78 15.4481 238.966 13.9897C235.269 11.0222 231.25 8.46167 226.994 6.40985C222.365 4.17149 217.464 2.47576 212.428 1.40745C208.002 0.474803 203.559 0 199.133 0C164.015 0 135.543 28.4882 135.543 63.5897H151.517C151.517 37.289 172.832 15.9737 199.133 15.9737L199.167 15.9907Z" fill="#F9F9F9"/>
<path d="M199.114 111.206C198.843 111.206 198.572 111.206 198.3 111.206C192.891 111.121 187.583 110.12 182.53 108.255C178.189 106.661 174.119 104.423 170.439 101.642C168.676 100.302 166.98 98.8438 165.437 97.2837L165.403 97.2498C163.233 95.0792 163.317 91.5182 165.488 89.3477L171.983 82.8531C173.475 81.3608 174.323 79.326 174.323 77.2063C174.323 66.608 168.184 64.0644 160.689 71.5595L150.718 81.5304C144.8 87.4485 144.241 96.8089 149.446 103.304L149.531 103.422C150.989 105.237 152.55 106.966 154.161 108.577C155.772 110.188 157.501 111.748 159.316 113.207C163.012 116.174 167.031 118.735 171.287 120.786C175.917 123.025 180.817 124.721 185.854 125.789C190.28 126.722 194.722 127.196 199.148 127.196C234.267 127.196 262.738 98.7081 262.738 63.6066H246.764C246.764 89.9073 225.449 111.223 199.148 111.223L199.114 111.206Z" fill="#F9F9F9"/>
<path d="M376.741 127.179C381.15 127.179 385.61 126.722 390.036 125.789C395.072 124.721 399.973 123.042 404.602 120.786C408.858 118.718 412.877 116.157 416.574 113.207C418.371 111.748 420.118 110.205 421.729 108.577C423.34 106.966 424.9 105.237 426.358 103.422L426.443 103.304C431.632 96.8089 431.089 87.4485 425.171 81.5304L415.2 71.5595C407.705 64.0644 401.567 66.608 401.567 77.2063C401.567 79.326 402.414 81.3608 403.907 82.8531L410.401 89.3477C412.572 91.5182 412.657 95.0623 410.486 97.2498L410.452 97.2837C408.892 98.8438 407.213 100.302 405.45 101.642C401.753 104.423 397.683 106.661 393.359 108.255C388.306 110.12 382.998 111.121 377.589 111.206C377.318 111.206 377.046 111.206 376.775 111.206C350.474 111.206 329.159 89.8903 329.159 63.6066H313.185C313.185 98.7251 341.657 127.196 376.775 127.196L376.741 127.179Z" fill="#F9F9F9"/>
<path d="M338.266 55.6368C345.761 63.1319 351.899 60.5883 351.899 49.99C351.899 47.8704 351.052 45.8355 349.559 44.3432L343.065 37.8486C340.894 35.6781 340.809 32.134 342.98 29.9465L343.014 29.9126C344.574 28.3525 346.253 26.8942 348.016 25.5546C351.713 22.7736 355.783 20.5352 360.107 18.9413C365.16 17.076 370.468 16.0755 375.877 15.9907C376.148 15.9907 376.42 15.9907 376.691 15.9907C402.992 15.9907 424.307 37.306 424.307 63.5897H440.281C440.298 28.4882 411.826 0 376.708 0C372.299 0 367.839 0.457846 363.413 1.3905C358.377 2.4588 353.477 4.13757 348.847 6.39289C344.591 8.46167 340.572 11.0222 336.875 13.9728C335.078 15.4311 333.331 16.9742 331.72 18.6021C330.109 20.2131 328.549 21.9427 327.091 23.7571L327.006 23.8758C321.817 30.3705 322.36 39.7309 328.278 45.649L338.249 55.6198L338.266 55.6368Z" fill="#F9F9F9"/>
<path d="M554.335 15.9907C554.606 15.9907 554.877 15.9907 555.149 15.9907C560.558 16.0755 565.866 17.076 570.919 18.9413C575.26 20.5352 579.33 22.7736 583.01 25.5546C584.773 26.8942 586.469 28.3525 588.012 29.9126L588.046 29.9465C590.216 32.1171 590.132 35.6781 587.961 37.8486L581.466 44.3432C579.974 45.8355 579.126 47.8704 579.126 49.99C579.126 60.5883 585.265 63.1319 592.76 55.6368L602.731 45.6659C608.649 39.7478 609.209 30.3874 604.003 23.8928L603.918 23.7741C602.46 21.9597 600.9 20.23 599.289 18.6191C597.678 17.0081 595.948 15.4481 594.134 13.9897C590.437 11.0222 586.418 8.46167 582.162 6.40985C577.532 4.17149 572.632 2.47576 567.595 1.40745C563.17 0.474803 558.727 0 554.301 0C519.182 0 490.711 28.4882 490.711 63.5897H506.685C506.685 37.289 528 15.9737 554.301 15.9737L554.335 15.9907Z" fill="#F9F9F9"/>
<path d="M554.3 111.206C554.029 111.206 553.758 111.206 553.487 111.206C548.077 111.121 542.77 110.12 537.716 108.255C533.375 106.661 529.306 104.423 525.626 101.642C523.862 100.302 522.166 98.8438 520.623 97.2837L520.589 97.2498C518.419 95.0792 518.504 91.5182 520.674 89.3477L527.169 82.8531C528.661 81.3608 529.509 79.326 529.509 77.2063C529.509 66.608 523.37 64.0644 515.875 71.5595L505.904 81.5304C499.986 87.4485 499.427 96.8089 504.633 103.304L504.717 103.422C506.176 105.237 507.736 106.966 509.347 108.577C510.958 110.188 512.687 111.748 514.502 113.207C518.198 116.174 522.217 118.735 526.474 120.786C531.103 123.025 536.004 124.721 541.04 125.789C545.466 126.722 549.909 127.196 554.334 127.196C589.453 127.196 617.924 98.7081 617.924 63.6066H601.95C601.95 89.9073 580.635 111.223 554.334 111.223L554.3 111.206Z" fill="#F9F9F9"/>
<path d="M731.93 127.179C736.339 127.179 740.799 126.722 745.224 125.789C750.261 124.721 755.161 123.042 759.791 120.786C764.047 118.718 768.066 116.157 771.763 113.207C773.56 111.748 775.307 110.205 776.918 108.577C778.529 106.966 780.089 105.237 781.547 103.422L781.632 103.304C786.821 96.8089 786.278 87.4485 780.36 81.5304L770.389 71.5595C762.894 64.0644 756.755 66.608 756.755 77.2063C756.755 79.326 757.603 81.3608 759.096 82.8531L765.59 89.3477C767.761 91.5182 767.845 95.0623 765.675 97.2498L765.641 97.2837C764.081 98.8438 762.402 100.302 760.639 101.642C756.942 104.423 752.872 106.661 748.548 108.255C743.495 110.12 738.187 111.121 732.778 111.206C732.506 111.206 732.235 111.206 731.964 111.206C705.663 111.206 684.348 89.8903 684.348 63.6066H668.374C668.374 98.7251 696.845 127.196 731.964 127.196L731.93 127.179Z" fill="#F9F9F9"/>
<path d="M693.452 55.6368C700.947 63.1319 707.086 60.5883 707.086 49.99C707.086 47.8704 706.238 45.8355 704.746 44.3432L698.251 37.8486C696.081 35.6781 695.996 32.134 698.166 29.9465L698.2 29.9126C699.76 28.3525 701.439 26.8942 703.203 25.5546C706.899 22.7736 710.969 20.5352 715.293 18.9413C720.346 17.076 725.654 16.0755 731.063 15.9907C731.335 15.9907 731.606 15.9907 731.877 15.9907C758.178 15.9907 779.493 37.306 779.493 63.5897H795.467C795.467 28.4882 767.013 0 731.894 0C727.486 0 723.026 0.457846 718.6 1.3905C713.564 2.4588 708.663 4.13757 704.034 6.39289C699.777 8.46167 695.758 11.0222 692.062 13.9728C690.264 15.4311 688.518 16.9742 686.907 18.6021C685.296 20.2131 683.736 21.9427 682.277 23.7571L682.193 23.8758C677.004 30.3705 677.546 39.7309 683.464 45.649L693.435 55.6198L693.452 55.6368Z" fill="#F9F9F9"/>
<path d="M909.522 15.9907C909.793 15.9907 910.064 15.9907 910.336 15.9907C915.745 16.0755 921.053 17.076 926.106 18.9413C930.447 20.5352 934.517 22.7736 938.196 25.5546C939.96 26.8942 941.656 28.3525 943.199 29.9126L943.233 29.9465C945.403 32.1171 945.318 35.6781 943.148 37.8486L936.653 44.3432C935.161 45.8355 934.313 47.8704 934.313 49.99C934.313 60.5883 940.452 63.1319 947.947 55.6368L957.918 45.6659C963.836 39.7478 964.395 30.3874 959.189 23.8928L959.105 23.7741C957.646 21.9597 956.086 20.23 954.475 18.6191C952.865 17.0081 951.135 15.4481 949.32 13.9897C945.624 11.0222 941.605 8.46167 937.348 6.40985C932.719 4.17149 927.819 2.47576 922.782 1.40745C918.356 0.474803 913.914 0 909.488 0C874.369 0 845.898 28.4882 845.898 63.5897H861.872C861.872 37.289 883.187 15.9737 909.488 15.9737L909.522 15.9907Z" fill="#F9F9F9"/>
<path d="M909.488 111.206C909.217 111.206 908.945 111.206 908.674 111.206C903.265 111.121 897.957 110.12 892.904 108.255C888.563 106.661 884.493 104.423 880.813 101.642C879.05 100.302 877.354 98.8438 875.811 97.2837L875.777 97.2498C873.606 95.0792 873.691 91.5182 875.862 89.3477L882.356 82.8531C883.849 81.3608 884.696 79.326 884.696 77.2063C884.696 66.608 878.558 64.0644 871.063 71.5595L861.092 81.5304C855.174 87.4485 854.614 96.8089 859.82 103.304L859.905 103.422C861.363 105.237 862.923 106.966 864.534 108.577C866.145 110.188 867.875 111.748 869.689 113.207C873.386 116.174 877.405 118.735 881.661 120.786C886.29 123.025 891.191 124.721 896.227 125.789C900.653 126.722 905.096 127.196 909.522 127.196C944.64 127.196 973.112 98.7081 973.112 63.6066H957.138C957.138 89.9073 935.823 111.223 909.522 111.223L909.488 111.206Z" fill="#F9F9F9"/>
<path d="M1087.12 127.179C1091.53 127.179 1095.98 126.722 1100.41 125.789C1105.45 124.721 1110.35 123.042 1114.98 120.786C1119.23 118.718 1123.25 116.157 1126.95 113.207C1128.75 111.748 1130.49 110.205 1132.1 108.577C1133.71 106.966 1135.27 105.237 1136.73 103.422L1136.82 103.304C1142.01 96.8089 1141.46 87.4485 1135.55 81.5304L1125.58 71.5595C1118.08 64.0644 1111.94 66.608 1111.94 77.2063C1111.94 79.326 1112.79 81.3608 1114.28 82.8531L1120.78 89.3477C1122.95 91.5182 1123.03 95.0623 1120.86 97.2498L1120.83 97.2837C1119.27 98.8438 1117.59 100.302 1115.82 101.642C1112.13 104.423 1108.06 106.661 1103.73 108.255C1098.68 110.12 1093.37 111.121 1087.96 111.206C1087.69 111.206 1087.42 111.206 1087.15 111.206C1060.85 111.206 1039.53 89.8903 1039.53 63.6066H1023.56C1023.56 98.7251 1052.03 127.196 1087.15 127.196L1087.12 127.179Z" fill="#F9F9F9"/>
<path d="M1048.62 55.6368C1056.12 63.1319 1062.26 60.5883 1062.26 49.99C1062.26 47.8704 1061.41 45.8355 1059.92 44.3432L1053.42 37.8486C1051.25 35.6781 1051.17 32.134 1053.34 29.9465L1053.37 29.9126C1054.93 28.3525 1056.61 26.8942 1058.37 25.5546C1062.07 22.7736 1066.14 20.5352 1070.46 18.9413C1075.52 17.076 1080.82 16.0755 1086.23 15.9907C1086.5 15.9907 1086.78 15.9907 1087.05 15.9907C1113.35 15.9907 1134.66 37.306 1134.66 63.5897H1150.64C1150.65 28.4882 1122.18 0 1087.06 0C1082.66 0 1078.2 0.457846 1073.77 1.3905C1068.73 2.4588 1063.83 4.13757 1059.2 6.39289C1054.95 8.46167 1050.93 11.0222 1047.23 13.9728C1045.43 15.4311 1043.69 16.9742 1042.08 18.6021C1040.47 20.2131 1038.91 21.9427 1037.45 23.7571L1037.36 23.8758C1032.17 30.3705 1032.72 39.7309 1038.63 45.649L1048.61 55.6198L1048.62 55.6368Z" fill="#F9F9F9"/>
<path d="M1264.71 15.9907C1264.98 15.9907 1265.25 15.9907 1265.52 15.9907C1270.93 16.0755 1276.24 17.076 1281.29 18.9413C1285.63 20.5352 1289.7 22.7736 1293.38 25.5546C1295.15 26.8942 1296.84 28.3525 1298.39 29.9126L1298.42 29.9465C1300.59 32.1171 1300.51 35.6781 1298.34 37.8486L1291.84 44.3432C1290.35 45.8355 1289.5 47.8704 1289.5 49.99C1289.5 60.5883 1295.64 63.1319 1303.13 55.6368L1313.11 45.6659C1319.02 39.7478 1319.58 30.3874 1314.38 23.8928L1314.29 23.7741C1312.83 21.9597 1311.27 20.23 1309.66 18.6191C1308.05 17.0081 1306.32 15.4481 1304.51 13.9897C1300.81 11.0222 1296.79 8.46167 1292.54 6.40985C1287.91 4.17149 1283.01 2.47576 1277.97 1.40745C1273.54 0.474803 1269.1 0 1264.68 0C1229.56 0 1201.09 28.4882 1201.09 63.5897H1217.06C1217.06 37.289 1238.37 15.9737 1264.68 15.9737L1264.71 15.9907Z" fill="#F9F9F9"/>
<path d="M1264.66 111.206C1264.39 111.206 1264.11 111.206 1263.84 111.206C1258.43 111.121 1253.13 110.12 1248.07 108.255C1243.73 106.661 1239.66 104.423 1235.98 101.642C1234.22 100.302 1232.52 98.8438 1230.98 97.2837L1230.95 97.2498C1228.78 95.0792 1228.86 91.5182 1231.03 89.3477L1237.53 82.8531C1239.02 81.3608 1239.87 79.326 1239.87 77.2063C1239.87 66.608 1233.73 64.0644 1226.23 71.5595L1216.26 81.5304C1210.34 87.4485 1209.78 96.8089 1214.99 103.304L1215.07 103.422C1216.53 105.237 1218.09 106.966 1219.7 108.577C1221.31 110.188 1223.04 111.748 1224.86 113.207C1228.56 116.174 1232.57 118.735 1236.83 120.786C1241.46 123.025 1246.36 124.721 1251.4 125.789C1255.82 126.722 1260.27 127.196 1264.69 127.196C1299.81 127.196 1328.28 98.7081 1328.28 63.6066H1312.31C1312.31 89.9073 1290.99 111.223 1264.69 111.223L1264.66 111.206Z" fill="#F9F9F9"/>
<path d="M1442.29 127.179C1446.7 127.179 1451.16 126.722 1455.58 125.789C1460.62 124.721 1465.52 123.042 1470.15 120.786C1474.4 118.718 1478.42 116.157 1482.12 113.207C1483.92 111.748 1485.66 110.205 1487.27 108.577C1488.89 106.966 1490.45 105.237 1491.9 103.422L1491.99 103.304C1497.18 96.8089 1496.63 87.4485 1490.72 81.5304L1480.75 71.5595C1473.25 64.0644 1467.11 66.608 1467.11 77.2063C1467.11 79.326 1467.96 81.3608 1469.45 82.8531L1475.95 89.3477C1478.12 91.5182 1478.2 95.0623 1476.03 97.2498L1476 97.2837C1474.44 98.8438 1472.76 100.302 1471 101.642C1467.3 104.423 1463.23 106.661 1458.9 108.255C1453.85 110.12 1448.54 111.121 1443.13 111.206C1442.86 111.206 1442.59 111.206 1442.32 111.206C1416.02 111.206 1394.7 89.8903 1394.7 63.6066H1378.73C1378.73 98.7251 1407.2 127.196 1442.32 127.196L1442.29 127.179Z" fill="#F9F9F9"/>
<path d="M1403.81 55.6368C1411.3 63.1319 1417.44 60.5883 1417.44 49.99C1417.44 47.8704 1416.59 45.8355 1415.1 44.3432L1408.61 37.8486C1406.44 35.6781 1406.35 32.134 1408.52 29.9465L1408.56 29.9126C1410.12 28.3525 1411.8 26.8942 1413.56 25.5546C1417.26 22.7736 1421.33 20.5352 1425.65 18.9413C1430.7 17.076 1436.01 16.0755 1441.42 15.9907C1441.69 15.9907 1441.96 15.9907 1442.23 15.9907C1468.53 15.9907 1489.85 37.306 1489.85 63.5897H1505.82C1505.84 28.4882 1477.37 0 1442.25 0C1437.84 0 1433.38 0.457846 1428.96 1.3905C1423.92 2.4588 1419.02 4.13757 1414.39 6.39289C1410.13 8.46167 1406.11 11.0222 1402.42 13.9728C1400.62 15.4311 1398.87 16.9742 1397.26 18.6021C1395.65 20.2131 1394.09 21.9427 1392.63 23.7571L1392.55 23.8758C1387.36 30.3705 1387.9 39.7309 1393.82 45.649L1403.79 55.6198L1403.81 55.6368Z" fill="#F9F9F9"/>
<path d="M148.803 230.823C141.308 223.328 135.169 225.871 135.169 236.469C135.169 238.589 136.017 240.624 137.509 242.116L144.004 248.611C146.175 250.781 146.259 254.325 144.089 256.513L144.055 256.547C142.495 258.107 140.816 259.565 139.053 260.905C135.356 263.686 131.286 265.924 126.962 267.518C121.909 269.384 116.601 270.384 111.192 270.469C110.92 270.469 110.649 270.469 110.378 270.469C84.0771 270.469 62.7618 249.154 62.7618 222.87H46.7881C46.7881 257.988 75.2593 286.459 110.378 286.459C114.787 286.459 119.246 286.002 123.672 285.069C128.709 284.001 133.609 282.322 138.239 280.067C142.495 277.998 146.514 275.437 150.21 272.487C152.008 271.028 153.754 269.485 155.365 267.857C156.976 266.246 158.536 264.517 159.995 262.702L160.08 262.584C165.268 256.089 164.726 246.729 158.808 240.811L148.837 230.84L148.803 230.823Z" fill="#F9F9F9"/>
<path d="M71.8856 214.883C79.3807 222.378 85.5192 219.834 85.5192 209.236C85.5192 207.116 84.6714 205.082 83.1791 203.589L76.6846 197.095C74.514 194.924 74.4293 191.38 76.5998 189.193L76.6336 189.159C78.1937 187.599 79.8725 186.14 81.636 184.801C85.3327 182.02 89.4025 179.781 93.7266 178.187C98.7799 176.322 104.087 175.322 109.497 175.237C109.768 175.237 110.039 175.237 110.311 175.237C136.611 175.237 157.927 196.552 157.927 222.836H173.9C173.9 187.717 145.429 159.246 110.311 159.246C105.902 159.246 101.442 159.704 97.0163 160.637C91.98 161.705 87.0793 163.384 82.45 165.639C78.1937 167.708 74.1748 170.268 70.4781 173.219C68.6807 174.677 66.9341 176.22 65.3232 177.848C63.7122 179.459 62.1522 181.189 60.6939 183.003L60.609 183.122C55.4201 189.617 55.9627 198.977 61.8808 204.895L71.8517 214.866L71.8856 214.883Z" fill="#F9F9F9"/>
<path d="M240.34 222.853C240.34 196.552 261.655 175.237 287.956 175.237C288.227 175.237 288.499 175.237 288.77 175.237C294.179 175.322 299.487 176.322 304.54 178.187C308.881 179.781 312.951 182.02 316.631 184.801C318.394 186.14 320.09 187.599 321.633 189.159L321.667 189.193C323.838 191.363 323.753 194.924 321.582 197.095L315.088 203.589C313.595 205.082 312.748 207.116 312.748 209.236C312.748 219.834 318.886 222.378 326.381 214.883L336.352 204.912C342.27 198.994 342.83 189.634 337.624 183.139L337.539 183.02C336.081 181.206 334.521 179.476 332.91 177.865C331.299 176.254 329.569 174.694 327.755 173.236C324.058 170.268 320.039 167.708 315.783 165.656C311.154 163.418 306.253 161.722 301.217 160.654C296.791 159.721 292.348 159.246 287.922 159.246C252.804 159.246 224.333 187.734 224.333 222.836H240.306L240.34 222.853Z" fill="#F9F9F9"/>
<path d="M287.923 270.469C287.651 270.469 287.38 270.469 287.109 270.469C281.699 270.384 276.392 269.384 271.338 267.518C266.997 265.924 262.928 263.686 259.248 260.905C257.484 259.565 255.789 258.107 254.245 256.547L254.212 256.513C252.041 254.342 252.126 250.781 254.296 248.611L260.791 242.116C262.283 240.624 263.131 238.589 263.131 236.469C263.131 225.871 256.993 223.328 249.497 230.823L239.527 240.794C233.608 246.712 233.049 256.072 238.255 262.567L238.34 262.685C239.798 264.5 241.358 266.229 242.969 267.84C244.58 269.451 246.309 271.011 248.124 272.47C251.821 275.437 255.839 277.998 260.096 280.05C264.725 282.288 269.626 283.984 274.662 285.052C279.088 285.985 283.531 286.459 287.956 286.459C323.075 286.459 351.546 257.971 351.546 222.87H335.573C335.573 249.17 314.257 270.486 287.956 270.486L287.923 270.469Z" fill="#F9F9F9"/>
<path d="M503.99 230.823C496.495 223.328 490.356 225.871 490.356 236.469C490.356 238.589 491.204 240.624 492.696 242.116L499.191 248.611C501.362 250.781 501.446 254.325 499.276 256.513L499.242 256.547C497.682 258.107 496.003 259.565 494.24 260.905C490.543 263.686 486.473 265.924 482.149 267.518C477.096 269.384 471.788 270.384 466.379 270.469C466.108 270.469 465.836 270.469 465.565 270.469C439.264 270.469 417.949 249.154 417.949 222.87H401.975C401.975 257.988 430.446 286.459 465.565 286.459C469.974 286.459 474.434 286.002 478.859 285.069C483.896 284.001 488.796 282.322 493.426 280.067C497.682 277.998 501.701 275.437 505.398 272.487C507.195 271.028 508.942 269.485 510.553 267.857C512.163 266.246 513.723 264.517 515.182 262.702L515.267 262.584C520.456 256.089 519.913 246.729 513.995 240.811L504.024 230.84L503.99 230.823Z" fill="#F9F9F9"/>
<path d="M427.056 214.883C434.551 222.378 440.69 219.834 440.69 209.236C440.69 207.116 439.842 205.082 438.349 203.589L431.855 197.095C429.684 194.924 429.599 191.38 431.77 189.193L431.804 189.159C433.364 187.599 435.043 186.14 436.806 184.801C440.503 182.02 444.573 179.781 448.897 178.187C453.95 176.322 459.258 175.322 464.667 175.237C464.938 175.237 465.21 175.237 465.481 175.237C491.782 175.237 513.097 196.552 513.097 222.836H529.071C529.071 187.717 500.6 159.246 465.481 159.246C461.072 159.246 456.612 159.704 452.187 160.637C447.15 161.705 442.25 163.384 437.62 165.639C433.364 167.708 429.345 170.268 425.648 173.219C423.851 174.677 422.104 176.22 420.493 177.848C418.883 179.459 417.322 181.189 415.864 183.003L415.779 183.122C410.59 189.617 411.133 198.977 417.051 204.895L427.022 214.866L427.056 214.883Z" fill="#F9F9F9"/>
<path d="M595.527 222.853C595.527 196.552 616.843 175.237 643.143 175.237C643.415 175.237 643.686 175.237 643.957 175.237C649.367 175.322 654.674 176.322 659.727 178.187C664.068 179.781 668.138 182.02 671.818 184.801C673.581 186.14 675.277 187.599 676.82 189.159L676.854 189.193C679.025 191.363 678.94 194.924 676.77 197.095L670.275 203.589C668.783 205.082 667.935 207.116 667.935 209.236C667.935 219.834 674.073 222.378 681.568 214.883L691.539 204.912C697.457 198.994 698.017 189.634 692.811 183.139L692.726 183.02C691.268 181.206 689.708 179.476 688.097 177.865C686.486 176.254 684.756 174.694 682.942 173.236C679.245 170.268 675.226 167.708 670.97 165.656C666.341 163.418 661.44 161.722 656.404 160.654C651.978 159.721 647.535 159.246 643.109 159.246C607.991 159.246 579.52 187.734 579.52 222.836H595.493L595.527 222.853Z" fill="#F9F9F9"/>
<path d="M643.091 270.469C642.82 270.469 642.549 270.469 642.277 270.469C636.868 270.384 631.56 269.384 626.507 267.518C622.166 265.924 618.096 263.686 614.416 260.905C612.653 259.565 610.957 258.107 609.414 256.547L609.38 256.513C607.21 254.342 607.294 250.781 609.465 248.611L615.959 242.116C617.452 240.624 618.3 238.589 618.3 236.469C618.3 225.871 612.161 223.328 604.666 230.823L594.695 240.794C588.777 246.712 588.217 256.072 593.423 262.567L593.508 262.685C594.966 264.5 596.527 266.229 598.137 267.84C599.748 269.451 601.478 271.011 603.292 272.47C606.989 275.437 611.008 277.998 615.264 280.05C619.894 282.288 624.794 283.984 629.831 285.052C634.256 285.985 638.699 286.459 643.125 286.459C678.244 286.459 706.715 257.971 706.715 222.87H690.741C690.741 249.17 669.426 270.486 643.125 270.486L643.091 270.469Z" fill="#F9F9F9"/>
<path d="M859.179 230.823C851.684 223.328 845.545 225.871 845.545 236.469C845.545 238.589 846.393 240.624 847.885 242.116L854.38 248.611C856.55 250.781 856.635 254.325 854.465 256.513L854.431 256.547C852.871 258.107 851.192 259.565 849.428 260.905C845.732 263.686 841.662 265.924 837.338 267.518C832.284 269.384 826.977 270.384 821.568 270.469C821.296 270.469 821.025 270.469 820.754 270.469C794.453 270.469 773.138 249.154 773.138 222.87H757.164C757.164 257.988 785.635 286.459 820.754 286.459C825.163 286.459 829.622 286.002 834.048 285.069C839.084 284.001 843.985 282.322 848.614 280.067C852.871 277.998 856.89 275.437 860.586 272.487C862.384 271.028 864.13 269.485 865.741 267.857C867.352 266.246 868.912 264.517 870.37 262.702L870.455 262.584C875.644 256.089 875.102 246.729 869.184 240.811L859.213 230.84L859.179 230.823Z" fill="#F9F9F9"/>
<path d="M782.243 214.883C789.738 222.378 795.876 219.834 795.876 209.236C795.876 207.116 795.029 205.082 793.536 203.589L787.042 197.095C784.871 194.924 784.786 191.38 786.957 189.193L786.991 189.159C788.551 187.599 790.23 186.14 791.993 184.801C795.69 182.02 799.76 179.781 804.084 178.187C809.137 176.322 814.445 175.322 819.854 175.237C820.125 175.237 820.397 175.237 820.668 175.237C846.969 175.237 868.284 196.552 868.284 222.836H884.258C884.258 187.717 855.786 159.246 820.668 159.246C816.259 159.246 811.799 159.704 807.373 160.637C802.337 161.705 797.436 163.384 792.807 165.639C788.551 167.708 784.532 170.268 780.835 173.219C779.038 174.677 777.291 176.22 775.68 177.848C774.069 179.459 772.509 181.189 771.051 183.003L770.966 183.122C765.777 189.617 766.32 198.977 772.238 204.895L782.209 214.866L782.243 214.883Z" fill="#F9F9F9"/>
<path d="M950.713 222.853C950.713 196.552 972.029 175.237 998.33 175.237C998.601 175.237 998.872 175.237 999.144 175.237C1004.55 175.322 1009.86 176.322 1014.91 178.187C1019.25 179.781 1023.32 182.02 1027 184.801C1028.77 186.14 1030.46 187.599 1032.01 189.159L1032.04 189.193C1034.21 191.363 1034.13 194.924 1031.96 197.095L1025.46 203.589C1023.97 205.082 1023.12 207.116 1023.12 209.236C1023.12 219.834 1029.26 222.378 1036.75 214.883L1046.73 204.912C1052.64 198.994 1053.2 189.634 1048 183.139L1047.91 183.02C1046.45 181.206 1044.89 179.476 1043.28 177.865C1041.67 176.254 1039.94 174.694 1038.13 173.236C1034.43 170.268 1030.41 167.708 1026.16 165.656C1021.53 163.418 1016.63 161.722 1011.59 160.654C1007.16 159.721 1002.72 159.246 998.296 159.246C963.177 159.246 934.706 187.734 934.706 222.836H950.68L950.713 222.853Z" fill="#F9F9F9"/>
<path d="M998.278 270.469C998.006 270.469 997.735 270.469 997.464 270.469C992.054 270.384 986.747 269.384 981.693 267.518C977.352 265.924 973.283 263.686 969.603 260.905C967.839 259.565 966.144 258.107 964.601 256.547L964.567 256.513C962.396 254.342 962.481 250.781 964.651 248.611L971.146 242.116C972.638 240.624 973.486 238.589 973.486 236.469C973.486 225.871 967.348 223.328 959.852 230.823L949.882 240.794C943.963 246.712 943.404 256.072 948.61 262.567L948.695 262.685C950.153 264.5 951.713 266.229 953.324 267.84C954.935 269.451 956.665 271.011 958.479 272.47C962.176 275.437 966.194 277.998 970.451 280.05C975.08 282.288 979.981 283.984 985.017 285.052C989.443 285.985 993.886 286.459 998.312 286.459C1033.43 286.459 1061.9 257.971 1061.9 222.87H1045.93C1045.93 249.17 1024.61 270.486 998.312 270.486L998.278 270.469Z" fill="#F9F9F9"/>
<path d="M1214.35 230.823C1206.85 223.328 1200.72 225.871 1200.72 236.469C1200.72 238.589 1201.56 240.624 1203.06 242.116L1209.55 248.611C1211.72 250.781 1211.81 254.325 1209.64 256.513L1209.6 256.547C1208.04 258.107 1206.36 259.565 1204.6 260.905C1200.9 263.686 1196.83 265.924 1192.51 267.518C1187.46 269.384 1182.15 270.384 1176.74 270.469C1176.47 270.469 1176.2 270.469 1175.92 270.469C1149.62 270.469 1128.31 249.154 1128.31 222.87H1112.34C1112.34 257.988 1140.81 286.459 1175.92 286.459C1180.33 286.459 1184.79 286.002 1189.22 285.069C1194.26 284.001 1199.16 282.322 1203.79 280.067C1208.04 277.998 1212.06 275.437 1215.76 272.487C1217.55 271.028 1219.3 269.485 1220.91 267.857C1222.52 266.246 1224.08 264.517 1225.54 262.702L1225.63 262.584C1230.82 256.089 1230.27 246.729 1224.35 240.811L1214.38 230.84L1214.35 230.823Z" fill="#F9F9F9"/>
<path d="M1137.43 214.883C1144.92 222.378 1151.06 219.834 1151.06 209.236C1151.06 207.116 1150.21 205.082 1148.72 203.589L1142.23 197.095C1140.06 194.924 1139.97 191.38 1142.14 189.193L1142.18 189.159C1143.74 187.599 1145.42 186.14 1147.18 184.801C1150.88 182.02 1154.95 179.781 1159.27 178.187C1164.32 176.322 1169.63 175.322 1175.04 175.237C1175.31 175.237 1175.58 175.237 1175.85 175.237C1202.15 175.237 1223.47 196.552 1223.47 222.836H1239.44C1239.44 187.717 1210.97 159.246 1175.85 159.246C1171.45 159.246 1166.99 159.704 1162.56 160.637C1157.52 161.705 1152.62 163.384 1147.99 165.639C1143.74 167.708 1139.72 170.268 1136.02 173.219C1134.22 174.677 1132.48 176.22 1130.87 177.848C1129.26 179.459 1127.7 181.189 1126.24 183.003L1126.15 183.122C1120.96 189.617 1121.51 198.977 1127.42 204.895L1137.4 214.866L1137.43 214.883Z" fill="#F9F9F9"/>
<path d="M1305.88 222.853C1305.88 196.552 1327.2 175.237 1353.5 175.237C1353.77 175.237 1354.04 175.237 1354.31 175.237C1359.72 175.322 1365.03 176.322 1370.08 178.187C1374.43 179.781 1378.49 182.02 1382.17 184.801C1383.94 186.14 1385.63 187.599 1387.18 189.159L1387.21 189.193C1389.38 191.363 1389.3 194.924 1387.13 197.095L1380.63 203.589C1379.14 205.082 1378.29 207.116 1378.29 209.236C1378.29 219.834 1384.43 222.378 1391.93 214.883L1401.9 204.912C1407.81 198.994 1408.37 189.634 1403.17 183.139L1403.08 183.02C1401.62 181.206 1400.06 179.476 1398.45 177.865C1396.84 176.254 1395.11 174.694 1393.3 173.236C1389.6 170.268 1385.58 167.708 1381.33 165.656C1376.7 163.418 1371.8 161.722 1366.76 160.654C1362.33 159.721 1357.89 159.246 1353.47 159.246C1318.35 159.246 1289.88 187.734 1289.88 222.836H1305.85L1305.88 222.853Z" fill="#F9F9F9"/>
<path d="M1353.47 270.469C1353.2 270.469 1352.92 270.469 1352.65 270.469C1347.24 270.384 1341.94 269.384 1336.88 267.518C1332.54 265.924 1328.47 263.686 1324.79 260.905C1323.03 259.565 1321.33 258.107 1319.79 256.547L1319.76 256.513C1317.59 254.342 1317.67 250.781 1319.84 248.611L1326.34 242.116C1327.83 240.624 1328.68 238.589 1328.68 236.469C1328.68 225.871 1322.54 223.328 1315.04 230.823L1305.07 240.794C1299.15 246.712 1298.59 256.072 1303.8 262.567L1303.88 262.685C1305.34 264.5 1306.9 266.229 1308.51 267.84C1310.12 269.451 1311.85 271.011 1313.67 272.47C1317.36 275.437 1321.38 277.998 1325.64 280.05C1330.27 282.288 1335.17 283.984 1340.21 285.052C1344.63 285.985 1349.07 286.459 1353.5 286.459C1388.62 286.459 1417.09 257.971 1417.09 222.87H1401.12C1401.12 249.17 1379.8 270.486 1353.5 270.486L1353.47 270.469Z" fill="#F9F9F9"/>
</g>
</svg>
