<svg width="352" height="138" viewBox="0 0 352 138" fill="none" xmlns="http://www.w3.org/2000/svg">
<path d="M16.8164 29.4414C16.8164 28.9987 16.7513 28.6016 16.6211 28.25C16.4909 27.8854 16.25 27.5469 15.8984 27.2344C15.5469 26.9219 15.0391 26.6094 14.375 26.2969C13.724 25.9714 12.8646 25.6328 11.7969 25.2812C10.5469 24.8646 9.34245 24.3958 8.18359 23.875C7.02474 23.3411 5.98958 22.7227 5.07812 22.0195C4.16667 21.3034 3.44401 20.4701 2.91016 19.5195C2.3763 18.556 2.10938 17.4362 2.10938 16.1602C2.10938 14.9362 2.38281 13.8359 2.92969 12.8594C3.47656 11.8698 4.23828 11.0299 5.21484 10.3398C6.20443 9.63672 7.36328 9.10286 8.69141 8.73828C10.0195 8.36068 11.4714 8.17188 13.0469 8.17188C15.1302 8.17188 16.9661 8.53646 18.5547 9.26562C20.1562 9.98177 21.4062 11.0039 22.3047 12.332C23.2161 13.6471 23.6719 15.2031 23.6719 17H16.8555C16.8555 16.2839 16.7057 15.6523 16.4062 15.1055C16.1198 14.5586 15.6836 14.1289 15.0977 13.8164C14.5117 13.5039 13.776 13.3477 12.8906 13.3477C12.0312 13.3477 11.3086 13.4779 10.7227 13.7383C10.1367 13.9987 9.69401 14.3503 9.39453 14.793C9.09505 15.2227 8.94531 15.6979 8.94531 16.2188C8.94531 16.6484 9.0625 17.0391 9.29688 17.3906C9.54427 17.7292 9.88932 18.0482 10.332 18.3477C10.7878 18.6471 11.3346 18.9336 11.9727 19.207C12.6237 19.4805 13.3529 19.7474 14.1602 20.0078C15.6706 20.4896 17.0117 21.0299 18.1836 21.6289C19.3685 22.2148 20.3646 22.8854 21.1719 23.6406C21.9922 24.3828 22.6107 25.2292 23.0273 26.1797C23.457 27.1302 23.6719 28.2044 23.6719 29.4023C23.6719 30.6784 23.4245 31.8112 22.9297 32.8008C22.4349 33.7904 21.7253 34.6302 20.8008 35.3203C19.8763 35.9974 18.7695 36.5117 17.4805 36.8633C16.1914 37.2148 14.7526 37.3906 13.1641 37.3906C11.7057 37.3906 10.2669 37.2083 8.84766 36.8438C7.44141 36.4661 6.16536 35.8932 5.01953 35.125C3.8737 34.3438 2.95573 33.3477 2.26562 32.1367C1.58854 30.9128 1.25 29.4609 1.25 27.7812H8.125C8.125 28.6146 8.23568 29.3177 8.45703 29.8906C8.67839 30.4635 9.00391 30.9258 9.43359 31.2773C9.86328 31.6159 10.3906 31.8633 11.0156 32.0195C11.6406 32.1628 12.3568 32.2344 13.1641 32.2344C14.0365 32.2344 14.7396 32.1107 15.2734 31.8633C15.8073 31.6029 16.1979 31.2643 16.4453 30.8477C16.6927 30.418 16.8164 29.9492 16.8164 29.4414ZM33.5352 19.9297V45.125H26.9531V15.8672H33.0859L33.5352 19.9297ZM46.5039 26.1797V26.5898C46.5039 28.1263 46.3281 29.5521 45.9766 30.8672C45.625 32.1823 45.1042 33.3281 44.4141 34.3047C43.724 35.2812 42.8646 36.043 41.8359 36.5898C40.8203 37.1237 39.6419 37.3906 38.3008 37.3906C37.0378 37.3906 35.9505 37.1107 35.0391 36.5508C34.1276 35.9909 33.3659 35.2161 32.7539 34.2266C32.1419 33.237 31.6471 32.1042 31.2695 30.8281C30.8919 29.5521 30.5924 28.2044 30.3711 26.7852V26.2578C30.5924 24.7344 30.8919 23.3216 31.2695 22.0195C31.6471 20.7044 32.1419 19.5586 32.7539 18.582C33.3659 17.6055 34.1211 16.8438 35.0195 16.2969C35.931 15.75 37.0182 15.4766 38.2812 15.4766C39.6224 15.4766 40.8008 15.7305 41.8164 16.2383C42.8451 16.7461 43.7044 17.4753 44.3945 18.4258C45.0977 19.3633 45.625 20.4896 45.9766 21.8047C46.3281 23.1198 46.5039 24.5781 46.5039 26.1797ZM39.9219 26.5898V26.1797C39.9219 25.3594 39.8633 24.6107 39.7461 23.9336C39.6289 23.2435 39.4401 22.6445 39.1797 22.1367C38.9323 21.6289 38.6003 21.2383 38.1836 20.9648C37.7669 20.6914 37.2526 20.5547 36.6406 20.5547C35.9375 20.5547 35.3451 20.6654 34.8633 20.8867C34.3945 21.0951 34.0169 21.4206 33.7305 21.8633C33.457 22.293 33.2617 22.8333 33.1445 23.4844C33.0404 24.1224 32.9948 24.8711 33.0078 25.7305V27.332C32.9818 28.3216 33.0794 29.194 33.3008 29.9492C33.5221 30.6914 33.9062 31.2708 34.4531 31.6875C35 32.1042 35.7422 32.3125 36.6797 32.3125C37.3047 32.3125 37.8255 32.1693 38.2422 31.8828C38.6589 31.5833 38.9909 31.1732 39.2383 30.6523C39.4857 30.1185 39.6615 29.5065 39.7656 28.8164C39.8698 28.1263 39.9219 27.3841 39.9219 26.5898ZM48.6133 26.6484V26.2383C48.6133 24.6888 48.8346 23.263 49.2773 21.9609C49.7201 20.6458 50.3711 19.5065 51.2305 18.543C52.0898 17.5794 53.151 16.8307 54.4141 16.2969C55.6771 15.75 57.1354 15.4766 58.7891 15.4766C60.4557 15.4766 61.9206 15.75 63.1836 16.2969C64.4596 16.8307 65.5273 17.5794 66.3867 18.543C67.2461 19.5065 67.8971 20.6458 68.3398 21.9609C68.7826 23.263 69.0039 24.6888 69.0039 26.2383V26.6484C69.0039 28.1849 68.7826 29.6107 68.3398 30.9258C67.8971 32.2279 67.2461 33.3672 66.3867 34.3438C65.5273 35.3073 64.4661 36.056 63.2031 36.5898C61.9401 37.1237 60.4818 37.3906 58.8281 37.3906C57.1745 37.3906 55.7096 37.1237 54.4336 36.5898C53.1576 36.056 52.0898 35.3073 51.2305 34.3438C50.3711 33.3672 49.7201 32.2279 49.2773 30.9258C48.8346 29.6107 48.6133 28.1849 48.6133 26.6484ZM55.1953 26.2383V26.6484C55.1953 27.4427 55.2539 28.1849 55.3711 28.875C55.4883 29.5651 55.6836 30.1706 55.957 30.6914C56.2305 31.1992 56.6016 31.5964 57.0703 31.8828C57.5391 32.1693 58.125 32.3125 58.8281 32.3125C59.5182 32.3125 60.0911 32.1693 60.5469 31.8828C61.0156 31.5964 61.3867 31.1992 61.6602 30.6914C61.9336 30.1706 62.1289 29.5651 62.2461 28.875C62.3633 28.1849 62.4219 27.4427 62.4219 26.6484V26.2383C62.4219 25.4701 62.3633 24.7474 62.2461 24.0703C62.1289 23.3802 61.9336 22.7747 61.6602 22.2539C61.3867 21.7201 61.0156 21.3034 60.5469 21.0039C60.0781 20.7044 59.4922 20.5547 58.7891 20.5547C58.099 20.5547 57.5195 20.7044 57.0508 21.0039C56.5951 21.3034 56.2305 21.7201 55.957 22.2539C55.6836 22.7747 55.4883 23.3802 55.3711 24.0703C55.2539 24.7474 55.1953 25.4701 55.1953 26.2383ZM83.0664 15.8672V20.4375H70.332V15.8672H83.0664ZM73.0078 10.6133H79.5898V30.1055C79.5898 30.6654 79.6549 31.1016 79.7852 31.4141C79.9154 31.7135 80.1367 31.9284 80.4492 32.0586C80.7747 32.1758 81.2044 32.2344 81.7383 32.2344C82.1159 32.2344 82.4284 32.2279 82.6758 32.2148C82.9232 32.1888 83.1576 32.1562 83.3789 32.1172V36.8242C82.819 37.0065 82.2331 37.1432 81.6211 37.2344C81.0091 37.3385 80.3581 37.3906 79.668 37.3906C78.2617 37.3906 77.0573 37.1693 76.0547 36.7266C75.0651 36.2839 74.3099 35.5872 73.7891 34.6367C73.2682 33.6862 73.0078 32.4492 73.0078 30.9258V10.6133ZM92.6367 7V37H86.0352V7H92.6367ZM103.652 15.8672V37H97.0508V15.8672H103.652ZM96.6602 10.418C96.6602 9.48047 96.9987 8.71224 97.6758 8.11328C98.3529 7.51432 99.2318 7.21484 100.312 7.21484C101.393 7.21484 102.272 7.51432 102.949 8.11328C103.626 8.71224 103.965 9.48047 103.965 10.418C103.965 11.3555 103.626 12.1237 102.949 12.7227C102.272 13.3216 101.393 13.6211 100.312 13.6211C99.2318 13.6211 98.3529 13.3216 97.6758 12.7227C96.9987 12.1237 96.6602 11.3555 96.6602 10.418ZM120.996 15.8672H126.973V36.1797C126.973 38.1328 126.523 39.7865 125.625 41.1406C124.727 42.5078 123.47 43.543 121.855 44.2461C120.254 44.9622 118.379 45.3203 116.23 45.3203C115.28 45.3203 114.31 45.1966 113.32 44.9492C112.331 44.7148 111.406 44.3633 110.547 43.8945C109.688 43.4258 108.965 42.8464 108.379 42.1562L111.133 38.2891C111.667 38.888 112.337 39.3958 113.145 39.8125C113.952 40.2422 114.902 40.457 115.996 40.457C116.947 40.457 117.741 40.2878 118.379 39.9492C119.03 39.6107 119.525 39.1159 119.863 38.4648C120.202 37.8268 120.371 37.0521 120.371 36.1406V20.8672L120.996 15.8672ZM106.953 26.6875V26.2773C106.953 24.6758 107.148 23.2174 107.539 21.9023C107.943 20.5742 108.516 19.4349 109.258 18.4844C110.013 17.5208 110.924 16.7786 111.992 16.2578C113.06 15.737 114.264 15.4766 115.605 15.4766C117.051 15.4766 118.236 15.7565 119.16 16.3164C120.098 16.8633 120.846 17.6315 121.406 18.6211C121.979 19.6107 122.422 20.7695 122.734 22.0977C123.06 23.4128 123.333 24.832 123.555 26.3555V26.8438C123.333 28.276 123.027 29.6302 122.637 30.9062C122.259 32.1693 121.764 33.2891 121.152 34.2656C120.54 35.2422 119.772 36.0104 118.848 36.5703C117.936 37.1172 116.842 37.3906 115.566 37.3906C114.238 37.3906 113.04 37.1237 111.973 36.5898C110.918 36.056 110.013 35.3073 109.258 34.3438C108.516 33.3802 107.943 32.2474 107.539 30.9453C107.148 29.6432 106.953 28.224 106.953 26.6875ZM113.535 26.2773V26.6875C113.535 27.4818 113.607 28.2174 113.75 28.8945C113.906 29.5716 114.141 30.1706 114.453 30.6914C114.766 31.1992 115.15 31.5964 115.605 31.8828C116.074 32.1693 116.621 32.3125 117.246 32.3125C118.197 32.3125 118.965 32.1107 119.551 31.707C120.137 31.3034 120.56 30.7305 120.82 29.9883C121.081 29.2461 121.191 28.3737 121.152 27.3711V25.8281C121.178 24.9688 121.12 24.2135 120.977 23.5625C120.833 22.8984 120.605 22.3451 120.293 21.9023C119.993 21.4596 119.59 21.1276 119.082 20.9062C118.587 20.6719 117.988 20.5547 117.285 20.5547C116.673 20.5547 116.133 20.6979 115.664 20.9844C115.195 21.2708 114.805 21.6745 114.492 22.1953C114.18 22.7031 113.939 23.3086 113.77 24.0117C113.613 24.7018 113.535 25.457 113.535 26.2773ZM137.207 7V37H130.625V7H137.207ZM136.426 25.7109L134.883 25.75C134.883 24.2656 135.065 22.8984 135.43 21.6484C135.794 20.3984 136.315 19.3112 136.992 18.3867C137.669 17.4622 138.483 16.7461 139.434 16.2383C140.384 15.7305 141.439 15.4766 142.598 15.4766C143.639 15.4766 144.59 15.6263 145.449 15.9258C146.322 16.2253 147.07 16.707 147.695 17.3711C148.333 18.0352 148.822 18.901 149.16 19.9688C149.512 21.0365 149.688 22.3385 149.688 23.875V37H143.066V23.8359C143.066 22.9766 142.943 22.3125 142.695 21.8438C142.461 21.362 142.122 21.0299 141.68 20.8477C141.237 20.6523 140.697 20.5547 140.059 20.5547C139.29 20.5547 138.665 20.6849 138.184 20.9453C137.702 21.2057 137.331 21.5703 137.07 22.0391C136.823 22.4948 136.654 23.0352 136.562 23.6602C136.471 24.2852 136.426 24.9688 136.426 25.7109ZM164.473 15.8672V20.4375H151.738V15.8672H164.473ZM154.414 10.6133H160.996V30.1055C160.996 30.6654 161.061 31.1016 161.191 31.4141C161.322 31.7135 161.543 31.9284 161.855 32.0586C162.181 32.1758 162.611 32.2344 163.145 32.2344C163.522 32.2344 163.835 32.2279 164.082 32.2148C164.329 32.1888 164.564 32.1562 164.785 32.1172V36.8242C164.225 37.0065 163.639 37.1432 163.027 37.2344C162.415 37.3385 161.764 37.3906 161.074 37.3906C159.668 37.3906 158.464 37.1693 157.461 36.7266C156.471 36.2839 155.716 35.5872 155.195 34.6367C154.674 33.6862 154.414 32.4492 154.414 30.9258V10.6133ZM167.539 33.9141C167.539 32.9766 167.878 32.1953 168.555 31.5703C169.232 30.9323 170.104 30.6133 171.172 30.6133C172.253 30.6133 173.125 30.9323 173.789 31.5703C174.466 32.1953 174.805 32.9766 174.805 33.9141C174.805 34.8516 174.466 35.6393 173.789 36.2773C173.125 36.9023 172.253 37.2148 171.172 37.2148C170.104 37.2148 169.232 36.9023 168.555 36.2773C167.878 35.6393 167.539 34.8516 167.539 33.9141ZM167.539 18.3281C167.539 17.3906 167.878 16.6094 168.555 15.9844C169.232 15.3464 170.104 15.0273 171.172 15.0273C172.253 15.0273 173.125 15.3464 173.789 15.9844C174.466 16.6094 174.805 17.3906 174.805 18.3281C174.805 19.2656 174.466 20.0534 173.789 20.6914C173.125 21.3164 172.253 21.6289 171.172 21.6289C170.104 21.6289 169.232 21.3164 168.555 20.6914C167.878 20.0534 167.539 19.2656 167.539 18.3281ZM11.4062 83H5.09766L5.13672 77.7266H11.4062C12.7083 77.7266 13.8086 77.4141 14.707 76.7891C15.6185 76.1641 16.3086 75.2331 16.7773 73.9961C17.2591 72.7461 17.5 71.2096 17.5 69.3867V68.1562C17.5 66.7891 17.3633 65.5911 17.0898 64.5625C16.8294 63.5208 16.4388 62.6549 15.918 61.9648C15.3971 61.2617 14.7461 60.7344 13.9648 60.3828C13.1966 60.0312 12.3112 59.8555 11.3086 59.8555H4.98047V54.5625H11.3086C13.2357 54.5625 15 54.8945 16.6016 55.5586C18.2161 56.2096 19.6094 57.1471 20.7812 58.3711C21.9661 59.582 22.8776 61.0208 23.5156 62.6875C24.1667 64.3411 24.4922 66.1771 24.4922 68.1953V69.3867C24.4922 71.3919 24.1667 73.2279 23.5156 74.8945C22.8776 76.5612 21.9727 78 20.8008 79.2109C19.6289 80.4219 18.2422 81.3594 16.6406 82.0234C15.0521 82.6745 13.3073 83 11.4062 83ZM9.02344 54.5625V83H2.16797V54.5625H9.02344ZM37.9883 83.3906C36.2695 83.3906 34.7331 83.1237 33.3789 82.5898C32.0247 82.043 30.8789 81.2943 29.9414 80.3438C29.0169 79.3932 28.3073 78.2995 27.8125 77.0625C27.3307 75.8255 27.0898 74.5169 27.0898 73.1367V72.3945C27.0898 70.8451 27.3047 69.4128 27.7344 68.0977C28.1641 66.7695 28.8021 65.6107 29.6484 64.6211C30.4948 63.6315 31.556 62.8633 32.832 62.3164C34.1081 61.7565 35.5924 61.4766 37.2852 61.4766C38.7826 61.4766 40.1237 61.7174 41.3086 62.1992C42.4935 62.681 43.4961 63.3711 44.3164 64.2695C45.1497 65.168 45.7812 66.2552 46.2109 67.5312C46.6536 68.8073 46.875 70.2396 46.875 71.8281V74.5039H29.6094V70.3828H40.4492V69.875C40.4622 69.1719 40.3385 68.5729 40.0781 68.0781C39.8307 67.5833 39.4661 67.2057 38.9844 66.9453C38.5026 66.6849 37.9167 66.5547 37.2266 66.5547C36.5104 66.5547 35.918 66.7109 35.4492 67.0234C34.9935 67.3359 34.6354 67.7656 34.375 68.3125C34.1276 68.8464 33.9518 69.4648 33.8477 70.168C33.7435 70.8711 33.6914 71.6133 33.6914 72.3945V73.1367C33.6914 73.918 33.7956 74.6276 34.0039 75.2656C34.2253 75.9036 34.5378 76.4505 34.9414 76.9062C35.3581 77.349 35.8529 77.694 36.4258 77.9414C37.0117 78.1888 37.6758 78.3125 38.418 78.3125C39.3164 78.3125 40.2018 78.1432 41.0742 77.8047C41.9466 77.4661 42.6953 76.9062 43.3203 76.125L46.3086 79.6797C45.8789 80.2917 45.2669 80.8841 44.4727 81.457C43.6914 82.0299 42.7539 82.4987 41.6602 82.8633C40.5664 83.2148 39.3424 83.3906 37.9883 83.3906ZM60.625 77.0625C60.625 76.6979 60.5013 76.3854 60.2539 76.125C60.0195 75.8516 59.6029 75.6042 59.0039 75.3828C58.4049 75.1484 57.5651 74.9141 56.4844 74.6797C55.4557 74.4583 54.4857 74.1654 53.5742 73.8008C52.6758 73.4362 51.888 72.9935 51.2109 72.4727C50.5339 71.9518 50 71.3333 49.6094 70.6172C49.2318 69.901 49.043 69.0807 49.043 68.1562C49.043 67.2578 49.2318 66.4115 49.6094 65.6172C50 64.8099 50.5664 64.1003 51.3086 63.4883C52.0638 62.8633 52.9818 62.375 54.0625 62.0234C55.1432 61.6589 56.3737 61.4766 57.7539 61.4766C59.6549 61.4766 61.2956 61.7695 62.6758 62.3555C64.056 62.9284 65.1172 63.7357 65.8594 64.7773C66.6146 65.806 66.9922 66.9974 66.9922 68.3516H60.4102C60.4102 67.8177 60.319 67.362 60.1367 66.9844C59.9674 66.6068 59.6875 66.3203 59.2969 66.125C58.9062 65.9167 58.3854 65.8125 57.7344 65.8125C57.2786 65.8125 56.862 65.8971 56.4844 66.0664C56.1198 66.2357 55.8268 66.4701 55.6055 66.7695C55.3841 67.069 55.2734 67.4206 55.2734 67.8242C55.2734 68.1107 55.3385 68.3711 55.4688 68.6055C55.612 68.8268 55.8268 69.0352 56.1133 69.2305C56.3997 69.4128 56.7643 69.582 57.207 69.7383C57.6497 69.8815 58.1836 70.0117 58.8086 70.1289C60.2279 70.3893 61.556 70.7604 62.793 71.2422C64.0299 71.724 65.0326 72.4076 65.8008 73.293C66.582 74.1784 66.9727 75.3698 66.9727 76.8672C66.9727 77.8047 66.7578 78.6706 66.3281 79.4648C65.8984 80.2461 65.2799 80.9362 64.4727 81.5352C63.6654 82.1211 62.6953 82.5768 61.5625 82.9023C60.4297 83.2279 59.1536 83.3906 57.7344 83.3906C55.7161 83.3906 54.0104 83.0326 52.6172 82.3164C51.224 81.5872 50.1693 80.6758 49.4531 79.582C48.75 78.4753 48.3984 77.3555 48.3984 76.2227H54.5312C54.5573 76.8737 54.7135 77.4076 55 77.8242C55.2995 78.2409 55.6966 78.5469 56.1914 78.7422C56.6862 78.9375 57.2591 79.0352 57.9102 79.0352C58.5091 79.0352 59.0039 78.9505 59.3945 78.7812C59.7982 78.612 60.1042 78.3841 60.3125 78.0977C60.5208 77.7982 60.625 77.4531 60.625 77.0625ZM81.0352 77.6875V68.9766C81.0352 68.3776 80.9505 67.8633 80.7812 67.4336C80.612 67.0039 80.3451 66.6719 79.9805 66.4375C79.6159 66.1901 79.1276 66.0664 78.5156 66.0664C78.0208 66.0664 77.5977 66.151 77.2461 66.3203C76.8945 66.4896 76.6276 66.7435 76.4453 67.082C76.263 67.4206 76.1719 67.8503 76.1719 68.3711H69.5898C69.5898 67.3945 69.8047 66.4896 70.2344 65.6562C70.6771 64.8099 71.3021 64.0742 72.1094 63.4492C72.9297 62.8242 73.9062 62.3424 75.0391 62.0039C76.1849 61.6523 77.4609 61.4766 78.8672 61.4766C80.5469 61.4766 82.0443 61.7565 83.3594 62.3164C84.6875 62.8763 85.7357 63.7161 86.5039 64.8359C87.2721 65.9427 87.6562 67.3359 87.6562 69.0156V77.668C87.6562 79.0482 87.7344 80.0964 87.8906 80.8125C88.0469 81.5156 88.2682 82.1341 88.5547 82.668V83H81.9531C81.6406 82.349 81.4062 81.5547 81.25 80.6172C81.1068 79.6667 81.0352 78.6901 81.0352 77.6875ZM81.8359 70.0898L81.875 73.6055H78.9648C78.3529 73.6055 77.832 73.6901 77.4023 73.8594C76.9857 74.0286 76.6471 74.263 76.3867 74.5625C76.1393 74.849 75.957 75.1745 75.8398 75.5391C75.7357 75.9036 75.6836 76.2878 75.6836 76.6914C75.6836 77.082 75.7747 77.4336 75.957 77.7461C76.1523 78.0456 76.4128 78.2799 76.7383 78.4492C77.0638 78.6185 77.4284 78.7031 77.832 78.7031C78.5612 78.7031 79.1797 78.5664 79.6875 78.293C80.2083 78.0065 80.6055 77.6615 80.8789 77.2578C81.1523 76.8542 81.2891 76.4766 81.2891 76.125L82.7344 78.8203C82.474 79.3411 82.1745 79.8685 81.8359 80.4023C81.5104 80.9362 81.1003 81.431 80.6055 81.8867C80.1237 82.3294 79.5312 82.694 78.8281 82.9805C78.125 83.2539 77.2721 83.3906 76.2695 83.3906C74.9674 83.3906 73.7695 83.1237 72.6758 82.5898C71.5951 82.056 70.7292 81.3138 70.0781 80.3633C69.4271 79.3997 69.1016 78.293 69.1016 77.043C69.1016 75.9492 69.2969 74.9727 69.6875 74.1133C70.0911 73.2539 70.6966 72.5247 71.5039 71.9258C72.3112 71.3268 73.3398 70.8711 74.5898 70.5586C75.8398 70.2461 77.3112 70.0898 79.0039 70.0898H81.8359ZM97.9492 67.1016V83H91.3672V61.8672H97.5195L97.9492 67.1016ZM104.199 61.7109L104.082 67.8242C103.822 67.7982 103.47 67.7656 103.027 67.7266C102.585 67.6875 102.214 67.668 101.914 67.668C101.146 67.668 100.482 67.7591 99.9219 67.9414C99.375 68.1107 98.9193 68.3711 98.5547 68.7227C98.2031 69.0612 97.9427 69.4909 97.7734 70.0117C97.6172 70.5326 97.5456 71.138 97.5586 71.8281L96.3672 71.0469C96.3672 69.6276 96.5039 68.3385 96.7773 67.1797C97.0638 66.0078 97.4674 64.9987 97.9883 64.1523C98.5091 63.293 99.1406 62.6354 99.8828 62.1797C100.625 61.7109 101.458 61.4766 102.383 61.4766C102.708 61.4766 103.027 61.4961 103.34 61.5352C103.665 61.5742 103.952 61.6328 104.199 61.7109ZM113.105 67.1016V83H106.523V61.8672H112.676L113.105 67.1016ZM119.355 61.7109L119.238 67.8242C118.978 67.7982 118.626 67.7656 118.184 67.7266C117.741 67.6875 117.37 67.668 117.07 67.668C116.302 67.668 115.638 67.7591 115.078 67.9414C114.531 68.1107 114.076 68.3711 113.711 68.7227C113.359 69.0612 113.099 69.4909 112.93 70.0117C112.773 70.5326 112.702 71.138 112.715 71.8281L111.523 71.0469C111.523 69.6276 111.66 68.3385 111.934 67.1797C112.22 66.0078 112.624 64.9987 113.145 64.1523C113.665 63.293 114.297 62.6354 115.039 62.1797C115.781 61.7109 116.615 61.4766 117.539 61.4766C117.865 61.4766 118.184 61.4961 118.496 61.5352C118.822 61.5742 119.108 61.6328 119.355 61.7109ZM120.098 72.6484V72.2383C120.098 70.6888 120.319 69.263 120.762 67.9609C121.204 66.6458 121.855 65.5065 122.715 64.543C123.574 63.5794 124.635 62.8307 125.898 62.2969C127.161 61.75 128.62 61.4766 130.273 61.4766C131.94 61.4766 133.405 61.75 134.668 62.2969C135.944 62.8307 137.012 63.5794 137.871 64.543C138.73 65.5065 139.382 66.6458 139.824 67.9609C140.267 69.263 140.488 70.6888 140.488 72.2383V72.6484C140.488 74.1849 140.267 75.6107 139.824 76.9258C139.382 78.2279 138.73 79.3672 137.871 80.3438C137.012 81.3073 135.951 82.056 134.688 82.5898C133.424 83.1237 131.966 83.3906 130.312 83.3906C128.659 83.3906 127.194 83.1237 125.918 82.5898C124.642 82.056 123.574 81.3073 122.715 80.3438C121.855 79.3672 121.204 78.2279 120.762 76.9258C120.319 75.6107 120.098 74.1849 120.098 72.6484ZM126.68 72.2383V72.6484C126.68 73.4427 126.738 74.1849 126.855 74.875C126.973 75.5651 127.168 76.1706 127.441 76.6914C127.715 77.1992 128.086 77.5964 128.555 77.8828C129.023 78.1693 129.609 78.3125 130.312 78.3125C131.003 78.3125 131.576 78.1693 132.031 77.8828C132.5 77.5964 132.871 77.1992 133.145 76.6914C133.418 76.1706 133.613 75.5651 133.73 74.875C133.848 74.1849 133.906 73.4427 133.906 72.6484V72.2383C133.906 71.4701 133.848 70.7474 133.73 70.0703C133.613 69.3802 133.418 68.7747 133.145 68.2539C132.871 67.7201 132.5 67.3034 132.031 67.0039C131.562 66.7044 130.977 66.5547 130.273 66.5547C129.583 66.5547 129.004 66.7044 128.535 67.0039C128.079 67.3034 127.715 67.7201 127.441 68.2539C127.168 68.7747 126.973 69.3802 126.855 70.0703C126.738 70.7474 126.68 71.4701 126.68 72.2383ZM150.371 53V83H143.77V53H150.371ZM161.387 53V83H154.785V53H161.387ZM176.426 77.6875V68.9766C176.426 68.3776 176.341 67.8633 176.172 67.4336C176.003 67.0039 175.736 66.6719 175.371 66.4375C175.007 66.1901 174.518 66.0664 173.906 66.0664C173.411 66.0664 172.988 66.151 172.637 66.3203C172.285 66.4896 172.018 66.7435 171.836 67.082C171.654 67.4206 171.562 67.8503 171.562 68.3711H164.98C164.98 67.3945 165.195 66.4896 165.625 65.6562C166.068 64.8099 166.693 64.0742 167.5 63.4492C168.32 62.8242 169.297 62.3424 170.43 62.0039C171.576 61.6523 172.852 61.4766 174.258 61.4766C175.938 61.4766 177.435 61.7565 178.75 62.3164C180.078 62.8763 181.126 63.7161 181.895 64.8359C182.663 65.9427 183.047 67.3359 183.047 69.0156V77.668C183.047 79.0482 183.125 80.0964 183.281 80.8125C183.438 81.5156 183.659 82.1341 183.945 82.668V83H177.344C177.031 82.349 176.797 81.5547 176.641 80.6172C176.497 79.6667 176.426 78.6901 176.426 77.6875ZM177.227 70.0898L177.266 73.6055H174.355C173.743 73.6055 173.223 73.6901 172.793 73.8594C172.376 74.0286 172.038 74.263 171.777 74.5625C171.53 74.849 171.348 75.1745 171.23 75.5391C171.126 75.9036 171.074 76.2878 171.074 76.6914C171.074 77.082 171.165 77.4336 171.348 77.7461C171.543 78.0456 171.803 78.2799 172.129 78.4492C172.454 78.6185 172.819 78.7031 173.223 78.7031C173.952 78.7031 174.57 78.5664 175.078 78.293C175.599 78.0065 175.996 77.6615 176.27 77.2578C176.543 76.8542 176.68 76.4766 176.68 76.125L178.125 78.8203C177.865 79.3411 177.565 79.8685 177.227 80.4023C176.901 80.9362 176.491 81.431 175.996 81.8867C175.514 82.3294 174.922 82.694 174.219 82.9805C173.516 83.2539 172.663 83.3906 171.66 83.3906C170.358 83.3906 169.16 83.1237 168.066 82.5898C166.986 82.056 166.12 81.3138 165.469 80.3633C164.818 79.3997 164.492 78.293 164.492 77.043C164.492 75.9492 164.688 74.9727 165.078 74.1133C165.482 73.2539 166.087 72.5247 166.895 71.9258C167.702 71.3268 168.73 70.8711 169.98 70.5586C171.23 70.2461 172.702 70.0898 174.395 70.0898H177.227ZM207.793 61.8672V66.4375H195.059V61.8672H207.793ZM197.734 56.6133H204.316V76.1055C204.316 76.6654 204.382 77.1016 204.512 77.4141C204.642 77.7135 204.863 77.9284 205.176 78.0586C205.501 78.1758 205.931 78.2344 206.465 78.2344C206.842 78.2344 207.155 78.2279 207.402 78.2148C207.65 78.1888 207.884 78.1562 208.105 78.1172V82.8242C207.546 83.0065 206.96 83.1432 206.348 83.2344C205.736 83.3385 205.085 83.3906 204.395 83.3906C202.988 83.3906 201.784 83.1693 200.781 82.7266C199.792 82.2839 199.036 81.5872 198.516 80.6367C197.995 79.6862 197.734 78.4492 197.734 76.9258V56.6133ZM222.754 77.8633V61.8672H229.355V83H223.184L222.754 77.8633ZM223.379 73.5664L225.098 73.5273C225.098 74.9466 224.928 76.2617 224.59 77.4727C224.251 78.6706 223.75 79.7122 223.086 80.5977C222.435 81.4831 221.628 82.1732 220.664 82.668C219.714 83.1497 218.613 83.3906 217.363 83.3906C216.322 83.3906 215.365 83.2474 214.492 82.9609C213.633 82.6615 212.891 82.1992 212.266 81.5742C211.641 80.9362 211.152 80.1224 210.801 79.1328C210.462 78.1302 210.293 76.9323 210.293 75.5391V61.8672H216.875V75.5781C216.875 76.0469 216.934 76.4505 217.051 76.7891C217.168 77.1276 217.337 77.4141 217.559 77.6484C217.78 77.8698 218.053 78.0391 218.379 78.1562C218.717 78.2604 219.102 78.3125 219.531 78.3125C220.521 78.3125 221.296 78.1042 221.855 77.6875C222.415 77.2708 222.806 76.7044 223.027 75.9883C223.262 75.2721 223.379 74.4648 223.379 73.5664ZM251.016 83H244.395V60.1484C244.395 58.5078 244.727 57.1276 245.391 56.0078C246.055 54.888 246.992 54.0417 248.203 53.4688C249.414 52.8828 250.846 52.5898 252.5 52.5898C253.073 52.5898 253.613 52.6289 254.121 52.707C254.629 52.7852 255.124 52.8828 255.605 53L255.625 57.8438C255.391 57.7786 255.15 57.7331 254.902 57.707C254.655 57.681 254.349 57.668 253.984 57.668C253.346 57.668 252.806 57.7656 252.363 57.9609C251.921 58.1432 251.582 58.4232 251.348 58.8008C251.126 59.1654 251.016 59.6146 251.016 60.1484V83ZM255.117 61.8672V66.4375H241.348V61.8672H255.117ZM269.824 77.8633V61.8672H276.426V83H270.254L269.824 77.8633ZM270.449 73.5664L272.168 73.5273C272.168 74.9466 271.999 76.2617 271.66 77.4727C271.322 78.6706 270.82 79.7122 270.156 80.5977C269.505 81.4831 268.698 82.1732 267.734 82.668C266.784 83.1497 265.684 83.3906 264.434 83.3906C263.392 83.3906 262.435 83.2474 261.562 82.9609C260.703 82.6615 259.961 82.1992 259.336 81.5742C258.711 80.9362 258.223 80.1224 257.871 79.1328C257.533 78.1302 257.363 76.9323 257.363 75.5391V61.8672H263.945V75.5781C263.945 76.0469 264.004 76.4505 264.121 76.7891C264.238 77.1276 264.408 77.4141 264.629 77.6484C264.85 77.8698 265.124 78.0391 265.449 78.1562C265.788 78.2604 266.172 78.3125 266.602 78.3125C267.591 78.3125 268.366 78.1042 268.926 77.6875C269.486 77.2708 269.876 76.7044 270.098 75.9883C270.332 75.2721 270.449 74.4648 270.449 73.5664ZM291.191 61.8672V66.4375H278.457V61.8672H291.191ZM281.133 56.6133H287.715V76.1055C287.715 76.6654 287.78 77.1016 287.91 77.4141C288.04 77.7135 288.262 77.9284 288.574 78.0586C288.9 78.1758 289.329 78.2344 289.863 78.2344C290.241 78.2344 290.553 78.2279 290.801 78.2148C291.048 78.1888 291.283 78.1562 291.504 78.1172V82.8242C290.944 83.0065 290.358 83.1432 289.746 83.2344C289.134 83.3385 288.483 83.3906 287.793 83.3906C286.387 83.3906 285.182 83.1693 284.18 82.7266C283.19 82.2839 282.435 81.5872 281.914 80.6367C281.393 79.6862 281.133 78.4492 281.133 76.9258V56.6133ZM306.152 77.8633V61.8672H312.754V83H306.582L306.152 77.8633ZM306.777 73.5664L308.496 73.5273C308.496 74.9466 308.327 76.2617 307.988 77.4727C307.65 78.6706 307.148 79.7122 306.484 80.5977C305.833 81.4831 305.026 82.1732 304.062 82.668C303.112 83.1497 302.012 83.3906 300.762 83.3906C299.72 83.3906 298.763 83.2474 297.891 82.9609C297.031 82.6615 296.289 82.1992 295.664 81.5742C295.039 80.9362 294.551 80.1224 294.199 79.1328C293.861 78.1302 293.691 76.9323 293.691 75.5391V61.8672H300.273V75.5781C300.273 76.0469 300.332 76.4505 300.449 76.7891C300.566 77.1276 300.736 77.4141 300.957 77.6484C301.178 77.8698 301.452 78.0391 301.777 78.1562C302.116 78.2604 302.5 78.3125 302.93 78.3125C303.919 78.3125 304.694 78.1042 305.254 77.6875C305.814 77.2708 306.204 76.7044 306.426 75.9883C306.66 75.2721 306.777 74.4648 306.777 73.5664ZM323.027 67.1016V83H316.445V61.8672H322.598L323.027 67.1016ZM329.277 61.7109L329.16 67.8242C328.9 67.7982 328.548 67.7656 328.105 67.7266C327.663 67.6875 327.292 67.668 326.992 67.668C326.224 67.668 325.56 67.7591 325 67.9414C324.453 68.1107 323.997 68.3711 323.633 68.7227C323.281 69.0612 323.021 69.4909 322.852 70.0117C322.695 70.5326 322.624 71.138 322.637 71.8281L321.445 71.0469C321.445 69.6276 321.582 68.3385 321.855 67.1797C322.142 66.0078 322.546 64.9987 323.066 64.1523C323.587 63.293 324.219 62.6354 324.961 62.1797C325.703 61.7109 326.536 61.4766 327.461 61.4766C327.786 61.4766 328.105 61.4961 328.418 61.5352C328.743 61.5742 329.03 61.6328 329.277 61.7109ZM330.02 72.6484V72.2383C330.02 70.6888 330.241 69.263 330.684 67.9609C331.126 66.6458 331.777 65.5065 332.637 64.543C333.496 63.5794 334.557 62.8307 335.82 62.2969C337.083 61.75 338.542 61.4766 340.195 61.4766C341.862 61.4766 343.327 61.75 344.59 62.2969C345.866 62.8307 346.934 63.5794 347.793 64.543C348.652 65.5065 349.303 66.6458 349.746 67.9609C350.189 69.263 350.41 70.6888 350.41 72.2383V72.6484C350.41 74.1849 350.189 75.6107 349.746 76.9258C349.303 78.2279 348.652 79.3672 347.793 80.3438C346.934 81.3073 345.872 82.056 344.609 82.5898C343.346 83.1237 341.888 83.3906 340.234 83.3906C338.581 83.3906 337.116 83.1237 335.84 82.5898C334.564 82.056 333.496 81.3073 332.637 80.3438C331.777 79.3672 331.126 78.2279 330.684 76.9258C330.241 75.6107 330.02 74.1849 330.02 72.6484ZM336.602 72.2383V72.6484C336.602 73.4427 336.66 74.1849 336.777 74.875C336.895 75.5651 337.09 76.1706 337.363 76.6914C337.637 77.1992 338.008 77.5964 338.477 77.8828C338.945 78.1693 339.531 78.3125 340.234 78.3125C340.924 78.3125 341.497 78.1693 341.953 77.8828C342.422 77.5964 342.793 77.1992 343.066 76.6914C343.34 76.1706 343.535 75.5651 343.652 74.875C343.77 74.1849 343.828 73.4427 343.828 72.6484V72.2383C343.828 71.4701 343.77 70.7474 343.652 70.0703C343.535 69.3802 343.34 68.7747 343.066 68.2539C342.793 67.7201 342.422 67.3034 341.953 67.0039C341.484 66.7044 340.898 66.5547 340.195 66.5547C339.505 66.5547 338.926 66.7044 338.457 67.0039C338.001 67.3034 337.637 67.7201 337.363 68.2539C337.09 68.7747 336.895 69.3802 336.777 70.0703C336.66 70.7474 336.602 71.4701 336.602 72.2383ZM10.7812 124.312C11.3932 124.312 11.9141 124.202 12.3438 123.98C12.7865 123.746 13.1185 123.421 13.3398 123.004C13.5742 122.574 13.6849 122.06 13.6719 121.461H19.8633C19.8763 123.049 19.4857 124.443 18.6914 125.641C17.9102 126.826 16.8424 127.75 15.4883 128.414C14.1471 129.065 12.6302 129.391 10.9375 129.391C9.28385 129.391 7.83854 129.124 6.60156 128.59C5.36458 128.043 4.32943 127.288 3.49609 126.324C2.67578 125.348 2.05729 124.208 1.64062 122.906C1.23698 121.604 1.03516 120.191 1.03516 118.668V118.219C1.03516 116.695 1.23698 115.283 1.64062 113.98C2.05729 112.665 2.67578 111.526 3.49609 110.562C4.32943 109.586 5.35807 108.831 6.58203 108.297C7.81901 107.75 9.25781 107.477 10.8984 107.477C12.6562 107.477 14.2057 107.809 15.5469 108.473C16.901 109.137 17.9622 110.1 18.7305 111.363C19.4987 112.626 19.8763 114.156 19.8633 115.953H13.6719C13.6849 115.315 13.5872 114.742 13.3789 114.234C13.1706 113.727 12.8451 113.323 12.4023 113.023C11.9727 112.711 11.4193 112.555 10.7422 112.555C10.0651 112.555 9.51823 112.704 9.10156 113.004C8.6849 113.303 8.36589 113.72 8.14453 114.254C7.9362 114.775 7.79297 115.374 7.71484 116.051C7.64974 116.728 7.61719 117.451 7.61719 118.219V118.668C7.61719 119.449 7.64974 120.185 7.71484 120.875C7.79297 121.552 7.94271 122.151 8.16406 122.672C8.38542 123.18 8.70443 123.583 9.12109 123.883C9.53776 124.169 10.0911 124.312 10.7812 124.312ZM21.8555 118.648V118.238C21.8555 116.689 22.0768 115.263 22.5195 113.961C22.9622 112.646 23.6133 111.507 24.4727 110.543C25.332 109.579 26.3932 108.831 27.6562 108.297C28.9193 107.75 30.3776 107.477 32.0312 107.477C33.6979 107.477 35.1628 107.75 36.4258 108.297C37.7018 108.831 38.7695 109.579 39.6289 110.543C40.4883 111.507 41.1393 112.646 41.582 113.961C42.0247 115.263 42.2461 116.689 42.2461 118.238V118.648C42.2461 120.185 42.0247 121.611 41.582 122.926C41.1393 124.228 40.4883 125.367 39.6289 126.344C38.7695 127.307 37.7083 128.056 36.4453 128.59C35.1823 129.124 33.724 129.391 32.0703 129.391C30.4167 129.391 28.9518 129.124 27.6758 128.59C26.3997 128.056 25.332 127.307 24.4727 126.344C23.6133 125.367 22.9622 124.228 22.5195 122.926C22.0768 121.611 21.8555 120.185 21.8555 118.648ZM28.4375 118.238V118.648C28.4375 119.443 28.4961 120.185 28.6133 120.875C28.7305 121.565 28.9258 122.171 29.1992 122.691C29.4727 123.199 29.8438 123.596 30.3125 123.883C30.7812 124.169 31.3672 124.312 32.0703 124.312C32.7604 124.312 33.3333 124.169 33.7891 123.883C34.2578 123.596 34.6289 123.199 34.9023 122.691C35.1758 122.171 35.3711 121.565 35.4883 120.875C35.6055 120.185 35.6641 119.443 35.6641 118.648V118.238C35.6641 117.47 35.6055 116.747 35.4883 116.07C35.3711 115.38 35.1758 114.775 34.9023 114.254C34.6289 113.72 34.2578 113.303 33.7891 113.004C33.3203 112.704 32.7344 112.555 32.0312 112.555C31.3411 112.555 30.7617 112.704 30.293 113.004C29.8372 113.303 29.4727 113.72 29.1992 114.254C28.9258 114.775 28.7305 115.38 28.6133 116.07C28.4961 116.747 28.4375 117.47 28.4375 118.238ZM51.6406 112.379V129H45.0586V107.867H51.2305L51.6406 112.379ZM50.8594 117.711L49.3164 117.75C49.3164 116.135 49.5117 114.697 49.9023 113.434C50.293 112.158 50.8464 111.077 51.5625 110.191C52.2786 109.306 53.1315 108.635 54.1211 108.18C55.1237 107.711 56.237 107.477 57.4609 107.477C58.4375 107.477 59.3294 107.62 60.1367 107.906C60.957 108.193 61.6602 108.655 62.2461 109.293C62.8451 109.931 63.3008 110.777 63.6133 111.832C63.9388 112.874 64.1016 114.163 64.1016 115.699V129H57.4805V115.68C57.4805 114.833 57.3633 114.189 57.1289 113.746C56.8945 113.29 56.556 112.978 56.1133 112.809C55.6706 112.639 55.1302 112.555 54.4922 112.555C53.8151 112.555 53.2422 112.685 52.7734 112.945C52.3047 113.206 51.9271 113.57 51.6406 114.039C51.3672 114.495 51.1654 115.035 51.0352 115.66C50.918 116.285 50.8594 116.969 50.8594 117.711Z" fill="#47108E"/>
<path d="M136.387 116.194C135.271 115.798 133.907 115.442 132.296 115.131C130.882 114.844 129.881 114.573 129.286 114.316C128.693 114.06 128.397 113.659 128.397 113.116C128.397 112.516 128.693 112.023 129.286 111.64C129.878 111.254 130.655 111.062 131.616 111.062C132.831 111.062 133.982 111.289 135.07 111.739C136.158 112.193 137.027 112.758 137.677 113.435L139.838 109.76C137.492 107.915 134.736 106.991 131.571 106.991C129.848 106.991 128.349 107.265 127.08 107.815C125.807 108.366 124.839 109.108 124.176 110.044C123.512 110.98 123.18 111.998 123.18 113.096C123.18 114.543 123.576 115.673 124.368 116.49C125.16 117.307 126.091 117.897 127.167 118.258C128.24 118.619 129.597 118.948 131.235 119.241C132.647 119.543 133.685 119.869 134.35 120.22C135.012 120.571 135.346 121.114 135.346 121.848C135.346 122.65 135.055 123.288 134.477 123.753C133.897 124.221 133.043 124.455 131.913 124.455C130.697 124.455 129.413 124.174 128.056 123.606C126.699 123.041 125.626 122.391 124.834 121.657L122.503 125.409C123.576 126.378 124.926 127.139 126.552 127.692C128.175 128.245 129.878 128.524 131.659 128.524C133.439 128.524 135.085 128.24 136.427 127.675C137.769 127.107 138.785 126.323 139.479 125.314C140.172 124.308 140.518 123.18 140.518 121.933C140.518 120.344 140.107 119.092 139.288 118.171C138.468 117.25 137.5 116.59 136.384 116.194H136.387Z" fill="#47108E"/>
<path d="M158.871 108.438C157.233 107.474 155.311 106.994 153.107 106.994C150.904 106.994 149.024 107.474 147.385 108.438C145.747 109.401 144.49 110.703 143.613 112.344C142.737 113.988 142.299 115.783 142.299 117.737C142.299 119.692 142.737 121.532 143.613 123.173C144.49 124.816 145.747 126.119 147.385 127.08C149.024 128.041 150.931 128.524 153.107 128.524C155.283 128.524 157.233 128.043 158.871 127.08C160.51 126.116 161.767 124.814 162.644 123.173C163.52 121.532 163.958 119.719 163.958 117.737C163.958 115.756 163.52 113.988 162.644 112.344C161.767 110.703 160.51 109.401 158.871 108.438ZM156.942 122.496C155.996 123.776 154.716 124.413 153.105 124.413C151.494 124.413 150.221 123.773 149.29 122.496C148.357 121.216 147.891 119.63 147.891 117.735C147.891 115.84 148.357 114.301 149.29 113.024C150.221 111.744 151.494 111.104 153.105 111.104C154.716 111.104 155.993 111.744 156.942 113.024C157.888 114.304 158.361 115.873 158.361 117.735C158.361 119.597 157.888 121.216 156.942 122.496Z" fill="#47108E"/>
<path d="M175.233 121.744L169.892 107.502H164.128L172.434 128.858L171.672 130.643C171.418 131.196 171.065 131.586 170.612 131.821C170.158 132.052 169.566 132.169 168.831 132.169C168.209 132.169 167.644 132.057 167.136 131.83L166.332 136.026C166.643 136.098 167.066 136.158 167.604 136.208C168.142 136.255 168.607 136.28 169.003 136.28C170.925 136.223 172.521 135.834 173.794 135.115C175.066 134.395 176.055 133.13 176.762 131.323L186.383 107.502H180.576L175.235 121.744H175.233Z" fill="#47108E"/>
<path d="M282.656 107.444L282.651 107.447H282.656V107.444Z" fill="#47108E"/>
<path d="M206.844 108.363C205.283 107.412 203.495 106.936 201.481 106.936C199.466 106.936 197.606 107.419 195.99 108.388C194.372 109.354 193.109 110.656 192.201 112.29C191.665 113.253 191.292 114.279 191.073 115.365H196.468C196.575 114.229 197.054 113.221 197.905 112.342C198.757 111.463 199.949 111.022 201.481 111.022C203.099 111.022 204.327 111.468 205.163 112.362C206 113.256 206.46 114.254 206.548 115.365H196.468L191.172 120.661C191.409 121.652 191.772 122.573 192.265 123.42C193.217 125.055 194.529 126.32 196.202 127.214C197.875 128.111 199.75 128.559 201.822 128.559C203.468 128.559 205.041 128.322 206.548 127.852C208.051 127.379 209.299 126.711 210.292 125.847L207.91 122.429C207.257 123.054 206.426 123.549 205.42 123.918C204.411 124.286 203.413 124.47 202.419 124.47C200.744 124.47 199.382 123.992 198.333 123.036C197.283 122.08 196.673 120.882 196.503 119.448H211.786V118.256C211.786 116.042 211.353 114.077 210.489 112.359C209.623 110.644 208.41 109.309 206.849 108.358L206.844 108.363Z" fill="#47108E"/>
<path d="M233.107 107.447H227.061L222.848 113.791L218.591 107.447H212.545L219.4 117.451L212.122 128.008H218.122L222.848 121.069L227.529 128.008H233.575L226.21 117.451L233.107 107.447Z" fill="#47108E"/>
<path d="M251.816 108.216C250.439 107.362 248.871 106.936 247.113 106.936C245.863 106.936 244.693 107.208 243.602 107.746C242.509 108.286 241.565 109.05 240.771 110.044V107.447H235.365V135.839H240.771V125.409C241.595 126.46 242.544 127.247 243.625 127.772C244.703 128.297 245.865 128.559 247.115 128.559C248.873 128.559 250.442 128.133 251.819 127.279C253.196 126.427 254.274 125.182 255.053 123.547C255.833 121.911 256.223 119.971 256.223 117.725C256.223 115.479 255.833 113.545 255.053 111.924C254.274 110.303 253.193 109.065 251.819 108.214L251.816 108.216ZM249.177 122.578C248.226 123.815 246.971 124.433 245.41 124.433C244.558 124.433 243.687 124.179 242.793 123.674C241.899 123.166 241.224 122.548 240.771 121.819V113.682C241.224 112.952 241.892 112.335 242.77 111.827C243.649 111.319 244.531 111.065 245.41 111.065C246.971 111.065 248.226 111.682 249.177 112.92C250.128 114.157 250.604 115.758 250.604 117.725C250.604 119.692 250.128 121.341 249.177 122.578Z" fill="#47108E"/>
<path d="M274.608 108.766C272.933 107.546 270.776 106.936 268.137 106.936C266.461 106.936 264.853 107.185 263.307 107.683C261.76 108.181 260.376 108.928 259.156 109.922L261.2 113.448C262.961 111.829 264.96 111.022 267.203 111.022C268.565 111.022 269.658 111.321 270.48 111.916C271.304 112.511 271.715 113.311 271.715 114.314V117.15C271.035 116.326 270.127 115.703 268.991 115.278C267.856 114.852 266.593 114.638 265.204 114.638C264.011 114.638 262.876 114.874 261.798 115.347C260.72 115.82 259.826 116.567 259.116 117.586C258.407 118.607 258.053 119.899 258.053 121.465C258.053 123.031 258.407 124.266 259.116 125.344C259.826 126.422 260.727 127.229 261.82 127.76C262.913 128.29 264.041 128.556 265.204 128.556C266.536 128.556 267.779 128.315 268.929 127.832C270.079 127.349 271.008 126.696 271.718 125.875V128.004H277.123V114.727C277.123 111.976 276.287 109.989 274.611 108.766H274.608ZM271.713 122.797C271.287 123.33 270.684 123.741 269.902 124.035C269.121 124.328 268.277 124.473 267.37 124.473C266.262 124.473 265.341 124.219 264.604 123.713C263.867 123.208 263.498 122.516 263.498 121.637C263.498 120.758 263.867 120.021 264.604 119.503C265.341 118.985 266.265 118.724 267.37 118.724C268.279 118.724 269.123 118.871 269.902 119.162C270.682 119.453 271.287 119.866 271.713 120.399V122.795V122.797Z" fill="#47108E"/>
<path d="M291.849 123.835C291.68 124.004 291.423 124.149 291.082 124.261C290.741 124.375 290.373 124.43 289.974 124.43C289.407 124.43 288.953 124.194 288.612 123.718C288.271 123.245 288.102 122.642 288.102 121.915V111.577H292.272V107.449H288.102V101.994L282.654 107.442L282.651 107.444H279.25V111.572H282.656V122.717C282.656 124.605 283.152 126.049 284.145 127.052C285.139 128.053 286.586 128.556 288.488 128.556C290.502 128.556 292.006 128.178 293 127.423L291.849 123.83V123.835Z" fill="#47108E"/>
<path d="M115.783 114.252H110.801L114.663 110.39C113.784 108.281 112.489 106.304 110.773 104.589C103.732 97.5496 92.3157 97.5496 85.2767 104.591C80.9692 108.899 79.301 114.845 80.2646 120.424H85.2494L81.3875 124.286C82.2664 126.395 83.5612 128.372 85.2767 130.085C92.3182 137.127 103.732 137.127 110.773 130.085C115.081 125.778 116.749 119.832 115.783 114.252Z" fill="#3C137C"/>
<path d="M108.764 117.337C108.764 123.268 103.956 128.076 98.0251 128.076C97.9629 128.076 97.9006 128.076 97.8409 128.076C96.6208 128.056 95.4232 127.832 94.2853 127.409C93.3068 127.048 92.3905 126.545 91.5564 125.917C91.158 125.616 90.777 125.285 90.4259 124.936C90.4234 124.934 90.421 124.931 90.416 124.926C89.928 124.436 89.9429 123.634 90.4334 123.146L91.9 121.679C92.2386 121.341 92.4278 120.883 92.4278 120.407C92.4278 118.014 91.0434 117.441 89.3528 119.132L87.1044 121.381C85.7673 122.718 85.6453 124.829 86.8156 126.293L86.8355 126.318C87.1642 126.726 87.5152 127.117 87.8788 127.481C88.2423 127.844 88.6332 128.195 89.0415 128.524C89.8732 129.194 90.782 129.769 91.7431 130.235C92.7864 130.74 93.8919 131.121 95.0273 131.363C96.0257 131.574 97.0292 131.679 98.0251 131.681C105.946 131.679 112.367 125.257 112.367 117.337H108.764Z" fill="#F9F9F9"/>
<path d="M87.2933 117.337C87.2933 111.406 92.1013 106.598 98.0323 106.598C98.0946 106.598 98.1568 106.598 98.2166 106.598C99.4366 106.618 100.634 106.842 101.772 107.265C102.751 107.626 103.667 108.129 104.501 108.757C104.899 109.058 105.28 109.389 105.632 109.738C105.634 109.74 105.636 109.743 105.641 109.748C106.129 110.238 106.115 111.04 105.624 111.528L104.157 112.994C103.819 113.333 103.63 113.791 103.63 114.267C103.63 116.66 105.014 117.232 106.705 115.542L108.953 113.293C110.29 111.956 110.412 109.845 109.242 108.381L109.222 108.356C108.893 107.947 108.542 107.556 108.179 107.193C107.815 106.829 107.424 106.478 107.016 106.15C106.184 105.48 105.275 104.905 104.314 104.439C103.271 103.934 102.166 103.553 101.03 103.311C100.032 103.099 99.0283 102.995 98.0323 102.992C90.1119 102.995 83.6904 109.416 83.6904 117.337H87.2933Z" fill="#F9F9F9"/>
</svg>
